<svg width="87" height="135" viewBox="0 0 87 135" fill="none" xmlns="http://www.w3.org/2000/svg">
<path d="M16.8431 88.414C20.7603 90.1301 29.8445 91.1442 41.3595 91.1463C41.3595 91.1463 41.3617 91.1463 41.3628 91.1463C54.4991 91.1463 66.5409 89.7791 69.8838 87.9367V85.8923H16.8431V88.414ZM41.3617 92.4801C41.3596 92.4801 41.3617 92.4801 41.3595 92.4801C29.2681 92.4801 19.7478 91.345 15.8846 89.4367C15.6547 89.3266 15.5122 89.0911 15.5122 88.8384V85.227C15.5122 84.8609 15.8123 84.5639 16.1793 84.5639H70.552C70.919 84.5639 71.218 84.8609 71.218 85.227V88.3114C71.218 88.535 71.1046 88.7391 70.9233 88.8644C67.2317 91.3483 53.0106 92.4801 41.3617 92.4801Z" fill="#4D82CB" fill-opacity="0.6"/>
<path d="M13.8831 91.1928C14.1994 111.106 29.7794 120.179 44.2035 120.179C53.1161 120.179 61.2893 116.849 66.628 111.045C71.5512 105.693 73.8266 98.4793 73.2221 90.1711L70.7416 89.0598C66.6043 91.4077 52.8387 92.4757 41.5017 92.4779C29.7589 92.4779 20.4351 91.4055 16.3722 89.5933L13.8831 91.1928ZM44.2035 121.512C29.0519 121.512 12.6839 111.914 12.5479 90.8374C12.5457 90.6106 12.6612 90.399 12.8533 90.2715L15.9599 88.2758C16.1574 88.1494 16.4046 88.1343 16.6161 88.2369C20.3034 90.0577 29.6067 91.1442 41.5017 91.1442C55.0623 91.1442 67.4538 89.6873 70.3218 87.7563C70.5139 87.6267 70.7546 87.6073 70.964 87.7012L74.1277 89.1138C74.3501 89.2164 74.498 89.4292 74.5206 89.6689C75.2568 98.5257 72.867 106.228 67.6103 111.946C62.0179 118.026 53.4863 121.512 44.2035 121.512Z" fill="#4D82CB" fill-opacity="0.6"/>
<path d="M13.4604 82.5076V85.227C13.4604 86.7303 26.8483 87.9474 43.3653 87.9474C59.8812 87.9474 73.2701 86.7303 73.2701 85.227V82.5076H13.4604Z" fill="#4D82CB" fill-opacity="0.6"/>
<path d="M13.9029 85.1719C14.7416 86.1579 25.3381 87.5057 43.3651 87.5057C61.3901 87.5057 71.9865 86.1579 72.8242 85.1719V82.9547H13.9029V85.1719ZM43.3651 88.3924C35.3646 88.3924 27.8412 88.1094 22.1776 87.5943C13.0156 86.7616 13.0156 85.7637 13.0156 85.227V82.5076C13.0156 82.2625 13.2131 82.0638 13.4603 82.0638H73.27C73.5161 82.0638 73.7136 82.2625 73.7136 82.5076V85.227C73.7136 85.7637 73.7136 86.7616 64.5495 87.5943C58.8891 88.1094 51.3678 88.3924 43.3651 88.3924Z" fill="#4D82CB" fill-opacity="0.6"/>
<path d="M13.959 82.5076C15.1323 83.4872 25.6684 84.7864 43.3651 84.7864C61.0608 84.7864 71.5969 83.4872 72.7713 82.5076C71.5969 81.527 61.0608 80.2332 43.3651 80.2332C25.6684 80.2332 15.1323 81.527 13.959 82.5076ZM43.3651 85.673C35.3646 85.673 27.8412 85.389 22.1776 84.876C13.0156 84.0401 13.0156 83.0444 13.0156 82.5076C13.0156 81.9741 13.0156 80.9762 22.1776 80.1414C27.8412 79.6274 35.3646 79.3433 43.3651 79.3433C51.3678 79.3433 58.8891 79.6274 64.5495 80.1414C73.7136 80.9762 73.7136 81.9741 73.7136 82.5076C73.7136 83.0444 73.7136 84.0401 64.5495 84.876C58.8891 85.389 51.3678 85.673 43.3651 85.673Z" fill="#4D82CB" fill-opacity="0.6"/>
<path d="M2.46041 90.3268C2.95802 117.541 18.5099 132.35 45.0287 132.35C57.4882 132.35 66.996 128.672 73.9117 121.482C81.3747 113.717 84.8643 103.477 84.5329 88.8777C82.6018 88.3946 79.3314 88.298 78.2567 88.1531C78.5234 97.2399 76.4792 108.654 68.7798 116.66C63.3483 122.313 55.3553 125.181 45.0287 125.181C14.5302 125.181 8.88658 103.327 8.73654 89.3607C7.22826 89.5872 4.39153 89.8437 2.46041 90.3268ZM45.0287 134.283C17.6885 134.283 1.04228 118.36 0.529566 90.3268C0.52093 89.7954 0.720622 89.2932 1.09517 88.9131C1.46973 88.5319 1.97763 88.3946 2.51567 88.3191L10.0787 87.2832C10.4468 87.2832 10.7447 87.5802 10.7447 87.9474C10.7447 101.354 15.1994 123.847 45.0287 123.847C54.9808 123.847 62.6477 121.12 67.8235 115.737C75.3836 107.87 76.5623 95.6238 76.2137 86.7346C76.2039 86.3674 76.4878 86.0564 76.8548 86.0413L84.4815 86.9446C85.5501 86.9446 86.4395 87.8096 86.4643 88.8777C86.8022 103.841 82.8952 114.794 75.1796 122.821C68.007 130.28 57.8649 134.283 45.0287 134.283Z" fill="#4D82CB" fill-opacity="0.6"/>
<path d="M85.7404 93.2249C84.2921 96.8476 78.7401 89.6022 78.7401 89.6022C78.9815 97.8137 77.4441 101.205 76.5514 104.604C75.0431 110.347 72.7053 114.237 66.5205 119.688C69.7223 123.983 66.8078 128.903 66.8078 128.903C72.2832 124.831 78.9815 117.618 83.0851 108.923C84.6794 102.537 85.7404 93.2249 85.7404 93.2249Z" fill="#4D82CB" fill-opacity="0.6"/>
<path d="M14.6353 113.375C19.9859 121.296 28.769 126.881 44.3728 126.881C55.1722 126.881 64.5771 123.664 70.2299 118.149C77.9822 110.577 79.5991 95.829 79.4501 86.6039L76.6707 86.0909C74.8055 86.7303 74.2992 87.902 73.7142 89.7261C73.6527 89.9291 76.866 89.4831 76.866 89.6969C76.8315 98.328 75.1336 109.02 68.2308 116.201C62.9277 121.717 55.0999 124.513 44.9622 124.513C16.683 124.513 10.7732 104.703 10.0846 90.9486C10.0651 90.5976 13.0831 91.1797 13.0724 90.8374C13.0508 90.1667 11.2719 87.2994 10.1882 87.3264C9.32791 87.3459 7.74658 87.9474 7.74658 87.9474C7.86532 95.0784 9.32359 105.513 14.6353 113.375Z" fill="#4D82CB" fill-opacity="0.6"/>
<path d="M68.6007 77.2849V80.4246C66.1666 81.0089 57.5888 81.6322 43.4962 81.6322C29.4208 81.6322 21.3074 81.0089 18.8744 80.4246V77.768C18.1383 75.2484 16.5765 72.5566 15.495 69.5564C12.8656 62.2202 10.1844 53.7463 10.1844 46.854C10.1844 27.9363 24.8383 13.7664 43.7376 13.7664C62.6454 13.7664 76.5665 27.9363 76.5665 46.854C76.5665 54.0034 74.4746 61.3539 71.9801 68.3489C70.8576 71.5045 69.3886 74.4058 68.6007 77.2849ZM43.7376 11.3513C24.0676 11.3513 7.77051 27.1727 7.77051 46.854C7.77051 56.8415 13.7094 69.5783 16.2373 78.2537L16.247 82.2171C16.247 83.2183 28.5134 84.0325 43.5494 84.0325C58.592 84.0325 71.0146 83.1164 71.0146 82.1152V77.768C73.5523 68.5354 78.9804 57.5014 78.9804 46.854C78.9804 27.1727 63.4183 11.3513 43.7376 11.3513Z" fill="#4D82CB" fill-opacity="0.6"/>
<path d="M10.0786 91.2813C10.1326 94.452 10.8029 103.37 16.2657 111.291C22.1474 119.82 31.4151 124.146 43.8077 124.146C76.1002 124.146 76.6431 99.1056 76.655 90.1721H74.1508C73.9932 101.476 70.9612 109.74 65.1421 114.737C60.3096 118.887 53.5785 120.905 44.5666 120.905C44.5666 120.905 44.5666 120.905 44.5655 120.905C44.3237 120.905 44.0851 120.905 43.8477 120.9C35.0635 120.797 27.5541 118.156 22.1204 113.262C16.4082 108.114 13.1376 100.519 12.6465 91.2813H10.0786ZM43.8077 125.033C31.1053 125.033 21.5915 120.579 15.535 111.796C9.64468 103.255 9.18701 93.5967 9.18701 90.8374C9.18701 90.5912 9.3867 90.3925 9.63173 90.3925H13.0718C13.3082 90.3925 13.5035 90.5782 13.5133 90.8169C14.3001 108.886 25.6425 119.801 43.8574 120.012C44.0938 120.015 44.3291 120.015 44.5655 120.015C44.5666 120.015 44.5666 120.015 44.5666 120.015C63.9936 120.015 73.1146 110.389 73.27 89.724C73.2743 89.481 73.4697 89.2844 73.7136 89.2844H77.0986C77.3426 89.2844 77.5401 89.4821 77.5401 89.7261C77.5401 95.8052 77.009 104.734 72.414 112.099C67.0559 120.679 57.4309 125.033 43.8077 125.033Z" fill="#4D82CB" fill-opacity="0.6"/>
<path d="M73.7142 89.7261L70.5526 88.3113C67.4936 90.9486 44.704 92.9834 29.0137 91.2928C33.3587 92.2588 44.0326 93.8299 46.8765 96.3646C49.049 98.5382 48.5134 109.165 38.6693 119.792C47.3593 121.965 74.3949 121.482 73.7142 89.7261Z" fill="#4D82CB" fill-opacity="0.6"/>
<path d="M74.7401 89.7714C74.7401 89.7714 74.7045 90.4151 74.6365 91.5415C74.5631 92.6679 74.4714 94.2857 74.2544 96.2134C74.0396 98.1368 73.6964 100.382 73.0628 102.733C72.7433 103.905 72.3482 105.1 71.8689 106.282C71.3864 107.461 70.7982 108.623 70.1322 109.733C69.4705 110.851 68.6761 111.878 67.8438 112.841C67.0116 113.81 66.0671 114.646 65.1399 115.417C64.1728 116.157 63.2111 116.83 62.2385 117.366C62 117.501 61.7592 117.638 61.525 117.772C61.2886 117.897 61.0436 118.007 60.8105 118.125C60.3452 118.355 59.8908 118.575 59.4385 118.75C58.5513 119.142 57.7083 119.413 56.9667 119.679C56.2133 119.903 55.557 120.096 55.0119 120.244C53.912 120.502 53.2827 120.647 53.2827 120.647C53.2827 120.647 53.9098 120.493 55.0054 120.223C55.5484 120.071 56.2047 119.872 56.9527 119.637C57.6899 119.371 58.5308 119.085 59.4072 118.686C59.8606 118.506 60.3118 118.281 60.7738 118.046C61.0026 117.928 61.2455 117.817 61.4819 117.685C61.7118 117.552 61.9492 117.415 62.1856 117.276C63.1506 116.733 64.1016 116.049 65.0493 115.309C65.9646 114.53 66.8918 113.69 67.7078 112.722C68.5239 111.757 69.3021 110.731 69.9411 109.619C70.5898 108.509 71.1598 107.358 71.6261 106.183C72.087 105.006 72.4637 103.822 72.7745 102.658C73.3671 100.322 73.6866 98.0904 73.8799 96.1713C74.0752 94.2544 74.1508 92.6441 74.2134 91.5188C74.2663 90.3924 74.2987 89.7487 74.2987 89.7487L74.7401 89.7714Z" fill="#4D82CB" fill-opacity="0.6"/>
<path d="M75.3482 90.009C75.3482 90.009 75.3115 90.6527 75.2424 91.7877C75.169 92.9195 75.073 94.5405 74.8528 96.4791C74.6369 98.4165 74.2807 100.673 73.6492 103.03C73.3222 104.207 72.9271 105.403 72.4424 106.594C71.9621 107.78 71.3674 108.945 70.7035 110.063C70.0408 111.186 69.2464 112.227 68.4152 113.198C67.5852 114.172 66.6439 115.017 65.7189 115.807C64.755 116.555 63.7986 117.242 62.8315 117.794C62.5843 117.935 62.3468 118.075 62.1137 118.21C61.8773 118.343 61.6366 118.452 61.4034 118.577C60.935 118.812 60.4838 119.04 60.0326 119.223C59.1453 119.629 58.3034 119.916 57.5618 120.191C56.8052 120.432 56.15 120.631 55.6049 120.787C54.506 121.061 53.8789 121.219 53.8789 121.219C53.8789 121.219 54.5039 121.056 55.5984 120.771C56.1435 120.609 56.7998 120.399 57.5489 120.154C58.285 119.87 59.1226 119.574 60.0024 119.163C60.4514 118.975 60.9026 118.741 61.3635 118.498C61.5956 118.375 61.8341 118.261 62.0683 118.127C62.3004 117.991 62.5325 117.847 62.7743 117.708C63.7328 117.147 64.6837 116.452 65.6271 115.699C66.5414 114.904 67.4664 114.057 68.2792 113.075C69.0909 112.104 69.8692 111.068 70.5092 109.948C71.158 108.837 71.7365 107.676 72.2007 106.494C72.6637 105.312 73.0469 104.123 73.3545 102.951C73.959 100.606 74.2807 98.3658 74.4782 96.4391C74.6768 94.5114 74.7567 92.8925 74.8193 91.7629C74.8744 90.63 74.9046 89.9842 74.9046 89.9842L75.3482 90.009Z" fill="#4D82CB" fill-opacity="0.6"/>
<path d="M75.9864 90.0523C75.9864 90.0523 75.9443 90.7013 75.8731 91.8385C75.7953 92.9747 75.6863 94.6022 75.4467 96.5429C75.2125 98.4857 74.8422 100.746 74.2022 103.112C73.874 104.289 73.4876 105.498 73.0116 106.692C72.5323 107.885 71.9678 109.066 71.3245 110.203C70.6628 111.329 69.9234 112.409 69.1182 113.408C68.287 114.387 67.4192 115.315 66.4844 116.106C66.03 116.516 65.5389 116.866 65.079 117.234C64.5912 117.56 64.1313 117.907 63.6521 118.196C62.7033 118.786 61.7621 119.282 60.8769 119.691C60.4279 119.886 60.0059 120.086 59.5925 120.248C59.1769 120.4 58.7807 120.552 58.4073 120.691C57.6603 120.948 56.9954 121.137 56.4514 121.308C55.3482 121.58 54.7168 121.738 54.7168 121.738C54.7168 121.738 55.3472 121.576 56.446 121.287C56.9857 121.112 57.6495 120.92 58.3954 120.652C58.7624 120.507 59.1585 120.355 59.572 120.197C59.9854 120.031 60.4042 119.825 60.8489 119.626C61.7286 119.211 62.6558 118.707 63.597 118.108C64.0763 117.817 64.5264 117.465 65.0089 117.136C65.4601 116.764 65.9437 116.413 66.3916 115.999C67.3102 115.204 68.1607 114.274 68.9735 113.296C69.7647 112.294 70.4879 111.218 71.1323 110.092C71.7616 108.96 72.3035 107.782 72.7676 106.597C73.2275 105.407 73.5955 104.205 73.9075 103.033C74.5173 100.68 74.8595 98.4328 75.0754 96.4997C75.2923 94.5676 75.383 92.9455 75.451 91.8126C75.5115 90.6765 75.5428 90.0285 75.5428 90.0285L75.9864 90.0523Z" fill="#4D82CB" fill-opacity="0.6"/>
<path d="M76.5712 90.0523C76.5712 90.0523 76.5291 90.7143 76.4578 91.8742C76.3812 93.0373 76.2711 94.6951 76.0293 96.68C75.7929 98.6618 75.4108 100.969 74.7632 103.382C74.4307 104.588 74.0281 105.817 73.5478 107.037C73.0577 108.253 72.477 109.458 71.8186 110.618C71.1569 111.776 70.3841 112.868 69.5669 113.894C68.7304 114.902 67.8345 115.834 66.8933 116.657C66.427 117.071 65.9391 117.444 65.4696 117.815C64.973 118.154 64.5121 118.519 64.0188 118.811C63.0549 119.426 62.1018 119.94 61.2027 120.367C60.7526 120.568 60.3262 120.787 59.8998 120.952C59.48 121.12 59.0763 121.274 58.7017 121.422C57.9418 121.695 57.265 121.903 56.7124 122.085C55.5898 122.38 54.9497 122.553 54.9497 122.553C54.9497 122.553 55.5898 122.376 56.707 122.062C57.2575 121.879 57.9299 121.665 58.6834 121.382C59.0611 121.23 59.4594 121.072 59.8793 120.905C60.2981 120.731 60.7223 120.513 61.1757 120.303C62.0684 119.87 63.0107 119.343 63.9627 118.723C64.4517 118.427 64.9061 118.059 65.3983 117.718C65.8614 117.344 66.3396 116.967 66.8026 116.555C67.7277 115.723 68.6084 114.787 69.4299 113.78C70.2297 112.751 70.981 111.662 71.6264 110.51C72.2665 109.352 72.8321 108.155 73.3028 106.941C73.7648 105.725 74.1501 104.502 74.4718 103.307C75.0892 100.902 75.4421 98.6099 75.658 96.6347C75.8782 94.6637 75.9689 93.0071 76.0347 91.8483C76.0941 90.6916 76.1276 90.0285 76.1276 90.0285L76.5712 90.0523Z" fill="#4D82CB" fill-opacity="0.6"/>
<path d="M36.1587 116.301C36.1587 116.301 36.3943 116.119 36.8055 115.796C37 115.623 37.2369 115.419 37.5009 115.17C37.7482 114.908 38.0495 114.635 38.3454 114.302C38.6469 113.976 38.9659 113.615 39.2783 113.216C39.6119 112.829 39.9095 112.383 40.2518 111.946C40.5618 111.485 40.9005 111.024 41.2001 110.527C41.3543 110.279 41.5084 110.03 41.6604 109.782L42.0897 109.007C42.3825 108.493 42.6248 107.951 42.88 107.43C43.092 106.891 43.3525 106.38 43.5171 105.852C43.6058 105.59 43.6973 105.336 43.789 105.083C43.8614 104.828 43.9332 104.575 44.0017 104.332C44.1567 103.85 44.2323 103.372 44.3189 102.939C44.4154 102.505 44.4372 102.1 44.4882 101.742C44.5095 101.562 44.53 101.394 44.5439 101.237C44.5428 101.082 44.5465 100.934 44.5465 100.807C44.5633 100.288 44.5695 99.9873 44.5695 99.9873C44.5695 99.9873 44.5914 100.286 44.633 100.805C44.6439 100.937 44.6561 101.081 44.6665 101.239C44.6695 101.398 44.6562 101.569 44.6539 101.751C44.6343 102.117 44.6516 102.531 44.5663 102.976C44.4985 103.422 44.4447 103.909 44.3121 104.41C44.2558 104.663 44.1992 104.921 44.1369 105.189C44.0539 105.447 43.9719 105.71 43.8853 105.977C43.7274 106.523 43.4864 107.054 43.2702 107.605C43.0163 108.138 42.775 108.695 42.4779 109.216L42.0385 110C41.8782 110.257 41.7167 110.507 41.5596 110.758C41.4099 111.012 41.2398 111.253 41.0662 111.487C40.8981 111.721 40.73 111.949 40.5645 112.179C40.2116 112.618 39.8801 113.049 39.5219 113.423C39.1862 113.816 38.8421 114.16 38.5217 114.475C38.2119 114.799 37.8814 115.052 37.6096 115.295C37.3234 115.522 37.0624 115.709 36.8567 115.865C36.4169 116.15 36.1587 116.301 36.1587 116.301Z" fill="#4D82CB" fill-opacity="0.6"/>
<path d="M43.7822 128.006C42.8409 128.006 42.08 128.773 42.08 129.711C42.08 130.651 42.8409 131.411 43.7822 131.411C44.7202 131.411 45.4833 130.651 45.4833 129.711C45.4833 128.773 44.7202 128.006 43.7822 128.006ZM43.7822 131.857C42.6002 131.857 41.6353 130.894 41.6353 129.711C41.6353 128.526 42.6002 127.566 43.7822 127.566C44.962 127.566 45.9248 128.526 45.9248 129.711C45.9248 130.894 44.962 131.857 43.7822 131.857Z" fill="#4D82CB" fill-opacity="0.6"/>
<path d="M45.0715 129.158C45.0715 129.158 45.092 129.219 45.1255 129.326C45.146 129.378 45.1611 129.447 45.1665 129.529C45.1762 129.606 45.1935 129.701 45.1762 129.8C45.1751 129.898 45.1578 130.008 45.1201 130.116C45.0996 130.232 45.0348 130.339 44.9765 130.454C44.9074 130.557 44.8351 130.671 44.7304 130.758C44.6322 130.851 44.5188 130.933 44.3958 130.994C44.2738 131.06 44.1389 131.09 44.0072 131.121C43.8712 131.134 43.7395 131.148 43.6121 131.123C43.4837 131.118 43.3693 131.068 43.2603 131.035C43.1523 130.992 43.0584 130.933 42.9731 130.89C42.8922 130.828 42.8231 130.772 42.7627 130.718C42.7022 130.671 42.6623 130.612 42.6234 130.57C42.55 130.486 42.5068 130.433 42.5068 130.433C42.5068 130.433 42.5587 130.472 42.6515 130.541C42.6968 130.57 42.7421 130.618 42.8112 130.653C42.8792 130.687 42.9548 130.733 43.0347 130.777C43.203 130.852 43.4049 130.923 43.6316 130.93C43.7406 130.947 43.8528 130.918 43.9673 130.912C44.0817 130.88 44.1918 130.852 44.2954 130.795C44.4023 130.743 44.4994 130.678 44.5847 130.596C44.6764 130.525 44.7455 130.433 44.8135 130.35C44.8686 130.25 44.9387 130.161 44.969 130.064C45.0132 129.969 45.0391 129.874 45.0542 129.782C45.078 129.693 45.078 129.61 45.0834 129.534C45.0963 129.457 45.092 129.39 45.0834 129.334C45.078 129.224 45.0715 129.158 45.0715 129.158Z" fill="#4D82CB" fill-opacity="0.6"/>
<path d="M18.8129 120.191C18.189 120.191 17.618 120.531 17.318 121.075C16.8689 121.899 17.1712 122.937 17.9947 123.388C18.2441 123.524 18.5247 123.599 18.8075 123.599C19.4325 123.599 20.0057 123.256 20.3036 122.708C20.5216 122.312 20.5734 121.852 20.4428 121.416C20.3155 120.977 20.0251 120.618 19.629 120.399C19.3785 120.263 19.0957 120.191 18.8129 120.191ZM18.8075 124.042C18.4513 124.042 18.0973 123.95 17.7832 123.776C16.7426 123.208 16.3616 121.903 16.9272 120.864C17.305 120.175 18.0282 119.748 18.8129 119.748C19.1691 119.748 19.5264 119.839 19.8405 120.012C20.3414 120.286 20.7084 120.738 20.8692 121.289C21.0311 121.841 20.9674 122.42 20.6922 122.925C20.3176 123.613 19.5944 124.042 18.8075 124.042Z" fill="#4D82CB" fill-opacity="0.6"/>
<path d="M20.2114 122.029C20.2114 122.029 20.1985 122.092 20.1769 122.203C20.1672 122.257 20.1499 122.323 20.1164 122.398C20.084 122.471 20.0581 122.561 19.9955 122.64C19.9448 122.724 19.8779 122.811 19.7926 122.891C19.7192 122.983 19.6123 123.048 19.5066 123.119C19.3943 123.18 19.2756 123.238 19.1439 123.268C19.0122 123.302 18.874 123.318 18.738 123.311C18.5988 123.311 18.4649 123.274 18.3343 123.238C18.2091 123.186 18.085 123.134 17.9878 123.054C17.8734 122.985 17.7979 122.886 17.7191 122.803C17.6478 122.715 17.5928 122.617 17.5377 122.535C17.4946 122.446 17.4643 122.36 17.4352 122.29C17.4028 122.217 17.3974 122.147 17.3812 122.092C17.3607 121.979 17.3467 121.914 17.3467 121.914C17.3467 121.914 17.3758 121.975 17.4222 122.073C17.4481 122.127 17.4665 122.191 17.5097 122.255C17.5518 122.32 17.5993 122.392 17.6446 122.471C17.759 122.616 17.9015 122.778 18.0947 122.889C18.1843 122.958 18.2955 122.988 18.4002 123.037C18.5135 123.061 18.6279 123.092 18.7445 123.092C18.8622 123.098 18.982 123.087 19.0931 123.061C19.2076 123.037 19.3123 122.993 19.4137 122.949C19.5066 122.887 19.6102 122.846 19.6847 122.772C19.7689 122.708 19.8369 122.64 19.8951 122.568C19.9578 122.499 19.9988 122.427 20.0387 122.366C20.0873 122.301 20.1153 122.241 20.1348 122.19C20.1833 122.087 20.2114 122.029 20.2114 122.029Z" fill="#4D82CB" fill-opacity="0.6"/>
<path d="M6.12124 99.288C5.49735 99.288 4.92418 99.625 4.62735 100.17C4.17616 100.994 4.47947 102.03 5.30305 102.483C5.55239 102.622 5.8352 102.691 6.11693 102.691C6.73974 102.691 7.31398 102.353 7.61189 101.805C7.82777 101.409 7.87959 100.946 7.75006 100.511C7.62377 100.075 7.33233 99.7136 6.93619 99.4987C6.68469 99.3604 6.40081 99.288 6.12124 99.288ZM6.11693 103.138C5.75965 103.138 5.40452 103.047 5.08933 102.874C4.05095 102.303 3.66992 100.997 4.23661 99.9587C4.61224 99.2719 5.33544 98.8453 6.12124 98.8453C6.47637 98.8453 6.83256 98.9338 7.14883 99.1077C7.65075 99.3831 8.01775 99.8345 8.1775 100.385C8.33941 100.937 8.27572 101.515 8.00156 102.02C7.62377 102.708 6.90273 103.138 6.11693 103.138Z" fill="#4D82CB" fill-opacity="0.6"/>
<path d="M7.51844 101.126C7.51844 101.126 7.50657 101.188 7.48498 101.299C7.47311 101.354 7.45692 101.421 7.42454 101.491C7.39215 101.568 7.36409 101.659 7.30364 101.736C7.25075 101.822 7.18383 101.91 7.10071 101.988C7.02731 102.079 6.91829 102.146 6.81575 102.216C6.70241 102.275 6.5826 102.336 6.45091 102.364C6.32139 102.397 6.18106 102.415 6.04398 102.408C5.9069 102.406 5.77305 102.37 5.64136 102.339C5.51831 102.282 5.3931 102.23 5.2938 102.15C5.18262 102.083 5.10598 101.984 5.02718 101.899C4.9527 101.811 4.90197 101.715 4.84584 101.634C4.80267 101.544 4.77136 101.46 4.7433 101.385C4.71091 101.31 4.70659 101.242 4.6904 101.188C4.66666 101.078 4.65479 101.014 4.65479 101.014C4.65479 101.014 4.68285 101.07 4.73034 101.173C4.75625 101.223 4.77568 101.286 4.81778 101.352C4.86095 101.418 4.90629 101.489 4.9527 101.568C5.06604 101.712 5.2096 101.874 5.40281 101.988C5.4924 102.055 5.6025 102.084 5.70936 102.131C5.82162 102.16 5.93388 102.186 6.05261 102.183C6.16811 102.195 6.289 102.183 6.3991 102.153C6.51459 102.131 6.6193 102.089 6.72292 102.044C6.81575 101.986 6.91829 101.944 6.99277 101.869C7.07697 101.805 7.14713 101.736 7.20218 101.663C7.26694 101.595 7.30688 101.523 7.35006 101.461C7.39431 101.4 7.42345 101.336 7.44396 101.286C7.49254 101.184 7.51844 101.126 7.51844 101.126Z" fill="#4D82CB" fill-opacity="0.6"/>
<path d="M68.4299 120.999C68.1493 120.999 67.8665 121.072 67.616 121.21C67.2156 121.426 66.9285 121.785 66.8 122.221C66.6726 122.66 66.7234 123.119 66.9392 123.518C67.2393 124.062 67.8103 124.403 68.4331 124.403C68.7192 124.403 69.0009 124.332 69.2481 124.194C70.0706 123.747 70.3782 122.708 69.927 121.884C69.6259 121.337 69.0538 120.999 68.4299 120.999ZM68.4331 124.851C67.6495 124.851 66.9285 124.422 66.5507 123.731C66.2765 123.229 66.215 122.647 66.3758 122.1C66.5345 121.548 66.9025 121.093 67.4034 120.817C67.7175 120.644 68.0737 120.554 68.4299 120.554C69.2168 120.554 69.94 120.985 70.3124 121.674C70.8801 122.708 70.497 124.017 69.4607 124.585C69.1477 124.757 68.7904 124.851 68.4331 124.851Z" fill="#4D82CB" fill-opacity="0.6"/>
<path d="M67.0332 122.836C67.0332 122.836 67.0602 122.897 67.1099 122.998C67.1282 123.048 67.1595 123.11 67.2059 123.171C67.2458 123.235 67.289 123.306 67.3484 123.373C67.4056 123.448 67.4736 123.518 67.5621 123.582C67.6312 123.653 67.7359 123.695 67.8298 123.754C67.9302 123.802 68.036 123.843 68.1515 123.867C68.2648 123.894 68.3835 123.907 68.499 123.897C68.6199 123.899 68.7322 123.871 68.8445 123.843C68.9481 123.798 69.0593 123.766 69.1478 123.7C69.3421 123.584 69.4845 123.424 69.599 123.279C69.6465 123.201 69.6918 123.129 69.735 123.066C69.776 123 69.7976 122.936 69.8202 122.886C69.871 122.784 69.898 122.724 69.898 122.724C69.898 122.724 69.8839 122.785 69.8613 122.898C69.8472 122.954 69.8397 123.021 69.8127 123.097C69.7825 123.169 69.7501 123.256 69.7069 123.345C69.6486 123.426 69.599 123.524 69.5245 123.613C69.4446 123.695 69.369 123.795 69.2579 123.86C69.1575 123.94 69.0344 123.994 68.9092 124.047C68.7797 124.083 68.6469 124.12 68.5088 124.12C68.3706 124.127 68.2303 124.109 68.0997 124.073C67.9669 124.047 67.8503 123.987 67.7359 123.93C67.6312 123.855 67.5287 123.79 67.4542 123.7C67.3689 123.62 67.3031 123.534 67.2513 123.448C67.1876 123.371 67.1595 123.279 67.1282 123.206C67.0947 123.133 67.0764 123.066 67.0699 123.012C67.044 122.9 67.0332 122.836 67.0332 122.836Z" fill="#4D82CB" fill-opacity="0.6"/>
<path d="M81.1439 98.7038C80.859 98.7038 80.5772 98.7794 80.329 98.9155C79.9285 99.1337 79.6403 99.4933 79.5129 99.9307C79.3856 100.368 79.4341 100.826 79.6511 101.226C79.9501 101.771 80.5243 102.111 81.1461 102.111C81.4289 102.111 81.7106 102.039 81.9621 101.902C82.7835 101.451 83.0879 100.414 82.6335 99.5883C82.341 99.044 81.7656 98.7038 81.1439 98.7038ZM81.1461 102.555C80.3624 102.555 79.6381 102.128 79.2593 101.438C78.6915 100.4 79.0769 99.0926 80.1152 98.5256C80.4304 98.3518 80.7877 98.261 81.1439 98.261C81.9286 98.261 82.6486 98.6876 83.0264 99.3777C83.5931 100.417 83.211 101.722 82.1747 102.294C81.8563 102.463 81.5044 102.555 81.1461 102.555Z" fill="#4D82CB" fill-opacity="0.6"/>
<path d="M79.7446 100.543C79.7446 100.543 79.7727 100.605 79.8202 100.705C79.8429 100.758 79.872 100.82 79.9152 100.88C79.9594 100.944 79.9972 101.014 80.0587 101.084C80.1192 101.154 80.1872 101.226 80.2714 101.289C80.3469 101.361 80.4484 101.405 80.5412 101.464C80.6427 101.512 80.7506 101.552 80.864 101.574C80.9762 101.601 81.0939 101.613 81.2094 101.605C81.3292 101.605 81.4404 101.58 81.5548 101.552C81.6606 101.507 81.7717 101.473 81.8624 101.407C82.0535 101.293 82.1981 101.133 82.3093 100.984C82.3589 100.908 82.4043 100.835 82.4475 100.772C82.4906 100.707 82.5079 100.642 82.5327 100.592C82.5813 100.489 82.6094 100.434 82.6094 100.434C82.6094 100.434 82.5964 100.494 82.5737 100.606C82.5575 100.66 82.5565 100.731 82.5219 100.804C82.4917 100.878 82.4626 100.963 82.4151 101.052C82.3622 101.133 82.3082 101.231 82.2391 101.32C82.1582 101.405 82.0794 101.499 81.9682 101.568C81.8689 101.65 81.7469 101.702 81.6239 101.755C81.4922 101.789 81.3583 101.825 81.218 101.827C81.0852 101.836 80.9439 101.818 80.8143 101.785C80.6805 101.755 80.5661 101.692 80.4484 101.634C80.3437 101.565 80.2358 101.497 80.1624 101.409C80.0782 101.328 80.0112 101.242 79.9594 101.154C79.9001 101.078 79.872 100.984 79.8385 100.912C79.8072 100.838 79.7878 100.772 79.7803 100.717C79.7587 100.606 79.7446 100.543 79.7446 100.543Z" fill="#4D82CB" fill-opacity="0.6"/>
<path d="M65.883 76.0427C65.449 77.2655 63.9711 77.8667 62.5887 77.3755C61.2114 76.8861 60.4446 75.4874 60.8786 74.2646C61.3158 73.0329 65.0231 66.1468 66.4004 66.6362C67.7828 67.1273 66.3202 74.811 65.883 76.0427Z" fill="#4D82CB" fill-opacity="0.6"/>
<path d="M65.2911 52.7839C65.2911 65.2619 55.4292 75.3732 43.2638 75.3732C31.0997 75.3732 21.2378 65.2619 21.2378 52.7839C21.2378 40.3059 31.0997 30.1946 43.2638 30.1946C55.4292 30.1946 65.2911 40.3059 65.2911 52.7839Z" fill="#4D82CB" fill-opacity="0.6"/>
<path d="M43.2645 30.4554C31.2648 30.4554 21.4991 40.4717 21.4991 52.7839C21.4991 65.0936 31.2648 75.115 43.2645 75.115C55.2667 75.115 65.0325 65.0936 65.0325 52.7839C65.0325 40.4717 55.2667 30.4554 43.2645 30.4554ZM43.2645 75.6314C30.9777 75.6314 20.9805 65.3809 20.9805 52.7839C20.9805 40.1831 30.9777 29.9352 43.2645 29.9352C55.5539 29.9352 65.5498 40.1831 65.5498 52.7839C65.5498 65.3809 55.5539 75.6314 43.2645 75.6314Z" fill="#4D82CB" fill-opacity="0.6"/>
<path d="M23.9823 58.2351C26.0559 67.2819 34.4326 73.8051 43.6681 73.8051C53.6034 73.8051 61.994 66.6959 63.6233 56.8998C63.9965 53.6163 64.0152 53.1333 63.5259 49.692C61.6917 40.2034 53.3364 33.317 43.6681 33.317C34.695 33.317 26.5866 39.516 24.1708 48.1479C23.5725 52.6503 23.5725 53.6163 23.9823 58.2351ZM43.6681 74.3227C34.168 74.3227 25.9342 67.9363 23.5725 58.7565C22.979 54.0994 22.979 52.6503 23.78 47.6252C26.3833 38.8846 34.5324 32.7981 43.6681 32.7981C53.5135 32.7981 62.0269 39.7566 63.9965 49.3806C64.498 53.1333 64.498 53.1333 64.099 57.1998C62.3457 67.1364 53.7868 74.3227 43.6681 74.3227Z" fill="#4D82CB" fill-opacity="0.6"/>
<path d="M58.5214 53.561C58.5214 61.7713 51.8713 68.4261 43.6679 68.4261C35.4619 68.4261 28.8105 61.7713 28.8105 53.561C28.8105 45.3507 35.4619 38.6972 43.6679 38.6972C51.8713 38.6972 58.5214 45.3507 58.5214 53.561Z" fill="#4D82CB" fill-opacity="0.6"/>
<path d="M43.668 38.9567C35.6189 38.9567 29.0713 45.509 29.0713 53.561C29.0713 61.6143 35.6189 68.1654 43.668 68.1654C51.7159 68.1654 58.2609 61.6143 58.2609 53.561C58.2609 45.509 51.7159 38.9567 43.668 38.9567ZM43.668 68.6855C35.3317 68.6855 28.5488 61.9029 28.5488 53.561C28.5488 45.2229 35.3317 38.4353 43.668 38.4353C52.003 38.4353 58.7821 45.2229 58.7821 53.561C58.7821 61.9029 52.003 68.6855 43.668 68.6855Z" fill="#4D82CB" fill-opacity="0.6"/>
<path d="M43.6677 37.3114C34.7103 37.3114 27.4264 44.6015 27.4264 53.5611C27.4264 62.5206 34.7103 69.8133 43.6677 69.8133C52.6213 69.8133 59.9076 62.5206 59.9076 53.5611C59.9076 44.6015 52.6213 37.3114 43.6677 37.3114ZM43.6677 70.3322C34.4244 70.3322 26.9053 62.8104 26.9053 53.5611C26.9053 44.3155 34.4244 36.79 43.6677 36.79C52.9097 36.79 60.4313 44.3155 60.4313 53.5611C60.4313 62.8104 52.9097 70.3322 43.6677 70.3322Z" fill="#4D82CB" fill-opacity="0.6"/>
<path d="M61.4017 45.304C61.4017 45.304 61.4915 45.5343 61.656 45.9583C61.742 46.1735 61.8445 46.4342 61.9659 46.7443C62.0266 46.9012 62.0911 47.0633 62.1569 47.2417C62.2088 47.4278 62.2619 47.6239 62.3188 47.8328C62.4314 48.2466 62.5541 48.7086 62.6933 49.2085C62.7768 49.7211 62.8716 50.2742 62.9716 50.8665C63.0791 51.4588 63.0791 52.1005 63.1386 52.7764C63.1778 53.1093 63.1575 53.4611 63.1436 53.8117C63.1297 54.1686 63.1183 54.5318 63.1095 54.9027C63.1069 55.276 63.0184 55.6469 62.9855 56.0342C62.9298 56.4177 62.8969 56.81 62.8198 57.2036C62.7287 57.596 62.6376 57.9947 62.5453 58.3971C62.4947 58.6022 62.4479 58.8009 62.3985 59.0097C62.3315 59.2084 62.2619 59.4109 62.1936 59.6122C62.0595 60.0184 61.9229 60.4285 61.78 60.8462C61.5991 61.2448 61.4194 61.6498 61.2322 62.0637C61.1399 62.265 61.0526 62.4763 60.9514 62.6801C60.8363 62.8788 60.7249 63.075 60.6098 63.2737C60.3733 63.6686 60.1633 64.085 59.8964 64.4697C58.8642 66.0353 57.5625 67.4921 56.0647 68.7742C54.5227 70.0234 52.815 71.0308 50.9225 71.8421C49.1313 72.5154 47.0934 73.0179 45.1428 73.171C43.1719 73.2888 41.2239 73.1381 39.3985 72.7255C38.9406 72.6332 38.5016 72.4762 38.0576 72.3572C37.8375 72.2927 37.6174 72.2281 37.3985 72.1649C37.1835 72.0902 36.9773 71.9978 36.766 71.9143C36.3511 71.7459 35.9387 71.5789 35.5314 71.4156C35.1418 71.2131 34.756 71.0119 34.3765 70.8144C34.1855 70.717 33.9995 70.6182 33.8123 70.522C33.6364 70.4069 33.4593 70.293 33.2848 70.1816C32.9382 69.9538 32.5954 69.731 32.2601 69.5108C31.9325 69.2792 31.634 69.0172 31.3316 68.7792C31.0369 68.5299 30.7181 68.3148 30.4563 68.0528C30.1919 67.7946 29.9326 67.5389 29.677 67.2883C29.424 67.044 29.1685 66.8086 28.9648 66.5378C28.5398 66.0075 28.0958 65.5443 27.7606 65.0469C27.4241 64.5495 27.1091 64.0875 26.8144 63.6572C26.5664 63.2028 26.34 62.7813 26.1325 62.4042C26.0288 62.2143 25.9314 62.0409 25.8416 61.8726C25.7657 61.6954 25.6974 61.5309 25.6341 61.3777C25.5076 61.0702 25.4001 60.8069 25.3115 60.5968C25.137 60.1716 25.0459 59.945 25.0459 59.945C25.0459 59.945 25.156 60.164 25.3621 60.5702C25.4659 60.7766 25.5962 61.0259 25.7442 61.3233C25.8226 61.4714 25.9036 61.6271 25.987 61.7967C26.0895 61.9561 26.1958 62.1283 26.3084 62.3067C26.5335 62.6687 26.7827 63.0661 27.0572 63.499C27.3697 63.9014 27.7062 64.3393 28.0692 64.8102C28.4234 65.2747 28.8889 65.7037 29.3279 66.1935C29.5467 66.4441 29.801 66.6631 30.0603 66.8947C30.3184 67.125 30.5815 67.3605 30.8497 67.5959C31.1103 67.8465 31.429 68.0414 31.7238 68.2717C32.0299 68.4869 32.3297 68.7274 32.6523 68.9375C32.9888 69.1374 33.3253 69.3412 33.6668 69.55C33.8388 69.6525 34.0109 69.7576 34.1829 69.8588C34.3663 69.9487 34.5498 70.036 34.7357 70.1272C35.1064 70.3044 35.4795 70.4841 35.8628 70.6676C36.2575 70.8144 36.6585 70.9625 37.062 71.1106C37.2644 71.184 37.4643 71.265 37.6743 71.3295C37.8868 71.3865 38.0955 71.4447 38.3055 71.5017C38.7331 71.6092 39.1531 71.751 39.592 71.8307C41.3453 72.199 43.1985 72.2788 45.0644 72.1699C46.9492 71.9953 48.724 71.5624 50.5848 70.8549C52.2849 70.1322 53.9762 69.1678 55.4284 67.9983C56.8503 66.7833 58.1317 65.443 59.1412 63.9609C59.4005 63.5977 59.6067 63.2028 59.8432 62.832C59.9546 62.6447 60.0659 62.4561 60.1785 62.2688C60.2847 62.0789 60.372 61.8789 60.4682 61.6891C60.6554 61.2993 60.8426 60.917 61.0248 60.5348C61.1715 60.1425 61.3157 59.7514 61.4624 59.3666C61.5345 59.1717 61.6067 58.9806 61.6737 58.792C61.7281 58.5933 61.78 58.4009 61.8331 58.206C61.9368 57.8187 62.0393 57.4416 62.1392 57.0657C62.2278 56.686 62.2784 56.3088 62.3454 55.9392C62.3998 55.5684 62.4985 55.2102 62.5137 54.8483C62.5453 54.4888 62.5681 54.1344 62.5959 53.7914C62.6212 53.4472 62.6566 53.1093 62.6376 52.7789C62.6212 52.1233 62.6566 51.4917 62.5908 50.9083C62.5263 50.3198 62.4681 49.7692 62.4099 49.2617C62.3024 48.7605 62.2113 48.3011 62.124 47.8885C62.0861 47.6796 62.0405 47.4822 62.0026 47.2961C61.9482 47.1139 61.8963 46.943 61.8483 46.7848C61.7547 46.4671 61.6699 46.195 61.6067 45.9786C61.47 45.5419 61.4017 45.304 61.4017 45.304Z" fill="#4D82CB" fill-opacity="0.6"/>
<path d="M58.4633 40.7161C58.4633 41.5926 57.7473 42.3005 56.8734 42.3005C56.0016 42.3005 55.292 41.5926 55.292 40.7161C55.292 39.8375 56.0016 39.1254 56.8734 39.1254C57.7473 39.1254 58.4633 39.8375 58.4633 40.7161Z" fill="#4D82CB" fill-opacity="0.6"/>
<path d="M31.9103 65.6902C31.9103 66.4927 31.2634 67.1412 30.463 67.1412C29.6644 67.1412 29.0137 66.4927 29.0137 65.6902C29.0137 64.8877 29.6644 64.243 30.463 64.243C31.2634 64.243 31.9103 64.8877 31.9103 65.6902Z" fill="#4D82CB" fill-opacity="0.6"/>
<path d="M9.83197 38.8241L4.98438 39.2528L7.22953 64.5802L12.0771 64.1471C14.1215 63.9667 15.2765 58.1511 14.6569 51.1584C14.0362 44.1645 11.8764 38.6427 9.83197 38.8241Z" fill="#4D82CB" fill-opacity="0.6"/>
<path d="M5.22458 39.4559L7.42871 64.3394L12.0561 63.929C12.9261 63.8501 13.6871 62.4786 14.148 60.1632C14.6326 57.73 14.7341 54.5398 14.434 51.1768C13.7918 43.9183 11.5855 39.0434 9.92753 39.0434C9.90379 39.0434 9.87572 39.0434 9.84982 39.0455L5.22458 39.4559ZM7.02718 64.821L4.74316 39.0542L9.80988 38.6028C11.9935 38.417 14.243 43.9777 14.8777 51.1379C15.181 54.5409 15.0741 57.7753 14.583 60.2517C14.0746 62.8112 13.1906 64.2713 12.0939 64.3696L7.02718 64.821Z" fill="#4D82CB" fill-opacity="0.6"/>
<path d="M5.22458 39.4559L7.42871 64.3394L12.0561 63.929C12.9261 63.8501 13.6871 62.4786 14.148 60.1632C14.6326 57.73 14.7341 54.5398 14.434 51.1768C13.7918 43.9183 11.5855 39.0434 9.92753 39.0434C9.90379 39.0434 9.87572 39.0434 9.84982 39.0455L5.22458 39.4559ZM7.02718 64.821L4.74316 39.0542L9.80988 38.6028C11.9935 38.417 14.243 43.9777 14.8777 51.1379C15.181 54.5409 15.0741 57.7753 14.583 60.2517C14.0746 62.8112 13.1906 64.2713 12.0939 64.3696L7.02718 64.821Z" fill="#4D82CB" fill-opacity="0.6"/>
<path d="M5.08145 39.471C5.05554 39.471 5.02747 39.4732 5.00049 39.4764C4.13265 39.5531 3.36952 40.9246 2.91077 43.239C2.42828 45.6732 2.32574 48.8667 2.62365 52.2254C3.27777 59.5994 5.5445 64.5186 7.20786 64.3577C8.07678 64.2789 8.83992 62.9073 9.29975 60.594C9.78224 58.1619 9.88694 54.9706 9.58686 51.6087C8.94354 44.3481 6.73833 39.471 5.08145 39.471ZM7.13015 64.8059C4.9789 64.8059 2.80499 59.297 2.18109 52.2643C1.87994 48.8613 1.98356 45.6279 2.47577 43.1537C2.98417 40.5942 3.86712 39.1297 4.96379 39.0325C7.14634 38.8446 9.39366 44.4064 10.0294 51.5666C10.3306 54.9706 10.227 58.2073 9.73366 60.6804C9.22527 63.241 8.34447 64.7044 7.2478 64.7994C7.20786 64.8016 7.169 64.8059 7.13015 64.8059Z" fill="#4D82CB" fill-opacity="0.6"/>
<path d="M5.08145 39.471C5.05554 39.471 5.02747 39.4732 5.00049 39.4764C4.13265 39.5531 3.36952 40.9246 2.91077 43.239C2.42828 45.6732 2.32574 48.8667 2.62365 52.2254C3.27777 59.5994 5.5445 64.5186 7.20786 64.3577C8.07678 64.2789 8.83992 62.9073 9.29975 60.594C9.78224 58.1619 9.88694 54.9706 9.58686 51.6087C8.94354 44.3481 6.73833 39.471 5.08145 39.471ZM7.13015 64.8059C4.9789 64.8059 2.80499 59.297 2.18109 52.2643C1.87994 48.8613 1.98356 45.6279 2.47577 43.1537C2.98417 40.5942 3.86712 39.1297 4.96379 39.0325C7.14634 38.8446 9.39366 44.4064 10.0294 51.5666C10.3306 54.9706 10.227 58.2073 9.73366 60.6804C9.22527 63.241 8.34447 64.7044 7.2478 64.7994C7.20786 64.8016 7.169 64.8059 7.13015 64.8059Z" fill="#4D82CB" fill-opacity="0.6"/>
<path d="M7.65604 51.7613C8.01765 55.8962 7.49713 59.3196 6.4942 59.4109C5.49046 59.5006 4.38455 56.2227 4.02376 52.0886C3.66215 47.9562 4.18105 44.5311 5.18479 44.4406C6.18691 44.3493 7.29444 47.6271 7.65604 51.7613Z" fill="#4D82CB" fill-opacity="0.6"/>
<path d="M5.00901 44.3111C4.14772 44.3864 3.49938 47.6324 3.90362 52.1732C4.29574 56.6213 5.49289 59.721 6.31955 59.721L6.34638 59.7201C6.66753 59.6915 7.10034 59.0775 7.35396 57.4397C7.58595 55.9328 7.61018 53.9521 7.42581 51.858C7.02676 47.3449 5.85212 44.3111 5.00901 44.3111ZM6.31955 60.0778C4.97265 60.0778 3.88544 56.0203 3.54698 52.2044C3.20074 48.2976 3.57469 44.0807 4.94928 43.9586C6.31695 43.833 7.4362 47.9555 7.78071 51.8276C7.96855 53.9469 7.94171 55.9596 7.70453 57.496C7.52968 58.6332 7.15574 60.005 6.37841 60.0743C6.35764 60.0769 6.33859 60.0778 6.31955 60.0778Z" fill="#4D82CB" fill-opacity="0.6"/>
<path d="M9.27786 53.0948C9.27786 53.0948 9.35882 53.8346 9.36421 54.9588C9.37933 56.0798 9.31672 57.5777 9.13323 59.0648C9.03608 59.81 8.90979 60.5498 8.73169 61.2334C8.55251 61.9149 8.33447 62.5466 8.0182 63.0369C7.86709 63.2832 7.67603 63.4873 7.46339 63.6115C7.2583 63.7529 7.02516 63.7627 6.85569 63.7627C6.68407 63.7346 6.55778 63.6892 6.48114 63.6417C6.40127 63.6018 6.36133 63.5769 6.36133 63.5769C6.36133 63.5769 6.4099 63.5888 6.4941 63.6061C6.57721 63.6352 6.7035 63.6396 6.85785 63.6417C7.01005 63.6223 7.19246 63.5845 7.35653 63.4495C7.52708 63.3296 7.69115 63.1439 7.83363 62.916C8.13262 62.4635 8.35174 61.849 8.532 61.1805C8.71334 60.5109 8.84394 59.7765 8.94757 59.0389C9.16452 57.568 9.24764 56.0755 9.28758 54.9566C9.32752 53.8367 9.27786 53.0948 9.27786 53.0948Z" fill="#4D82CB" fill-opacity="0.6"/>
<path d="M76.9383 38.8253L81.7859 39.254L79.5418 64.5814L74.6942 64.1483C72.6509 63.9679 71.4938 58.1523 72.1134 51.1596C72.7297 44.1657 74.8928 38.6439 76.9383 38.8253Z" fill="#4D82CB" fill-opacity="0.6"/>
<path d="M76.8408 39.0434C75.1817 39.0434 72.9765 43.9184 72.3321 51.1768C71.6737 58.621 73.0294 63.78 74.7111 63.929L79.3385 64.3394L81.5459 39.456L76.9163 39.0456C76.8893 39.0434 76.8656 39.0434 76.8408 39.0434ZM79.7411 64.8211L74.6723 64.3696C72.4724 64.1742 71.2505 58.3607 71.8896 51.1379C72.5264 43.9778 74.7629 38.4138 76.9552 38.6028L82.0251 39.0542L79.7411 64.8211Z" fill="#4D82CB" fill-opacity="0.6"/>
<path d="M76.8408 39.0434C75.1817 39.0434 72.9765 43.9184 72.3321 51.1768C71.6737 58.621 73.0294 63.78 74.7111 63.929L79.3385 64.3394L81.5459 39.456L76.9163 39.0456C76.8893 39.0434 76.8656 39.0434 76.8408 39.0434ZM79.7411 64.8211L74.6723 64.3696C72.4724 64.1742 71.2505 58.3607 71.8896 51.1379C72.5264 43.9778 74.7629 38.4138 76.9552 38.6028L82.0251 39.0542L79.7411 64.8211Z" fill="#4D82CB" fill-opacity="0.6"/>
<path d="M81.6873 39.4711C80.0304 39.4711 77.822 44.3482 77.1787 51.6088C76.8807 54.9707 76.9844 58.162 77.4669 60.5941C77.9234 62.9073 78.6909 64.2789 79.5609 64.3577C79.5857 64.361 79.6116 64.361 79.6375 64.361C81.2955 64.361 83.4996 59.4839 84.1462 52.2254C84.8025 44.7845 83.4446 39.6244 81.764 39.4765C81.7391 39.4732 81.7132 39.4711 81.6873 39.4711ZM79.6375 64.8059C79.5987 64.8059 79.5609 64.8016 79.5188 64.7994C78.4232 64.7044 77.5403 63.2411 77.0329 60.6805C76.5386 58.2073 76.435 54.9707 76.7383 51.5666C77.3622 44.5361 79.535 39.0294 81.6873 39.0294C81.7262 39.0294 81.764 39.0315 81.8028 39.0326C84.0048 39.2291 85.2267 45.0415 84.5866 52.2643C83.9627 59.297 81.7866 64.8059 79.6375 64.8059Z" fill="#4D82CB" fill-opacity="0.6"/>
<path d="M81.6873 39.4711C80.0304 39.4711 77.822 44.3482 77.1787 51.6088C76.8807 54.9707 76.9844 58.162 77.4669 60.5941C77.9234 62.9073 78.6909 64.2789 79.5609 64.3577C79.5857 64.361 79.6116 64.361 79.6375 64.361C81.2955 64.361 83.4996 59.4839 84.1462 52.2254C84.8025 44.7845 83.4446 39.6244 81.764 39.4765C81.7391 39.4732 81.7132 39.4711 81.6873 39.4711ZM79.6375 64.8059C79.5987 64.8059 79.5609 64.8016 79.5188 64.7994C78.4232 64.7044 77.5403 63.2411 77.0329 60.6805C76.5386 58.2073 76.435 54.9707 76.7383 51.5666C77.3622 44.5361 79.535 39.0294 81.6873 39.0294C81.7262 39.0294 81.764 39.0315 81.8028 39.0326C84.0048 39.2291 85.2267 45.0415 84.5866 52.2643C83.9627 59.297 81.7866 64.8059 79.6375 64.8059Z" fill="#4D82CB" fill-opacity="0.6"/>
<path d="M81.2603 44.7825C80.5102 44.7825 79.4967 47.6886 79.1534 52.0153C78.9944 54.023 79.016 55.9219 79.2161 57.3666C79.4332 58.9367 79.8064 59.5254 80.0841 59.5528L80.1072 59.5537C80.82 59.5537 81.8522 56.582 82.1918 52.3175C82.5388 47.9643 81.9791 44.8523 81.2603 44.7825ZM80.1072 59.8957C80.0885 59.8957 80.0736 59.8949 80.055 59.8924C79.3862 59.826 79.0646 58.5108 78.9115 57.4206C78.71 55.9476 78.6839 54.018 78.8459 51.9863C79.1407 48.3288 80.0759 44.4388 81.2387 44.4388C81.2551 44.4388 81.2715 44.4404 81.2879 44.4421C82.4732 44.5592 82.7978 48.6019 82.497 52.3474C82.2045 56.0058 81.2685 59.8957 80.1072 59.8957Z" fill="#4D82CB" fill-opacity="0.6"/>
<path d="M78.8414 52.0082C78.5236 56.0097 78.9797 59.3227 79.8579 59.4111C80.7355 59.4978 81.7031 56.3257 82.0187 52.325C82.3358 48.3258 81.8811 45.0112 81.0022 44.9237C80.1254 44.8353 79.1564 48.0074 78.8414 52.0082Z" fill="#4D82CB" fill-opacity="0.6"/>
<path d="M77.4908 53.0948C77.4908 53.0948 77.439 53.8367 77.4811 54.9567C77.5178 56.0755 77.602 57.568 77.8211 59.0389C77.9237 59.7765 78.0532 60.5109 78.2367 61.1805C78.4159 61.849 78.6361 62.4635 78.934 62.916C79.0754 63.1439 79.2406 63.3296 79.4089 63.4495C79.5762 63.5845 79.7587 63.6223 79.9119 63.6417C80.0641 63.6396 80.1915 63.6353 80.2725 63.6061C80.3577 63.5888 80.4041 63.5769 80.4041 63.5769C80.4041 63.5769 80.3631 63.6018 80.2876 63.6417C80.2099 63.6892 80.0836 63.7346 79.913 63.7627C79.7446 63.7627 79.5104 63.753 79.3042 63.6115C79.0905 63.4873 78.9027 63.2832 78.7483 63.037C78.4321 62.5466 78.213 61.9149 78.0349 61.2334C77.8567 60.5498 77.7305 59.81 77.6344 59.0648C77.4498 57.5777 77.3861 56.0798 77.4023 54.9588C77.4088 53.8346 77.4908 53.0948 77.4908 53.0948Z" fill="#4D82CB" fill-opacity="0.6"/>
<path d="M16.4609 36.7103C16.4609 36.7103 16.575 36.4004 16.7773 35.8612C16.8765 35.5885 17.0136 35.2667 17.1901 34.9016C17.3612 34.5304 17.5418 34.1089 17.7944 33.6729C18.0361 33.2333 18.2941 32.7541 18.6051 32.2641C18.9011 31.7657 19.2378 31.2528 19.6072 30.7352C19.9589 30.208 20.3771 29.6891 20.7831 29.1535C21.2177 28.6382 21.6345 28.0965 22.1017 27.5933C22.5579 27.0769 23.0373 26.5785 23.5166 26.0944C23.9905 25.6068 24.497 25.1564 24.9777 24.7157C25.9595 23.8473 26.9439 23.1015 27.8143 22.495C28.2475 22.1911 28.6739 21.9425 29.0419 21.7131C29.4262 21.5041 29.7616 21.3228 30.0372 21.175C30.6143 20.918 30.9443 20.7703 30.9443 20.7703C30.9443 20.7703 30.6334 20.9456 30.0929 21.2555C29.8376 21.4225 29.524 21.6278 29.1641 21.862C28.8233 22.1142 28.4281 22.3905 28.0153 22.7087C27.608 23.0342 27.1571 23.3777 26.7158 23.7717C26.2582 24.1548 25.8114 24.5848 25.3348 25.0195C24.8664 25.4603 24.3911 25.9275 23.9253 26.4079C23.4555 26.8907 22.987 27.3855 22.5389 27.8972C22.0732 28.3932 21.6549 28.9253 21.2177 29.4309C20.8171 29.9593 20.3812 30.4554 20.0186 30.9682C19.6452 31.475 19.2745 31.9651 18.9608 32.4431C18.6227 32.9115 18.3403 33.3739 18.0755 33.8002C17.8025 34.2242 17.5839 34.6217 17.3789 34.9736C17.1711 35.3183 17.0041 35.6318 16.8805 35.8948C16.6117 36.4149 16.4609 36.7103 16.4609 36.7103Z" fill="#4D82CB" fill-opacity="0.6"/>
<path d="M13.5645 38.1595C13.5645 38.1595 13.6782 37.7727 13.8811 37.0976C13.9318 36.9282 13.9907 36.7405 14.0538 36.5392C14.1305 36.3366 14.2127 36.1215 14.3032 35.888C14.4869 35.428 14.665 34.8948 14.9501 34.3421C15.216 33.7883 15.4901 33.1772 15.8478 32.5604C16.0192 32.2481 16.196 31.9277 16.3783 31.597C16.5797 31.28 16.7853 30.9539 16.9978 30.6209C17.4035 29.9526 17.9119 29.3026 18.3848 28.6218C18.6438 28.2922 18.9029 27.9581 19.166 27.6251C19.4237 27.2887 19.6937 26.9603 19.9802 26.6376C20.2666 26.3172 20.5544 25.9991 20.8395 25.6775C21.1438 25.3697 21.444 25.0619 21.7427 24.7575C22.036 24.4463 22.354 24.1602 22.6624 23.8718C22.9763 23.5892 23.2682 23.2951 23.5889 23.0296C24.2166 22.4907 24.8334 21.9815 25.468 21.5363C26.071 21.0695 26.7029 20.6827 27.2662 20.3108C27.8418 19.9526 28.3997 19.6586 28.8917 19.3942C29.4057 19.1608 29.8415 18.9434 30.2171 18.7878C30.9846 18.5143 31.4273 18.3552 31.4273 18.3552C31.4273 18.3552 31.0051 18.5429 30.2678 18.8701C29.9128 19.0464 29.492 19.2821 29.0068 19.5418C28.5408 19.8302 28.0159 20.1518 27.4608 20.5202C26.9194 20.9093 26.3177 21.3098 25.7421 21.7904C25.1432 22.2481 24.562 22.779 23.9439 23.3111C23.6328 23.5755 23.3477 23.8696 23.042 24.1522C22.7419 24.4371 22.4335 24.7278 22.1484 25.0367C21.8579 25.34 21.5646 25.6466 21.2713 25.9567C20.9944 26.2737 20.7148 26.5953 20.4366 26.9134C20.146 27.2292 19.8801 27.5519 19.617 27.8803C19.3524 28.2076 19.0893 28.5325 18.8302 28.8564C18.3505 29.5235 17.8366 30.162 17.4227 30.8188C17.2075 31.1438 16.9937 31.4619 16.7853 31.7732C16.5921 32.0913 16.4029 32.4037 16.2179 32.7069C15.8314 33.3077 15.5326 33.9004 15.242 34.4451C14.9391 34.9841 14.7212 35.4956 14.5006 35.943C14.395 36.1695 14.295 36.3789 14.2032 36.5746C14.125 36.7737 14.0496 36.9568 13.9852 37.1204C13.7138 37.7807 13.5645 38.1595 13.5645 38.1595Z" fill="#4D82CB" fill-opacity="0.6"/>
<path d="M64.8973 88.8729C64.8973 88.8729 64.5151 88.9431 63.8448 89.0684C63.1702 89.185 62.2225 89.3708 61.0708 89.5587C60.4911 89.657 59.8716 89.7606 59.2121 89.8697C58.5569 89.9971 57.8498 90.0447 57.1223 90.1224C55.6695 90.2682 54.1194 90.4237 52.5683 90.5782C51.014 90.6397 49.4564 90.7013 47.9981 90.7574C47.2717 90.7812 46.5658 90.8233 45.8966 90.8028C45.2273 90.792 44.5948 90.7812 44.0152 90.7704C42.8462 90.7553 41.8736 90.7142 41.1936 90.698C40.5114 90.6743 40.125 90.6581 40.125 90.6581C40.125 90.6581 40.5125 90.6408 41.1936 90.6127C41.8747 90.5944 42.8462 90.5458 44.0119 90.5252C44.5894 90.5101 45.223 90.4939 45.889 90.4788C46.555 90.4734 47.2598 90.3989 47.9863 90.3708C49.4391 90.2985 50.9881 90.2164 52.5381 90.1354C54.0817 90.0004 55.6284 89.8686 57.077 89.7433C57.8002 89.6645 58.5061 89.6526 59.1646 89.5522C59.8295 89.4669 60.4534 89.3859 61.033 89.3135C62.1901 89.1634 63.1562 89.0673 63.8308 88.9831C64.5076 88.9118 64.8973 88.8729 64.8973 88.8729Z" fill="#4D82CB" fill-opacity="0.6"/>
<path d="M65.0662 88.3805C65.0662 88.3805 64.6744 88.4431 63.9814 88.55C63.2895 88.6515 62.3008 88.8092 61.1124 88.9658C60.5166 89.0468 59.8722 89.1354 59.1889 89.2261C58.5132 89.3308 57.7867 89.3881 57.0387 89.4485C55.5384 89.5684 53.9408 89.7002 52.3433 89.8276C51.5424 89.874 50.7404 89.8794 49.9514 89.9108C49.1666 89.9323 48.3873 89.9529 47.6371 89.9766C46.887 89.9972 46.1627 90.022 45.4719 90.0123C44.7843 90.0004 44.1366 89.9896 43.5354 89.9766C42.3319 89.9572 41.3334 89.9151 40.6318 89.9C39.9335 89.8697 39.5352 89.8546 39.5352 89.8546C39.5352 89.8546 39.9335 89.8395 40.6318 89.8136C41.3345 89.7941 42.3319 89.7488 43.5311 89.7293C44.1302 89.7153 44.781 89.7023 45.4686 89.6894C46.154 89.6721 46.8794 89.6138 47.6296 89.5933C48.3776 89.5587 49.1472 89.5285 49.9363 89.4961C50.7199 89.4593 51.5176 89.4377 52.3174 89.3848C53.9106 89.2757 55.5049 89.1688 56.9999 89.0673C57.7457 89.0079 58.47 88.9863 59.1554 88.9053C59.8376 88.8405 60.4842 88.779 61.0833 88.7185C62.2749 88.6008 63.2755 88.5284 63.9728 88.4647C64.6722 88.4129 65.0662 88.3805 65.0662 88.3805Z" fill="#4D82CB" fill-opacity="0.6"/>
<path d="M65.075 88.0641C65.075 88.0641 64.6735 88.1094 63.9589 88.1893C63.2487 88.2595 62.234 88.3772 61.0122 88.4852C60.4045 88.5425 59.7439 88.603 59.0444 88.6688C58.3482 88.739 57.6045 88.7833 56.8435 88.8287C55.3118 88.9161 53.6776 89.0101 52.0466 89.1105C50.4124 89.1483 48.7804 89.1872 47.2476 89.2261C46.4802 89.2434 45.7386 89.2639 45.0392 89.2488C44.3354 89.2401 43.6716 89.2315 43.0585 89.2261C41.8344 89.2153 40.8101 89.1764 40.0988 89.1635C39.3831 89.1397 38.9751 89.1267 38.9751 89.1267C38.9751 89.1267 39.3831 89.1105 40.0988 89.076C40.8101 89.0565 41.8323 89.0025 43.0574 88.9755C43.6673 88.9615 44.3311 88.9432 45.0295 88.9259C45.7332 88.9118 46.4715 88.8578 47.2379 88.8405C48.7674 88.7855 50.3984 88.725 52.0272 88.6656C53.6571 88.5911 55.2881 88.5144 56.8176 88.4431C57.5797 88.3999 58.3201 88.3924 59.0196 88.3459C59.7212 88.3081 60.3829 88.2736 60.996 88.2369C62.2189 88.171 63.239 88.1396 63.9535 88.1029C64.6681 88.0781 65.075 88.0641 65.075 88.0641Z" fill="#4D82CB" fill-opacity="0.6"/>
<path fill-rule="evenodd" clip-rule="evenodd" d="M41.5653 0H43.255L43.4964 23.6685C43.4964 23.6685 43.4964 23.6685 43.7378 23.91C43.9792 23.6685 43.9792 23.6685 43.9792 23.6685L44.2206 0H45.9103C45.9067 0.174309 47.6291 0.437494 47.8415 0.483031C47.8415 0.483031 48.9877 21.3612 48.9877 23.2654C48.9877 25.1696 51.7037 26.3252 51.7037 26.3252C51.7037 26.3252 47.8415 28.0158 43.7378 28.0158C39.6342 28.0158 35.772 26.3252 35.772 26.3252C35.772 26.3252 38.4876 25.1696 38.4876 23.2654C38.4876 21.3612 39.6342 0.483031 39.6342 0.483031C39.8467 0.437452 41.5689 0.174591 41.5653 0ZM40.5145 6.27182C40.3996 12.6277 40.2376 21.8086 40.2376 23.0249C40.2376 24.9091 39.0709 25.5371 39.0709 25.5371C39.0709 25.5371 41.9005 26.1976 43.7372 26.1976C45.5739 26.1976 48.4044 25.5371 48.4044 25.5371C48.4044 25.5371 47.2377 24.9091 47.2377 23.0249C47.2377 21.8075 47.0754 12.6114 46.9605 6.25498C46.8333 12.5917 46.6544 21.7237 46.6544 22.9638C46.6544 24.8881 47.0851 24.99 47.0851 24.99C47.0851 24.99 45.2678 25.4731 43.7372 25.4731C42.2067 25.4731 40.3893 24.99 40.3893 24.99C40.3893 24.99 40.8209 24.8881 40.8209 22.9638C40.8209 21.7248 40.642 12.6079 40.5145 6.27182Z" fill="#4D82CB" fill-opacity="0.6"/>
</svg>
