<svg width="432" height="239" viewBox="0 0 432 239" fill="none" xmlns="http://www.w3.org/2000/svg">
<path d="M318.001 28.0217C335.498 28.4021 352.539 33.7664 367.113 43.5048C382.243 53.6139 394.034 67.9823 400.998 84.7931C407.961 101.604 409.783 120.102 406.233 137.948C402.683 155.795 393.921 172.187 381.055 185.054C368.188 197.92 351.795 206.682 333.949 210.232C316.103 213.782 297.605 211.96 280.794 204.997C263.983 198.034 249.615 186.242 239.506 171.112C229.767 156.538 224.403 139.497 224.022 122H316.001H318.001V120V28.0217Z" stroke="white" stroke-opacity="0.25" stroke-width="4"/>
<path d="M369 119.5C369 149.047 345.047 173 315.5 173C285.953 173 262 149.047 262 119.5C262 89.9528 285.953 66 315.5 66C345.047 66 369 89.9528 369 119.5Z" stroke="white" stroke-opacity="0.25" stroke-width="4"/>
<path d="M334 120C334 129.941 325.941 138 316 138C306.059 138 298 129.941 298 120C298 110.059 306.059 102 316 102C325.941 102 334 110.059 334 120Z" stroke="white" stroke-opacity="0.25" stroke-width="8"/>
<mask id="path-4-inside-1" fill="white">
<path d="M200 131C200 128.111 200.569 125.25 201.674 122.581C202.78 119.912 204.401 117.487 206.443 115.444C208.486 113.401 210.912 111.78 213.581 110.675C216.25 109.569 219.111 109 222 109C224.889 109 227.75 109.569 230.419 110.675C233.088 111.78 235.513 113.401 237.556 115.444C239.599 117.487 241.22 119.912 242.325 122.581C243.431 125.25 244 128.111 244 131L200 131Z"/>
<path d="M241.556 209.605C239.513 207.562 237.893 205.137 236.787 202.468C235.681 199.799 235.112 196.938 235.112 194.049C235.112 191.16 235.682 188.299 236.787 185.63C237.893 182.961 239.513 180.535 241.556 178.492C243.599 176.45 246.024 174.829 248.693 173.723C251.363 172.618 254.223 172.049 257.112 172.049C260.002 172.049 262.862 172.618 265.531 173.723C268.201 174.829 270.626 176.45 272.669 178.492L241.556 209.605Z"/>
<path d="M267.485 225.918C264.983 224.473 262.79 222.55 261.031 220.258C259.272 217.966 257.982 215.35 257.235 212.559C256.487 209.769 256.296 206.858 256.673 203.994C257.05 201.129 257.988 198.367 259.432 195.865C260.877 193.363 262.8 191.17 265.092 189.412C267.384 187.653 270 186.363 272.791 185.615C275.582 184.867 278.492 184.676 281.357 185.053C284.221 185.431 286.983 186.368 289.485 187.813L267.485 225.918Z"/>
<path d="M296.497 234.789C293.706 234.041 291.09 232.751 288.798 230.992C286.506 229.233 284.583 227.04 283.138 224.538C281.694 222.036 280.756 219.274 280.379 216.41C280.002 213.546 280.193 210.635 280.94 207.844C281.688 205.054 282.978 202.438 284.737 200.146C286.496 197.854 288.689 195.93 291.191 194.486C293.693 193.041 296.455 192.104 299.319 191.727C302.184 191.349 305.094 191.54 307.885 192.288L296.497 234.789Z"/>
<path d="M356.543 229.094C353.752 229.842 350.841 230.033 347.977 229.656C345.113 229.279 342.351 228.341 339.849 226.897C337.347 225.452 335.154 223.529 333.395 221.237C331.636 218.945 330.346 216.329 329.598 213.538C328.85 210.747 328.66 207.837 329.037 204.972C329.414 202.108 330.351 199.346 331.796 196.844C333.241 194.342 335.164 192.149 337.456 190.39C339.748 188.632 342.364 187.341 345.155 186.594L356.543 229.094Z"/>
<path d="M383.485 214.917C380.983 216.362 378.221 217.3 375.357 217.677C372.493 218.054 369.582 217.863 366.791 217.115C364.001 216.368 361.385 215.077 359.093 213.319C356.801 211.56 354.877 209.367 353.433 206.865C351.988 204.363 351.051 201.601 350.674 198.736C350.297 195.872 350.487 192.962 351.235 190.171C351.983 187.38 353.273 184.764 355.032 182.472C356.79 180.18 358.983 178.257 361.485 176.812L383.485 214.917Z"/>
<path d="M327 236C324.111 236 321.25 235.431 318.581 234.325C315.912 233.22 313.486 231.599 311.443 229.556C309.401 227.513 307.78 225.088 306.674 222.419C305.569 219.75 305 216.889 305 214C305 211.111 305.569 208.25 306.674 205.581C307.78 202.912 309.401 200.487 311.443 198.444C313.486 196.401 315.912 194.78 318.581 193.675C321.25 192.569 324.111 192 327 192V236Z"/>
<path d="M405.605 194.049C403.562 196.092 401.137 197.712 398.467 198.818C395.798 199.923 392.937 200.492 390.048 200.492C387.159 200.492 384.298 199.923 381.629 198.818C378.96 197.712 376.535 196.092 374.492 194.049C372.449 192.006 370.829 189.581 369.723 186.911C368.617 184.242 368.048 181.381 368.048 178.492C368.048 175.603 368.617 172.743 369.723 170.073C370.829 167.404 372.449 164.979 374.492 162.936L405.605 194.049Z"/>
<path d="M421.917 168.433C420.473 170.935 418.549 173.128 416.257 174.886C413.965 176.645 411.349 177.935 408.559 178.683C405.768 179.431 402.857 179.622 399.993 179.244C397.129 178.867 394.367 177.93 391.865 176.485C389.363 175.041 387.17 173.117 385.411 170.825C383.652 168.533 382.362 165.917 381.614 163.127C380.867 160.336 380.676 157.425 381.053 154.561C381.43 151.697 382.368 148.935 383.812 146.433L421.917 168.433Z"/>
<path d="M430.788 139.292C430.041 142.083 428.751 144.699 426.992 146.991C425.233 149.283 423.04 151.206 420.538 152.651C418.036 154.095 415.274 155.033 412.41 155.41C409.545 155.787 406.635 155.596 403.844 154.849C401.053 154.101 398.437 152.811 396.145 151.052C393.853 149.293 391.93 147.1 390.486 144.598C389.041 142.096 388.103 139.334 387.726 136.47C387.349 133.605 387.54 130.695 388.288 127.904L430.788 139.292Z"/>
<path d="M425.095 79.2462C425.842 82.0369 426.033 84.9474 425.656 87.8118C425.279 90.6762 424.341 93.4382 422.897 95.9402C421.452 98.4423 419.529 100.635 417.237 102.394C414.945 104.153 412.329 105.443 409.538 106.191C406.748 106.938 403.837 107.129 400.973 106.752C398.108 106.375 395.346 105.437 392.844 103.993C390.342 102.548 388.149 100.625 386.39 98.333C384.632 96.0409 383.342 93.4249 382.594 90.6343L425.095 79.2462Z"/>
<path d="M410.918 52.4327C412.362 54.9347 413.3 57.6967 413.677 60.5611C414.054 63.4255 413.863 66.3361 413.116 69.1267C412.368 71.9173 411.078 74.5334 409.319 76.8254C407.56 79.1175 405.367 81.0407 402.865 82.4852C400.363 83.9298 397.601 84.8674 394.737 85.2445C391.872 85.6216 388.962 85.4308 386.171 84.683C383.381 83.9353 380.764 82.6452 378.472 80.8865C376.18 79.1277 374.257 76.9347 372.813 74.4327L410.918 52.4327Z"/>
<path d="M432 109C432 111.889 431.431 114.75 430.325 117.419C429.219 120.088 427.599 122.513 425.556 124.556C423.513 126.599 421.088 128.22 418.419 129.325C415.75 130.431 412.889 131 410 131C407.111 131 404.25 130.431 401.581 129.325C398.912 128.22 396.486 126.599 394.443 124.556C392.401 122.513 390.78 120.088 389.674 117.419C388.569 114.75 388 111.889 388 109L432 109Z"/>
<path d="M390.048 30C392.091 32.0429 393.712 34.4682 394.817 37.1374C395.923 39.8065 396.492 42.6673 396.492 45.5564C396.492 48.4455 395.923 51.3063 394.817 53.9754C393.712 56.6446 392.091 59.0699 390.048 61.1127C388.005 63.1556 385.58 64.7761 382.911 65.8817C380.242 66.9874 377.381 67.5564 374.492 67.5564C371.603 67.5564 368.742 66.9873 366.073 65.8817C363.404 64.7761 360.979 63.1556 358.936 61.1127L390.048 30Z"/>
<path d="M364.432 14C366.934 15.4445 369.127 17.3677 370.886 19.6598C372.645 21.9519 373.935 24.5679 374.682 27.3585C375.43 30.1492 375.621 33.0598 375.244 35.9241C374.867 38.7885 373.929 41.5505 372.485 44.0526C371.04 46.5546 369.117 48.7476 366.825 50.5063C364.533 52.2651 361.917 53.5552 359.126 54.3029C356.335 55.0507 353.425 55.2414 350.56 54.8643C347.696 54.4872 344.934 53.5497 342.432 52.1051L364.432 14Z"/>
<path d="M335.292 4.99995C338.083 5.7477 340.699 7.03779 342.991 8.79655C345.283 10.5553 347.206 12.7483 348.65 15.2503C350.095 17.7523 351.033 20.5144 351.41 23.3787C351.787 26.2431 351.596 29.1537 350.848 31.9443C350.1 34.735 348.81 37.351 347.052 39.6431C345.293 41.9351 343.1 43.8583 340.598 45.3029C338.096 46.7474 335.334 47.685 332.469 48.0621C329.605 48.4392 326.694 48.2484 323.904 47.5007L335.292 4.99995Z"/>
<path d="M275.246 10.694C278.037 9.94627 280.947 9.7555 283.812 10.1326C286.676 10.5097 289.438 11.4473 291.94 12.8918C294.442 14.3364 296.635 16.2596 298.394 18.5516C300.153 20.8437 301.443 23.4597 302.19 26.2504C302.938 29.041 303.129 31.9516 302.752 34.816C302.375 37.6803 301.437 40.4424 299.993 42.9444C298.548 45.4464 296.625 47.6394 294.333 49.3982C292.041 51.1569 289.425 52.447 286.634 53.1948L275.246 10.694Z"/>
<path d="M248.433 25C250.935 23.5555 253.697 22.6179 256.561 22.2408C259.425 21.8637 262.336 22.0544 265.127 22.8022C267.917 23.5499 270.533 24.84 272.825 26.5988C275.117 28.3575 277.041 30.5505 278.485 33.0526C279.93 35.5546 280.867 38.3166 281.244 41.181C281.621 44.0454 281.431 46.9559 280.683 49.7466C279.935 52.5372 278.645 55.1533 276.886 57.4453C275.128 59.7374 272.935 61.6606 270.433 63.1051L248.433 25Z"/>
<path d="M305 4C307.889 4 310.75 4.56905 313.419 5.67465C316.088 6.78026 318.513 8.40076 320.556 10.4437C322.599 12.4865 324.22 14.9118 325.325 17.581C326.431 20.2501 327 23.1109 327 26C327 28.8891 326.431 31.7499 325.325 34.419C324.219 37.0882 322.599 39.5135 320.556 41.5564C318.513 43.5992 316.088 45.2197 313.419 46.3254C310.75 47.431 307.889 48 305 48L305 4Z"/>
<path d="M226 45.5563C228.043 43.5135 230.468 41.893 233.137 40.7873C235.806 39.6817 238.667 39.1127 241.556 39.1127C244.445 39.1127 247.306 39.6817 249.975 40.7873C252.644 41.893 255.07 43.5135 257.113 45.5564C259.155 47.5992 260.776 50.0245 261.882 52.6937C262.987 55.3628 263.556 58.2236 263.556 61.1127C263.556 64.0018 262.987 66.8626 261.882 69.5317C260.776 72.2009 259.155 74.6262 257.112 76.6691L226 45.5563Z"/>
<path d="M210 71.4852C211.444 68.9832 213.368 66.7902 215.66 65.0314C217.952 63.2726 220.568 61.9826 223.358 61.2348C226.149 60.4871 229.06 60.2963 231.924 60.6734C234.788 61.0505 237.55 61.9881 240.052 63.4326C242.554 64.8772 244.747 66.8004 246.506 69.0924C248.265 71.3845 249.555 74.0005 250.303 76.7912C251.05 79.5818 251.241 82.4924 250.864 85.3568C250.487 88.2211 249.549 90.9832 248.105 93.4852L210 71.4852Z"/>
<path d="M201 100.496C201.748 97.7058 203.038 95.0898 204.797 92.7977C206.555 90.5057 208.748 88.5825 211.25 87.1379C213.752 85.6934 216.515 84.7558 219.379 84.3787C222.243 84.0016 225.154 84.1924 227.944 84.9401C230.735 85.6879 233.351 86.9779 235.643 88.7367C237.935 90.4955 239.858 92.6885 241.303 95.1905C242.748 97.6925 243.685 100.455 244.062 103.319C244.439 106.183 244.249 109.094 243.501 111.885L201 100.496Z"/>
<path d="M206.694 160.542C205.946 157.752 205.755 154.841 206.133 151.977C206.51 149.112 207.447 146.35 208.892 143.848C210.336 141.346 212.26 139.153 214.552 137.394C216.844 135.636 219.46 134.346 222.25 133.598C225.041 132.85 227.952 132.659 230.816 133.036C233.68 133.414 236.442 134.351 238.944 135.796C241.446 137.24 243.639 139.163 245.398 141.455C247.157 143.748 248.447 146.364 249.195 149.154L206.694 160.542Z"/>
<path d="M221 187.485C219.555 184.983 218.618 182.221 218.241 179.356C217.864 176.492 218.054 173.581 218.802 170.791C219.55 168 220.84 165.384 222.599 163.092C224.358 160.8 226.551 158.877 229.053 157.432C231.555 155.988 234.317 155.05 237.181 154.673C240.045 154.296 242.956 154.487 245.747 155.234C248.537 155.982 251.153 157.272 253.445 159.031C255.737 160.79 257.661 162.983 259.105 165.485L221 187.485Z"/>
</mask>
<path d="M200 131C200 128.111 200.569 125.25 201.674 122.581C202.78 119.912 204.401 117.487 206.443 115.444C208.486 113.401 210.912 111.78 213.581 110.675C216.25 109.569 219.111 109 222 109C224.889 109 227.75 109.569 230.419 110.675C233.088 111.78 235.513 113.401 237.556 115.444C239.599 117.487 241.22 119.912 242.325 122.581C243.431 125.25 244 128.111 244 131L200 131Z" stroke="white" stroke-opacity="0.25" stroke-width="16" mask="url(#path-4-inside-1)"/>
<path d="M241.556 209.605C239.513 207.562 237.893 205.137 236.787 202.468C235.681 199.799 235.112 196.938 235.112 194.049C235.112 191.16 235.682 188.299 236.787 185.63C237.893 182.961 239.513 180.535 241.556 178.492C243.599 176.45 246.024 174.829 248.693 173.723C251.363 172.618 254.223 172.049 257.112 172.049C260.002 172.049 262.862 172.618 265.531 173.723C268.201 174.829 270.626 176.45 272.669 178.492L241.556 209.605Z" stroke="white" stroke-opacity="0.25" stroke-width="16" mask="url(#path-4-inside-1)"/>
<path d="M267.485 225.918C264.983 224.473 262.79 222.55 261.031 220.258C259.272 217.966 257.982 215.35 257.235 212.559C256.487 209.769 256.296 206.858 256.673 203.994C257.05 201.129 257.988 198.367 259.432 195.865C260.877 193.363 262.8 191.17 265.092 189.412C267.384 187.653 270 186.363 272.791 185.615C275.582 184.867 278.492 184.676 281.357 185.053C284.221 185.431 286.983 186.368 289.485 187.813L267.485 225.918Z" stroke="white" stroke-opacity="0.25" stroke-width="16" mask="url(#path-4-inside-1)"/>
<path d="M296.497 234.789C293.706 234.041 291.09 232.751 288.798 230.992C286.506 229.233 284.583 227.04 283.138 224.538C281.694 222.036 280.756 219.274 280.379 216.41C280.002 213.546 280.193 210.635 280.94 207.844C281.688 205.054 282.978 202.438 284.737 200.146C286.496 197.854 288.689 195.93 291.191 194.486C293.693 193.041 296.455 192.104 299.319 191.727C302.184 191.349 305.094 191.54 307.885 192.288L296.497 234.789Z" stroke="white" stroke-opacity="0.25" stroke-width="16" mask="url(#path-4-inside-1)"/>
<path d="M356.543 229.094C353.752 229.842 350.841 230.033 347.977 229.656C345.113 229.279 342.351 228.341 339.849 226.897C337.347 225.452 335.154 223.529 333.395 221.237C331.636 218.945 330.346 216.329 329.598 213.538C328.85 210.747 328.66 207.837 329.037 204.972C329.414 202.108 330.351 199.346 331.796 196.844C333.241 194.342 335.164 192.149 337.456 190.39C339.748 188.632 342.364 187.341 345.155 186.594L356.543 229.094Z" stroke="white" stroke-opacity="0.25" stroke-width="16" mask="url(#path-4-inside-1)"/>
<path d="M383.485 214.917C380.983 216.362 378.221 217.3 375.357 217.677C372.493 218.054 369.582 217.863 366.791 217.115C364.001 216.368 361.385 215.077 359.093 213.319C356.801 211.56 354.877 209.367 353.433 206.865C351.988 204.363 351.051 201.601 350.674 198.736C350.297 195.872 350.487 192.962 351.235 190.171C351.983 187.38 353.273 184.764 355.032 182.472C356.79 180.18 358.983 178.257 361.485 176.812L383.485 214.917Z" stroke="white" stroke-opacity="0.25" stroke-width="16" mask="url(#path-4-inside-1)"/>
<path d="M327 236C324.111 236 321.25 235.431 318.581 234.325C315.912 233.22 313.486 231.599 311.443 229.556C309.401 227.513 307.78 225.088 306.674 222.419C305.569 219.75 305 216.889 305 214C305 211.111 305.569 208.25 306.674 205.581C307.78 202.912 309.401 200.487 311.443 198.444C313.486 196.401 315.912 194.78 318.581 193.675C321.25 192.569 324.111 192 327 192V236Z" stroke="white" stroke-opacity="0.25" stroke-width="16" mask="url(#path-4-inside-1)"/>
<path d="M405.605 194.049C403.562 196.092 401.137 197.712 398.467 198.818C395.798 199.923 392.937 200.492 390.048 200.492C387.159 200.492 384.298 199.923 381.629 198.818C378.96 197.712 376.535 196.092 374.492 194.049C372.449 192.006 370.829 189.581 369.723 186.911C368.617 184.242 368.048 181.381 368.048 178.492C368.048 175.603 368.617 172.743 369.723 170.073C370.829 167.404 372.449 164.979 374.492 162.936L405.605 194.049Z" stroke="white" stroke-opacity="0.25" stroke-width="16" mask="url(#path-4-inside-1)"/>
<path d="M421.917 168.433C420.473 170.935 418.549 173.128 416.257 174.886C413.965 176.645 411.349 177.935 408.559 178.683C405.768 179.431 402.857 179.622 399.993 179.244C397.129 178.867 394.367 177.93 391.865 176.485C389.363 175.041 387.17 173.117 385.411 170.825C383.652 168.533 382.362 165.917 381.614 163.127C380.867 160.336 380.676 157.425 381.053 154.561C381.43 151.697 382.368 148.935 383.812 146.433L421.917 168.433Z" stroke="white" stroke-opacity="0.25" stroke-width="16" mask="url(#path-4-inside-1)"/>
<path d="M430.788 139.292C430.041 142.083 428.751 144.699 426.992 146.991C425.233 149.283 423.04 151.206 420.538 152.651C418.036 154.095 415.274 155.033 412.41 155.41C409.545 155.787 406.635 155.596 403.844 154.849C401.053 154.101 398.437 152.811 396.145 151.052C393.853 149.293 391.93 147.1 390.486 144.598C389.041 142.096 388.103 139.334 387.726 136.47C387.349 133.605 387.54 130.695 388.288 127.904L430.788 139.292Z" stroke="white" stroke-opacity="0.25" stroke-width="16" mask="url(#path-4-inside-1)"/>
<path d="M425.095 79.2462C425.842 82.0369 426.033 84.9474 425.656 87.8118C425.279 90.6762 424.341 93.4382 422.897 95.9402C421.452 98.4423 419.529 100.635 417.237 102.394C414.945 104.153 412.329 105.443 409.538 106.191C406.748 106.938 403.837 107.129 400.973 106.752C398.108 106.375 395.346 105.437 392.844 103.993C390.342 102.548 388.149 100.625 386.39 98.333C384.632 96.0409 383.342 93.4249 382.594 90.6343L425.095 79.2462Z" stroke="white" stroke-opacity="0.25" stroke-width="16" mask="url(#path-4-inside-1)"/>
<path d="M410.918 52.4327C412.362 54.9347 413.3 57.6967 413.677 60.5611C414.054 63.4255 413.863 66.3361 413.116 69.1267C412.368 71.9173 411.078 74.5334 409.319 76.8254C407.56 79.1175 405.367 81.0407 402.865 82.4852C400.363 83.9298 397.601 84.8674 394.737 85.2445C391.872 85.6216 388.962 85.4308 386.171 84.683C383.381 83.9353 380.764 82.6452 378.472 80.8865C376.18 79.1277 374.257 76.9347 372.813 74.4327L410.918 52.4327Z" stroke="white" stroke-opacity="0.25" stroke-width="16" mask="url(#path-4-inside-1)"/>
<path d="M432 109C432 111.889 431.431 114.75 430.325 117.419C429.219 120.088 427.599 122.513 425.556 124.556C423.513 126.599 421.088 128.22 418.419 129.325C415.75 130.431 412.889 131 410 131C407.111 131 404.25 130.431 401.581 129.325C398.912 128.22 396.486 126.599 394.443 124.556C392.401 122.513 390.78 120.088 389.674 117.419C388.569 114.75 388 111.889 388 109L432 109Z" stroke="white" stroke-opacity="0.25" stroke-width="16" mask="url(#path-4-inside-1)"/>
<path d="M390.048 30C392.091 32.0429 393.712 34.4682 394.817 37.1374C395.923 39.8065 396.492 42.6673 396.492 45.5564C396.492 48.4455 395.923 51.3063 394.817 53.9754C393.712 56.6446 392.091 59.0699 390.048 61.1127C388.005 63.1556 385.58 64.7761 382.911 65.8817C380.242 66.9874 377.381 67.5564 374.492 67.5564C371.603 67.5564 368.742 66.9873 366.073 65.8817C363.404 64.7761 360.979 63.1556 358.936 61.1127L390.048 30Z" stroke="white" stroke-opacity="0.25" stroke-width="16" mask="url(#path-4-inside-1)"/>
<path d="M364.432 14C366.934 15.4445 369.127 17.3677 370.886 19.6598C372.645 21.9519 373.935 24.5679 374.682 27.3585C375.43 30.1492 375.621 33.0598 375.244 35.9241C374.867 38.7885 373.929 41.5505 372.485 44.0526C371.04 46.5546 369.117 48.7476 366.825 50.5063C364.533 52.2651 361.917 53.5552 359.126 54.3029C356.335 55.0507 353.425 55.2414 350.56 54.8643C347.696 54.4872 344.934 53.5497 342.432 52.1051L364.432 14Z" stroke="white" stroke-opacity="0.25" stroke-width="16" mask="url(#path-4-inside-1)"/>
<path d="M335.292 4.99995C338.083 5.7477 340.699 7.03779 342.991 8.79655C345.283 10.5553 347.206 12.7483 348.65 15.2503C350.095 17.7523 351.033 20.5144 351.41 23.3787C351.787 26.2431 351.596 29.1537 350.848 31.9443C350.1 34.735 348.81 37.351 347.052 39.6431C345.293 41.9351 343.1 43.8583 340.598 45.3029C338.096 46.7474 335.334 47.685 332.469 48.0621C329.605 48.4392 326.694 48.2484 323.904 47.5007L335.292 4.99995Z" stroke="white" stroke-opacity="0.25" stroke-width="16" mask="url(#path-4-inside-1)"/>
<path d="M275.246 10.694C278.037 9.94627 280.947 9.7555 283.812 10.1326C286.676 10.5097 289.438 11.4473 291.94 12.8918C294.442 14.3364 296.635 16.2596 298.394 18.5516C300.153 20.8437 301.443 23.4597 302.19 26.2504C302.938 29.041 303.129 31.9516 302.752 34.816C302.375 37.6803 301.437 40.4424 299.993 42.9444C298.548 45.4464 296.625 47.6394 294.333 49.3982C292.041 51.1569 289.425 52.447 286.634 53.1948L275.246 10.694Z" stroke="white" stroke-opacity="0.25" stroke-width="16" mask="url(#path-4-inside-1)"/>
<path d="M248.433 25C250.935 23.5555 253.697 22.6179 256.561 22.2408C259.425 21.8637 262.336 22.0544 265.127 22.8022C267.917 23.5499 270.533 24.84 272.825 26.5988C275.117 28.3575 277.041 30.5505 278.485 33.0526C279.93 35.5546 280.867 38.3166 281.244 41.181C281.621 44.0454 281.431 46.9559 280.683 49.7466C279.935 52.5372 278.645 55.1533 276.886 57.4453C275.128 59.7374 272.935 61.6606 270.433 63.1051L248.433 25Z" stroke="white" stroke-opacity="0.25" stroke-width="16" mask="url(#path-4-inside-1)"/>
<path d="M305 4C307.889 4 310.75 4.56905 313.419 5.67465C316.088 6.78026 318.513 8.40076 320.556 10.4437C322.599 12.4865 324.22 14.9118 325.325 17.581C326.431 20.2501 327 23.1109 327 26C327 28.8891 326.431 31.7499 325.325 34.419C324.219 37.0882 322.599 39.5135 320.556 41.5564C318.513 43.5992 316.088 45.2197 313.419 46.3254C310.75 47.431 307.889 48 305 48L305 4Z" stroke="white" stroke-opacity="0.25" stroke-width="16" mask="url(#path-4-inside-1)"/>
<path d="M226 45.5563C228.043 43.5135 230.468 41.893 233.137 40.7873C235.806 39.6817 238.667 39.1127 241.556 39.1127C244.445 39.1127 247.306 39.6817 249.975 40.7873C252.644 41.893 255.07 43.5135 257.113 45.5564C259.155 47.5992 260.776 50.0245 261.882 52.6937C262.987 55.3628 263.556 58.2236 263.556 61.1127C263.556 64.0018 262.987 66.8626 261.882 69.5317C260.776 72.2009 259.155 74.6262 257.112 76.6691L226 45.5563Z" stroke="white" stroke-opacity="0.25" stroke-width="16" mask="url(#path-4-inside-1)"/>
<path d="M210 71.4852C211.444 68.9832 213.368 66.7902 215.66 65.0314C217.952 63.2726 220.568 61.9826 223.358 61.2348C226.149 60.4871 229.06 60.2963 231.924 60.6734C234.788 61.0505 237.55 61.9881 240.052 63.4326C242.554 64.8772 244.747 66.8004 246.506 69.0924C248.265 71.3845 249.555 74.0005 250.303 76.7912C251.05 79.5818 251.241 82.4924 250.864 85.3568C250.487 88.2211 249.549 90.9832 248.105 93.4852L210 71.4852Z" stroke="white" stroke-opacity="0.25" stroke-width="16" mask="url(#path-4-inside-1)"/>
<path d="M201 100.496C201.748 97.7058 203.038 95.0898 204.797 92.7977C206.555 90.5057 208.748 88.5825 211.25 87.1379C213.752 85.6934 216.515 84.7558 219.379 84.3787C222.243 84.0016 225.154 84.1924 227.944 84.9401C230.735 85.6879 233.351 86.9779 235.643 88.7367C237.935 90.4955 239.858 92.6885 241.303 95.1905C242.748 97.6925 243.685 100.455 244.062 103.319C244.439 106.183 244.249 109.094 243.501 111.885L201 100.496Z" stroke="white" stroke-opacity="0.25" stroke-width="16" mask="url(#path-4-inside-1)"/>
<path d="M206.694 160.542C205.946 157.752 205.755 154.841 206.133 151.977C206.51 149.112 207.447 146.35 208.892 143.848C210.336 141.346 212.26 139.153 214.552 137.394C216.844 135.636 219.46 134.346 222.25 133.598C225.041 132.85 227.952 132.659 230.816 133.036C233.68 133.414 236.442 134.351 238.944 135.796C241.446 137.24 243.639 139.163 245.398 141.455C247.157 143.748 248.447 146.364 249.195 149.154L206.694 160.542Z" stroke="white" stroke-opacity="0.25" stroke-width="16" mask="url(#path-4-inside-1)"/>
<path d="M221 187.485C219.555 184.983 218.618 182.221 218.241 179.356C217.864 176.492 218.054 173.581 218.802 170.791C219.55 168 220.84 165.384 222.599 163.092C224.358 160.8 226.551 158.877 229.053 157.432C231.555 155.988 234.317 155.05 237.181 154.673C240.045 154.296 242.956 154.487 245.747 155.234C248.537 155.982 251.153 157.272 253.445 159.031C255.737 160.79 257.661 162.983 259.105 165.485L221 187.485Z" stroke="white" stroke-opacity="0.25" stroke-width="16" mask="url(#path-4-inside-1)"/>
<path d="M4 4.00002C27.5239 4.00001 30.5208 30 51.75 30C72.9793 30 78.2708 4.00001 99.5 4.00001C120.729 4.00001 126.021 30 147.25 30C168.479 30 172.178 4.00002 195 4M4 27C27.5239 27 30.5208 53 51.75 53C72.9793 53 78.2708 27 99.5 27C120.729 27 126.021 53 147.25 53C168.479 53 172.178 27 195 27M4 52C27.5239 52 30.5208 78 51.75 78C72.9793 78 78.2708 52 99.5 52C120.729 52 126.021 78 147.25 78C168.479 78 172.178 52 195 52" stroke="white" stroke-opacity="0.25" stroke-width="8" stroke-linecap="round"/>
<path d="M25 235C48.5239 235 51.5207 146 72.75 146C93.9793 146 99.2707 235 120.5 235C141.729 235 147.021 146 168.25 146C189.479 146 193.178 235 216 235" stroke="white" stroke-opacity="0.25" stroke-width="4" stroke-linecap="round" stroke-dasharray="16 16"/>
<path d="M4 146C27.5239 146 30.5207 235 51.75 235C72.9793 235 78.2707 146 99.5 146C120.729 146 126.021 235 147.25 235C168.479 235 172.178 146 195 146" stroke="white" stroke-opacity="0.25" stroke-width="8" stroke-linecap="round"/>
<path d="M4 103L195 103M4 115L195 115" stroke="white" stroke-opacity="0.25" stroke-width="6"/>
</svg>
