<svg width="475" height="244" viewBox="0 0 475 244" fill="none" xmlns="http://www.w3.org/2000/svg">
<path d="M4.94899 240.567L40.8596 171.738H427.766L469.662 240.567H4.94899Z" stroke="#C4D5EE" stroke-width="6"/>
<path d="M202.61 221.86L213.262 189.632H335.384L347.811 221.86H202.61Z" fill="#D7E3F4" stroke="#C4D5EE" stroke-width="6"/>
<path d="M310.103 147.744H290.521V129.75H307.674H325.373L329.016 147.744H310.103ZM284.521 129.75V147.744H268.259L270.081 129.75H284.521ZM304.355 123.75H290.521V105.756H302.533L304.355 123.75ZM284.521 105.756V123.75H267.369H250.885L254.528 105.756H269.798H284.521ZM305.245 99.756H290.521V81.762H315.657L319.3 99.756H305.245ZM284.521 81.762V99.756H273.117L274.939 81.762H284.521ZM308.564 105.756H320.515L324.158 123.75H310.386L308.564 105.756ZM313.422 153.744H330.231L333.875 171.738H315.244L313.422 153.744ZM307.391 153.744L309.213 171.738H290.521V153.744H307.391ZM284.521 153.744V171.738H241.168L244.812 153.744H264.94H284.521ZM262.228 147.744H246.026L249.67 129.75H264.05L262.228 147.744ZM267.086 99.756H255.743L259.386 81.762H268.908L267.086 99.756Z" stroke="#C4D5EE" stroke-width="6"/>
<path d="M122.03 35.3976L121.757 32.1472H121.744C121.817 32.9384 121.899 33.8583 121.987 34.8933C122.001 35.0584 122.015 35.2265 122.03 35.3976ZM122.03 35.3976C122.03 35.4065 122.031 35.4155 122.032 35.4244C122.031 35.4155 122.03 35.4065 122.03 35.3976ZM192.705 32.1472H192.718C192.645 32.9384 192.563 33.8583 192.475 34.8933C192.462 35.0483 192.449 35.206 192.435 35.3664L192.705 32.1472Z" fill="#D7E3F4" stroke="#C4D5EE" stroke-width="6"/>
<path d="M357.063 168.365H401.798L404.238 204.152H354.623L357.063 168.365Z" fill="#D7E3F4"/>
<path d="M361.463 101.669H397.398L399.358 136.644H359.503L361.463 101.669Z" fill="#D7E3F4"/>
<path d="M364.397 34.1609H394.464L396.104 69.9486H362.757L364.397 34.1609Z" fill="#D7E3F4"/>
<path d="M357.768 201.152L367.122 3H391.739L401.093 201.152H357.768Z" stroke="#C4D5EE" stroke-width="6"/>
</svg>
