<svg width="145" height="68" viewBox="0 0 145 68" fill="none" xmlns="http://www.w3.org/2000/svg">
<path d="M12.942 0.899999L7.578 10.872C7.062 11.832 6.438 12.558 5.706 13.05C4.986 13.542 4.2 13.788 3.348 13.788C2.688 13.788 2.004 13.644 1.296 13.356L1.998 11.142C2.502 11.298 2.922 11.376 3.258 11.376C3.618 11.376 3.942 11.292 4.23 11.124C4.518 10.944 4.782 10.668 5.022 10.296L5.13 10.152L0.162 0.899999H3.276L6.624 7.668L10.08 0.899999H12.942ZM26.2014 0.899999V13.5H25.2834V1.728H16.7514V13.5H15.8334V0.899999H26.2014ZM35.7976 0.899999C37.3816 0.899999 38.6236 1.278 39.5236 2.034C40.4236 2.778 40.8736 3.816 40.8736 5.148C40.8736 6.468 40.4236 7.506 39.5236 8.262C38.6236 9.006 37.3816 9.378 35.7976 9.378H32.1976V13.5H31.2796V0.899999H35.7976ZM35.7976 8.55C37.1416 8.55 38.1676 8.256 38.8756 7.668C39.5836 7.08 39.9376 6.24 39.9376 5.148C39.9376 4.056 39.5836 3.216 38.8756 2.628C38.1676 2.028 37.1416 1.728 35.7976 1.728H32.1976V8.55H35.7976ZM51.694 9.954H44.386L42.784 13.5H41.794L47.59 0.899999H48.508L54.304 13.5H53.314L51.694 9.954ZM51.352 9.18L48.04 1.908L44.746 9.18H51.352ZM64.5532 7.02C65.4892 7.176 66.1912 7.518 66.6592 8.046C67.1392 8.574 67.3792 9.276 67.3792 10.152C67.3792 11.232 67.0012 12.06 66.2452 12.636C65.4892 13.212 64.3672 13.5 62.8792 13.5H57.4612V0.899999H62.5372C63.8572 0.899999 64.8832 1.176 65.6152 1.728C66.3592 2.28 66.7312 3.072 66.7312 4.104C66.7312 4.836 66.5392 5.448 66.1552 5.94C65.7712 6.432 65.2372 6.792 64.5532 7.02ZM58.3792 6.732H62.5192C63.5752 6.732 64.3852 6.516 64.9492 6.084C65.5132 5.652 65.7952 5.028 65.7952 4.212C65.7952 3.384 65.5132 2.754 64.9492 2.322C64.3852 1.89 63.5752 1.674 62.5192 1.674H58.3792V6.732ZM62.8972 12.726C65.2732 12.726 66.4612 11.85 66.4612 10.098C66.4612 9.198 66.1612 8.538 65.5612 8.118C64.9612 7.698 64.0732 7.488 62.8972 7.488H58.3792V12.726H62.8972ZM81.0232 0.899999V13.5H80.1052V1.728H73.5892L73.4272 6.354C73.3552 8.082 73.2052 9.474 72.9772 10.53C72.7612 11.574 72.4372 12.348 72.0052 12.852C71.5732 13.356 71.0032 13.608 70.2952 13.608C69.9712 13.608 69.6712 13.572 69.3952 13.5L69.5032 12.654C69.7072 12.702 69.9052 12.726 70.0972 12.726C70.6492 12.726 71.0932 12.516 71.4292 12.096C71.7772 11.664 72.0412 10.986 72.2212 10.062C72.4012 9.138 72.5212 7.908 72.5812 6.372L72.7612 0.899999H81.0232ZM94.7977 12.672V13.5H86.1037V0.899999H94.5277V1.728H87.0217V6.696H93.7357V7.506H87.0217V12.672H94.7977ZM108.663 0.899999V13.5H107.745V7.506H99.3215V13.5H98.4035V0.899999H99.3215V6.696H107.745V0.899999H108.663ZM113.744 0.899999H114.662V11.952L123.248 0.899999H124.058V13.5H123.14V2.466L114.554 13.5H113.744V0.899999ZM137.832 12.672V13.5H129.138V0.899999H137.562V1.728H130.056V6.696H136.77V7.506H130.056V12.672H137.832ZM13.05 18.9V31.5H10.152V21.276H4.464V31.5H1.566V18.9H13.05ZM22.8154 31.59C21.5794 31.59 20.4634 31.314 19.4674 30.762C18.4714 30.198 17.6854 29.43 17.1094 28.458C16.5454 27.486 16.2634 26.4 16.2634 25.2C16.2634 24 16.5454 22.914 17.1094 21.942C17.6854 20.97 18.4714 20.208 19.4674 19.656C20.4634 19.092 21.5794 18.81 22.8154 18.81C24.0514 18.81 25.1674 19.086 26.1634 19.638C27.1594 20.19 27.9394 20.952 28.5034 21.924C29.0794 22.896 29.3674 23.988 29.3674 25.2C29.3674 26.412 29.0794 27.504 28.5034 28.476C27.9394 29.448 27.1594 30.21 26.1634 30.762C25.1674 31.314 24.0514 31.59 22.8154 31.59ZM22.8154 30.744C23.8714 30.744 24.8254 30.504 25.6774 30.024C26.5294 29.544 27.2014 28.884 27.6934 28.044C28.1854 27.192 28.4314 26.244 28.4314 25.2C28.4314 24.156 28.1854 23.214 27.6934 22.374C27.2014 21.522 26.5294 20.856 25.6774 20.376C24.8254 19.896 23.8714 19.656 22.8154 19.656C21.7594 19.656 20.7994 19.896 19.9354 20.376C19.0834 20.856 18.4114 21.522 17.9194 22.374C17.4274 23.214 17.1814 24.156 17.1814 25.2C17.1814 26.244 17.4274 27.192 17.9194 28.044C18.4114 28.884 19.0834 29.544 19.9354 30.024C20.7994 30.504 21.7594 30.744 22.8154 30.744ZM44.1636 30.672V34.38H43.2816V31.5H31.7616L31.7436 34.38H30.8616L30.8796 30.672H31.5636C32.3916 30.6 32.9676 29.904 33.2916 28.584C33.6276 27.264 33.8316 25.416 33.9036 23.04L34.0296 18.9H42.2196V30.672H44.1636ZM34.7496 23.112C34.6776 25.152 34.5156 26.82 34.2636 28.116C34.0236 29.412 33.6096 30.264 33.0216 30.672H41.3016V19.728H34.8576L34.7496 23.112ZM54.732 25.02C55.668 25.176 56.37 25.518 56.838 26.046C57.318 26.574 57.558 27.276 57.558 28.152C57.558 29.232 57.18 30.06 56.424 30.636C55.668 31.212 54.546 31.5 53.058 31.5H47.64V18.9H52.716C54.036 18.9 55.062 19.176 55.794 19.728C56.538 20.28 56.91 21.072 56.91 22.104C56.91 22.836 56.718 23.448 56.334 23.94C55.95 24.432 55.416 24.792 54.732 25.02ZM48.558 24.732H52.698C53.754 24.732 54.564 24.516 55.128 24.084C55.692 23.652 55.974 23.028 55.974 22.212C55.974 21.384 55.692 20.754 55.128 20.322C54.564 19.89 53.754 19.674 52.698 19.674H48.558V24.732ZM53.076 30.726C55.452 30.726 56.64 29.85 56.64 28.098C56.64 27.198 56.34 26.538 55.74 26.118C55.14 25.698 54.252 25.488 53.076 25.488H48.558V30.726H53.076ZM67.08 31.59C65.844 31.59 64.728 31.314 63.732 30.762C62.736 30.198 61.95 29.43 61.374 28.458C60.81 27.486 60.528 26.4 60.528 25.2C60.528 24 60.81 22.914 61.374 21.942C61.95 20.97 62.736 20.208 63.732 19.656C64.728 19.092 65.844 18.81 67.08 18.81C68.316 18.81 69.432 19.086 70.428 19.638C71.424 20.19 72.204 20.952 72.768 21.924C73.344 22.896 73.632 23.988 73.632 25.2C73.632 26.412 73.344 27.504 72.768 28.476C72.204 29.448 71.424 30.21 70.428 30.762C69.432 31.314 68.316 31.59 67.08 31.59ZM67.08 30.744C68.136 30.744 69.09 30.504 69.942 30.024C70.794 29.544 71.466 28.884 71.958 28.044C72.45 27.192 72.696 26.244 72.696 25.2C72.696 24.156 72.45 23.214 71.958 22.374C71.466 21.522 70.794 20.856 69.942 20.376C69.09 19.896 68.136 19.656 67.08 19.656C66.024 19.656 65.064 19.896 64.2 20.376C63.348 20.856 62.676 21.522 62.184 22.374C61.692 23.214 61.446 24.156 61.446 25.2C61.446 26.244 61.692 27.192 62.184 28.044C62.676 28.884 63.348 29.544 64.2 30.024C65.064 30.504 66.024 30.744 67.08 30.744ZM88.4281 30.672V34.38H87.5461V31.5H76.0261L76.0081 34.38H75.1261L75.1441 30.672H75.8281C76.6561 30.6 77.2321 29.904 77.5561 28.584C77.8921 27.264 78.0961 25.416 78.1681 23.04L78.2941 18.9H86.4841V30.672H88.4281ZM79.0141 23.112C78.9421 25.152 78.7801 26.82 78.5281 28.116C78.2881 29.412 77.8741 30.264 77.2861 30.672H85.5661V19.728H79.1221L79.0141 23.112ZM102.164 18.9V31.5H101.246V25.506H92.8225V31.5H91.9045V18.9H92.8225V24.696H101.246V18.9H102.164ZM112.645 31.59C111.409 31.59 110.293 31.314 109.297 30.762C108.301 30.198 107.515 29.43 106.939 28.458C106.375 27.486 106.093 26.4 106.093 25.2C106.093 24 106.375 22.914 106.939 21.942C107.515 20.97 108.301 20.208 109.297 19.656C110.293 19.092 111.409 18.81 112.645 18.81C113.881 18.81 114.997 19.086 115.993 19.638C116.989 20.19 117.769 20.952 118.333 21.924C118.909 22.896 119.197 23.988 119.197 25.2C119.197 26.412 118.909 27.504 118.333 28.476C117.769 29.448 116.989 30.21 115.993 30.762C114.997 31.314 113.881 31.59 112.645 31.59ZM112.645 30.744C113.701 30.744 114.655 30.504 115.507 30.024C116.359 29.544 117.031 28.884 117.523 28.044C118.015 27.192 118.261 26.244 118.261 25.2C118.261 24.156 118.015 23.214 117.523 22.374C117.031 21.522 116.359 20.856 115.507 20.376C114.655 19.896 113.701 19.656 112.645 19.656C111.589 19.656 110.629 19.896 109.765 20.376C108.913 20.856 108.241 21.522 107.749 22.374C107.257 23.214 107.011 24.156 107.011 25.2C107.011 26.244 107.257 27.192 107.749 28.044C108.241 28.884 108.913 29.544 109.765 30.024C110.629 30.504 111.589 30.744 112.645 30.744ZM122.137 26.262H126.763V27.072H122.137V26.262ZM11.196 39.276H7.164V49.5H4.284V39.276H0.27V36.9H11.196V39.276ZM22.9629 48.672V49.5H14.2689V36.9H22.6929V37.728H15.1869V42.696H21.9009V43.506H15.1869V48.672H22.9629ZM26.0325 36.9L29.8305 42.21L33.6465 36.9H34.7445L30.4065 42.966L35.0865 49.5H33.9885L29.8305 43.74L25.7085 49.5H24.6285L29.2725 42.984L24.9525 36.9H26.0325ZM48.1968 36.9V49.5H47.2788V43.506H38.8548V49.5H37.9368V36.9H38.8548V42.696H47.2788V36.9H48.1968ZM53.2776 36.9H54.1956V47.952L62.7816 36.9H63.5916V49.5H62.6736V38.466L54.0876 49.5H53.2776V36.9ZM76.8516 36.9V49.5H75.9336V44.1C74.4816 44.736 73.0836 45.054 71.7396 45.054C70.3116 45.054 69.1956 44.712 68.3916 44.028C67.5996 43.332 67.2036 42.36 67.2036 41.112V36.9H68.1216V41.022C68.1216 42.03 68.4456 42.816 69.0936 43.38C69.7416 43.944 70.6476 44.226 71.8116 44.226C73.0956 44.226 74.4696 43.902 75.9336 43.254V36.9H76.8516ZM90.6141 48.672V49.5H81.9201V36.9H90.3441V37.728H82.8381V42.696H89.5521V43.506H82.8381V48.672H90.6141ZM99.5496 49.59C98.3136 49.59 97.1976 49.314 96.2016 48.762C95.2176 48.21 94.4376 47.448 93.8616 46.476C93.2976 45.504 93.0156 44.412 93.0156 43.2C93.0156 41.988 93.2976 40.896 93.8616 39.924C94.4376 38.952 95.2176 38.19 96.2016 37.638C97.1976 37.086 98.3136 36.81 99.5496 36.81C100.462 36.81 101.302 36.96 102.07 37.26C102.838 37.548 103.492 37.98 104.032 38.556L103.456 39.15C102.448 38.154 101.158 37.656 99.5856 37.656C98.5296 37.656 97.5696 37.896 96.7056 38.376C95.8416 38.856 95.1636 39.522 94.6716 40.374C94.1796 41.214 93.9336 42.156 93.9336 43.2C93.9336 44.244 94.1796 45.192 94.6716 46.044C95.1636 46.884 95.8416 47.544 96.7056 48.024C97.5696 48.504 98.5296 48.744 99.5856 48.744C101.146 48.744 102.436 48.24 103.456 47.232L104.032 47.826C103.492 48.402 102.832 48.84 102.052 49.14C101.284 49.44 100.45 49.59 99.5496 49.59ZM111.481 43.524H108.457V49.5H107.539V36.9H108.457V42.696H111.499L116.017 36.9H117.043L112.219 43.038L117.367 49.5H116.287L111.481 43.524ZM120.155 36.9H121.073V47.952L129.659 36.9H130.469V49.5H129.551V38.466L120.965 49.5H120.155V36.9ZM135.171 36.9L138.969 42.21L142.785 36.9H143.883L139.545 42.966L144.225 49.5H143.127L138.969 43.74L134.847 49.5H133.767L138.411 42.984L134.091 36.9H135.171ZM7.02 54.9C8.136 54.9 9.102 55.086 9.918 55.458C10.746 55.83 11.382 56.358 11.826 57.042C12.27 57.726 12.492 58.536 12.492 59.472C12.492 60.396 12.27 61.206 11.826 61.902C11.382 62.586 10.746 63.114 9.918 63.486C9.102 63.846 8.136 64.026 7.02 64.026H4.482V67.5H1.566V54.9H7.02ZM6.858 61.65C7.734 61.65 8.4 61.464 8.856 61.092C9.312 60.708 9.54 60.168 9.54 59.472C9.54 58.764 9.312 58.224 8.856 57.852C8.4 57.468 7.734 57.276 6.858 57.276H4.482V61.65H6.858ZM23.8074 63.954H16.4994L14.8974 67.5H13.9074L19.7034 54.9H20.6214L26.4174 67.5H25.4274L23.8074 63.954ZM23.4654 63.18L20.1534 55.908L16.8594 63.18H23.4654ZM29.5746 54.9H38.5566V55.71H30.4926V60.246H34.7586C36.2346 60.246 37.3566 60.546 38.1246 61.146C38.8926 61.746 39.2766 62.628 39.2766 63.792C39.2766 64.992 38.8686 65.91 38.0526 66.546C37.2366 67.182 36.0546 67.5 34.5066 67.5H29.5746V54.9ZM34.5246 66.726C35.7846 66.726 36.7386 66.486 37.3866 66.006C38.0346 65.514 38.3586 64.788 38.3586 63.828C38.3586 61.944 37.0806 61.002 34.5246 61.002H30.4926V66.726H34.5246ZM48.5224 67.59C47.2864 67.59 46.1704 67.314 45.1744 66.762C44.1784 66.198 43.3924 65.43 42.8164 64.458C42.2524 63.486 41.9704 62.4 41.9704 61.2C41.9704 60 42.2524 58.914 42.8164 57.942C43.3924 56.97 44.1784 56.208 45.1744 55.656C46.1704 55.092 47.2864 54.81 48.5224 54.81C49.7584 54.81 50.8744 55.086 51.8704 55.638C52.8664 56.19 53.6464 56.952 54.2104 57.924C54.7864 58.896 55.0744 59.988 55.0744 61.2C55.0744 62.412 54.7864 63.504 54.2104 64.476C53.6464 65.448 52.8664 66.21 51.8704 66.762C50.8744 67.314 49.7584 67.59 48.5224 67.59ZM48.5224 66.744C49.5784 66.744 50.5324 66.504 51.3844 66.024C52.2364 65.544 52.9084 64.884 53.4004 64.044C53.8924 63.192 54.1384 62.244 54.1384 61.2C54.1384 60.156 53.8924 59.214 53.4004 58.374C52.9084 57.522 52.2364 56.856 51.3844 56.376C50.5324 55.896 49.5784 55.656 48.5224 55.656C47.4664 55.656 46.5064 55.896 45.6424 56.376C44.7904 56.856 44.1184 57.522 43.6264 58.374C43.1344 59.214 42.8884 60.156 42.8884 61.2C42.8884 62.244 43.1344 63.192 43.6264 64.044C44.1184 64.884 44.7904 65.544 45.6424 66.024C46.5064 66.504 47.4664 66.744 48.5224 66.744ZM66.7343 55.728H62.1983V67.5H61.2803V55.728H56.7443V54.9H66.7343V55.728Z" fill="#264673"/>
</svg>
