<svg width="65" height="101" viewBox="0 0 65 101" fill="none" xmlns="http://www.w3.org/2000/svg">
<path d="M52.1732 66.2652V63.9683H11.6609V66.6577C18.5364 70.046 47.7322 69.2506 52.1732 66.2652Z" fill="#264673"/>
<path d="M12.1552 66.3418C15.0738 67.6197 21.8424 68.3749 30.4221 68.3765C30.4221 68.3765 30.4237 68.3765 30.4245 68.3765C40.2122 68.3765 49.1844 67.3583 51.6751 65.9863V64.4638H12.1552V66.3418ZM30.4237 69.3698C30.4221 69.3698 30.4237 69.3698 30.4221 69.3698C21.4129 69.3698 14.3194 68.5245 11.441 67.1034C11.2697 67.0213 11.1636 66.846 11.1636 66.6578V63.9684C11.1636 63.6958 11.3872 63.4746 11.6606 63.4746H52.1729C52.4464 63.4746 52.6692 63.6958 52.6692 63.9684V66.2654C52.6692 66.4318 52.5847 66.5838 52.4496 66.6771C49.6991 68.5269 39.1031 69.3698 30.4237 69.3698Z" fill="#D8E2F3"/>
<path d="M54.6341 67.3171L52.2793 66.2627C47.8398 69.2489 18.6416 70.0459 11.7661 66.6568L9.45068 68.1446C9.64853 98.5733 57.1554 97.5777 54.6341 67.3171Z" fill="#264673"/>
<path d="M9.9502 68.4114C10.1858 83.2409 21.7943 89.9974 32.5415 89.9974C39.1822 89.9974 45.2719 87.5179 49.2497 83.195C52.9179 79.21 54.6133 73.8376 54.1629 67.6506L52.3147 66.823C49.232 68.5714 38.9755 69.3668 30.5285 69.3684C21.7791 69.3684 14.832 68.5698 11.8048 67.2203L9.9502 68.4114ZM32.5415 90.9898C21.2523 90.9898 9.05668 83.8425 8.95534 68.1468C8.95374 67.9779 9.03979 67.8202 9.18294 67.7253L11.4976 66.2391C11.6447 66.145 11.8289 66.1337 11.9866 66.2101C14.7339 67.5661 21.6657 68.3752 30.5285 68.3752C40.6322 68.3752 49.865 67.2902 52.0019 65.8522C52.145 65.7557 52.3244 65.7413 52.4804 65.8112L54.8377 66.8632C55.0033 66.9396 55.1135 67.098 55.1304 67.2766C55.6789 73.8722 53.8983 79.6081 49.9816 83.8666C45.8148 88.3937 39.458 90.9898 32.5415 90.9898Z" fill="#D8E2F3"/>
<path d="M9.63501 61.9434V63.9685C9.63501 65.088 19.6101 65.9944 31.9167 65.9944C44.2225 65.9944 54.1983 65.088 54.1983 63.9685V61.9434H9.63501Z" fill="#D8E2F3"/>
<path d="M9.96431 63.9274C10.5892 64.6617 18.4845 65.6654 31.9162 65.6654C45.3464 65.6654 53.2417 64.6617 53.8658 63.9274V62.2763H9.96431V63.9274ZM31.9162 66.3257C25.9552 66.3257 20.3496 66.115 16.1297 65.7313C9.30322 65.1113 9.30322 64.3681 9.30322 63.9684V61.9433C9.30322 61.7608 9.4504 61.6128 9.63457 61.6128H54.1979C54.3813 61.6128 54.5285 61.7608 54.5285 61.9433V63.9684C54.5285 64.3681 54.5285 65.1113 47.7004 65.7313C43.4829 66.115 37.8789 66.3257 31.9162 66.3257Z" fill="#D8E2F3"/>
<path d="M54.1983 61.9431C54.1983 63.061 44.2225 63.9682 31.9167 63.9682C19.6101 63.9682 9.63501 63.061 9.63501 61.9431C9.63501 60.8244 19.6101 59.918 31.9167 59.918C44.2225 59.918 54.1983 60.8244 54.1983 61.9431Z" fill="#264673"/>
<path d="M10.0061 61.9434C10.8804 62.6728 18.7306 63.6403 31.9162 63.6403C45.1011 63.6403 52.9513 62.6728 53.8264 61.9434C52.9513 61.2131 45.1011 60.2496 31.9162 60.2496C18.7306 60.2496 10.8804 61.2131 10.0061 61.9434ZM31.9162 64.3006C25.9552 64.3006 20.3496 64.0891 16.1297 63.7071C9.30322 63.0846 9.30322 62.3431 9.30322 61.9434C9.30322 61.5461 9.30322 60.8029 16.1297 60.1813C20.3496 59.7984 25.9552 59.5869 31.9162 59.5869C37.8789 59.5869 43.4829 59.7984 47.7004 60.1813C54.5285 60.8029 54.5285 61.5461 54.5285 61.9434C54.5285 62.3431 54.5285 63.0846 47.7004 63.7071C43.4829 64.0891 37.8789 64.3006 31.9162 64.3006Z" fill="#D8E2F3"/>
<path d="M0.539949 67.7663C0.530298 67.2202 0.976661 66.7746 1.52355 66.7746L7.11535 65.9944C7.11535 76.1649 10.498 93.2246 33.1561 93.2246C40.712 93.2246 46.5444 91.1424 50.4956 87.0351C56.2541 81.0491 57.1492 71.7874 56.8886 65.0703L62.5904 65.7878C63.1381 65.7669 63.5989 66.1932 63.6118 66.7425C63.8603 77.7542 60.9291 85.7298 55.264 91.6193C50.0147 97.0737 42.5802 99.8395 33.1561 99.8395C13.0298 99.8395 0.917141 88.363 0.539949 67.7663Z" fill="#264673"/>
<path d="M1.43885 67.7661C1.80961 88.0323 13.3971 99.0611 33.1559 99.0611C42.4393 99.0611 49.5234 96.3214 54.6763 90.9675C60.2368 85.185 62.8368 77.5588 62.5899 66.687C61.1511 66.3273 58.7143 66.2553 57.9137 66.1474C58.1123 72.9143 56.5892 81.414 50.8525 87.3767C46.8056 91.5862 40.8501 93.7223 33.1559 93.7223C10.4319 93.7223 6.2269 77.4472 6.11511 67.0467C4.99131 67.2153 2.8777 67.4064 1.43885 67.7661ZM33.1559 100.5C12.7851 100.5 0.382218 88.6428 0.00020024 67.7661C-0.00623374 67.3704 0.142554 66.9964 0.421628 66.7133C0.700701 66.4294 1.07914 66.3273 1.48002 66.271L7.11517 65.4996C7.38942 65.4996 7.61139 65.7208 7.61139 65.9942C7.61139 75.9781 10.9305 92.7282 33.1559 92.7282C40.5711 92.7282 46.2836 90.6975 50.14 86.6891C55.7729 80.8302 56.6512 71.7108 56.3914 65.091C56.3842 64.8176 56.5957 64.586 56.8691 64.5747L62.5516 65.2474C63.3478 65.2474 64.0105 65.8916 64.029 66.687C64.2808 77.8298 61.3697 85.987 55.6209 91.9642C50.2767 97.5191 42.72 100.5 33.1559 100.5Z" fill="#264673"/>
<path d="M63 70C61 71.5 58 67 58 67C58.1799 73.1151 57.3077 75.8673 56.6426 78.3983C55.5188 82.6749 53.7769 85.5719 49.1687 89.6316C51.5543 92.8298 50 95.5 50 95.5C54.0797 92.4677 58.335 88.5065 61 81.5C62.6462 77.1721 63 70 63 70Z" fill="#D8E2F3"/>
<path d="M10.5099 84.9303C14.4966 90.8287 21.0407 94.9882 32.6669 94.9882C40.7134 94.9882 47.7208 92.5924 51.9327 88.4851C57.7088 82.8465 58.9135 71.8637 58.8025 64.9938L56.7316 64.6118C55.3419 65.0879 54.9647 65.9605 54.5288 67.3189C54.4829 67.4701 56.8772 67.1379 56.8772 67.2972C56.8514 73.7247 55.5864 81.6868 50.4432 87.035C46.4919 91.1423 40.6595 93.2245 33.106 93.2245C12.0356 93.2245 7.63231 78.4722 7.1192 68.2293C7.10472 67.9679 9.3534 68.4014 9.34536 68.1465C9.32927 67.647 8.00387 65.5118 7.19641 65.5319C6.55542 65.5463 5.3772 65.9943 5.3772 65.9943C5.46566 71.3048 6.55221 79.0754 10.5099 84.9303Z" fill="#D8E2F3"/>
<path d="M57.7772 35.4827C57.7772 40.8719 55.8309 46.3239 53.953 51.5966C53.1062 53.9747 52.3051 56.2234 51.71 58.3949L51.6722 58.5228V58.653L51.6529 61.4373C49.8168 61.8757 42.6831 62.4008 32.0558 62.4008C21.4413 62.4008 14.3085 61.8757 12.4724 61.4373L12.4667 59.0527V58.9104L12.4273 58.7689C11.8716 56.8692 11.1019 54.7307 10.288 52.47C8.30556 46.9392 6.05688 40.6765 6.05688 35.4827C6.05688 21.2234 17.6606 9.62451 31.9134 9.62451C46.1735 9.62451 57.7772 21.2234 57.7772 35.4827Z" fill="#264673"/>
<path d="M50.7192 58.0538V60.392C48.9057 60.8271 42.5145 61.2913 32.0142 61.2913C21.5268 61.2913 15.4817 60.8271 13.6689 60.392V58.4136C13.1204 56.5372 11.9568 54.5326 11.1509 52.2984C9.19176 46.8352 7.19407 40.5247 7.19407 35.392C7.19407 21.304 18.1125 10.7517 32.1941 10.7517C46.2821 10.7517 56.6545 21.304 56.6545 35.392C56.6545 40.7161 55.0959 46.1901 53.2372 51.3992C52.4008 53.7492 51.3064 55.9097 50.7192 58.0538ZM32.1941 8.95312C17.5383 8.95312 5.39551 20.7354 5.39551 35.392C5.39551 42.8297 9.82048 52.3147 11.704 58.7753L11.7113 61.7268C11.7113 62.4724 20.8507 63.0788 32.0539 63.0788C43.2619 63.0788 52.5178 62.3965 52.5178 61.651V58.4136C54.4086 51.538 58.4531 43.321 58.4531 35.392C58.4531 20.7354 46.8579 8.95312 32.1941 8.95312Z" fill="#D8E2F3"/>
<path d="M54.5285 67.3188C54.387 86.0884 43.9857 90.3396 32.2766 90.2045C19.6355 90.0557 9.97967 82.7652 9.34512 68.1464H6.78198C6.78198 75.753 10.7493 93.2816 32.2461 93.2816C55.2636 93.2816 57.0507 76.661 57.0507 67.3188H54.5285Z" fill="#264673"/>
<path d="M7.11524 68.4768C7.15545 70.8381 7.65489 77.4795 11.7252 83.3779C16.1075 89.7298 23.0128 92.9509 32.2464 92.9509C56.307 92.9509 56.7116 74.3036 56.7204 67.6508H54.8546C54.7371 76.0689 52.478 82.223 48.1423 85.9442C44.5417 89.035 39.5264 90.5373 32.8117 90.5373C32.8117 90.5373 32.8117 90.5373 32.8109 90.5373C32.6308 90.5373 32.4531 90.5373 32.2761 90.5341C25.7312 90.4569 20.136 88.4905 16.0874 84.8456C11.8313 81.0118 9.39447 75.3563 9.02854 68.4768H7.11524ZM32.2464 93.6119C22.782 93.6119 15.6933 90.2944 11.1807 83.7543C6.79193 77.3935 6.45093 70.2011 6.45093 68.1462C6.45093 67.9629 6.59972 67.8149 6.78228 67.8149H9.34542C9.52155 67.8149 9.66712 67.9532 9.67435 68.131C10.2607 81.5868 18.7117 89.7154 32.2834 89.8722C32.4595 89.8746 32.6348 89.8746 32.8109 89.8746C32.8117 89.8746 32.8117 89.8746 32.8117 89.8746C47.2866 89.8746 54.0825 82.7064 54.1983 67.3171C54.2015 67.1361 54.3471 66.9897 54.5288 66.9897H57.051C57.2327 66.9897 57.3799 67.1369 57.3799 67.3187C57.3799 71.8458 56.9842 78.4953 53.5605 83.9795C49.5682 90.3692 42.3968 93.6119 32.2464 93.6119Z" fill="#D8E2F3"/>
<path d="M54.5289 67.3187L52.1733 66.2651C49.894 68.2291 32.9138 69.7444 21.2231 68.4854C24.4606 69.2048 32.4136 70.3748 34.5325 72.2624C36.1512 73.8811 35.7521 81.7948 28.4174 89.7084C34.8922 91.3271 55.0361 90.9674 54.5289 67.3187Z" fill="#D8E2F3"/>
<path d="M55.2933 67.3528C55.2933 67.3528 55.2668 67.8322 55.2161 68.671C55.1614 69.5098 55.093 70.7146 54.9314 72.1502C54.7713 73.5825 54.5156 75.2546 54.0435 77.0054C53.8054 77.878 53.5111 78.7683 53.154 79.6482C52.7945 80.5264 52.3562 81.3918 51.86 82.2185C51.367 83.0509 50.775 83.8158 50.155 84.5324C49.5349 85.2546 48.8312 85.8771 48.1403 86.4513C47.4197 87.0022 46.7031 87.5033 45.9785 87.9022C45.8008 88.0027 45.6214 88.1048 45.4469 88.2045C45.2708 88.2978 45.0882 88.3799 44.9145 88.4675C44.5678 88.6388 44.2293 88.8029 43.8923 88.9332C43.2312 89.2251 42.6031 89.427 42.0506 89.6249C41.4892 89.7921 41.0002 89.9353 40.5941 90.0455C39.7745 90.2377 39.3057 90.3455 39.3057 90.3455C39.3057 90.3455 39.7729 90.2313 40.5892 90.0302C40.9938 89.9168 41.4828 89.7688 42.0401 89.5935C42.5894 89.3956 43.2159 89.1825 43.869 88.8857C44.2068 88.7514 44.5429 88.5842 44.8871 88.4088C45.0576 88.3212 45.2386 88.2383 45.4147 88.1402C45.586 88.0413 45.763 87.9391 45.9391 87.8354C46.6581 87.4309 47.3666 86.9218 48.0728 86.3709C48.7548 85.7902 49.4456 85.1653 50.0536 84.4439C50.6616 83.7257 51.2415 82.9617 51.7176 82.1333C52.201 81.3065 52.6256 80.4492 52.973 79.5742C53.3165 78.6983 53.5971 77.8161 53.8288 76.9491C54.2703 75.2095 54.5084 73.5479 54.6523 72.1188C54.7979 70.6913 54.8542 69.4921 54.9008 68.6541C54.9402 67.8153 54.9644 67.3359 54.9644 67.3359L55.2933 67.3528Z" fill="#D8E2F3"/>
<path d="M55.7462 67.5297C55.7462 67.5297 55.7189 68.0091 55.6674 68.8543C55.6127 69.6972 55.5412 70.9043 55.3771 72.348C55.2162 73.7908 54.9508 75.4709 54.4804 77.2265C54.2367 78.1032 53.9423 78.9935 53.5812 79.8806C53.2233 80.7636 52.7802 81.6314 52.2856 82.4638C51.7918 83.3002 51.1998 84.0755 50.5806 84.7985C49.9621 85.5239 49.2608 86.1529 48.5716 86.7416C47.8534 87.2981 47.1408 87.8104 46.4202 88.2214C46.236 88.3259 46.0591 88.4305 45.8854 88.531C45.7092 88.63 45.5299 88.7112 45.3562 88.8045C45.0071 88.979 44.6709 89.1487 44.3348 89.2854C43.6737 89.5878 43.0464 89.8017 42.4938 90.006C41.9301 90.1854 41.4419 90.3342 41.0358 90.45C40.217 90.6542 39.7498 90.7717 39.7498 90.7717C39.7498 90.7717 40.2154 90.6502 41.0309 90.4379C41.4371 90.3173 41.9261 90.1612 42.4842 89.9787C43.0327 89.7672 43.6568 89.5468 44.3123 89.2404C44.6468 89.1004 44.983 88.9267 45.3264 88.7458C45.4993 88.6541 45.6771 88.5688 45.8516 88.4691C46.0245 88.3678 46.1974 88.2608 46.3776 88.1571C47.0917 87.7397 47.8003 87.2217 48.5032 86.6612C49.1844 86.0692 49.8736 85.4379 50.4792 84.7068C51.084 83.9838 51.6639 83.2125 52.1408 82.3785C52.6241 81.551 53.0552 80.6864 53.401 79.8058C53.7461 78.9259 54.0316 78.0404 54.2608 77.1678C54.7112 75.421 54.9508 73.753 55.098 72.3182C55.246 70.8826 55.3055 69.6771 55.3522 68.8358C55.3932 67.9922 55.4157 67.5112 55.4157 67.5112L55.7462 67.5297Z" fill="#D8E2F3"/>
<path d="M56.2225 67.5616C56.2225 67.5616 56.1911 68.045 56.138 68.8919C56.0801 69.7379 55.9989 70.9499 55.8203 72.3952C55.6458 73.842 55.37 75.5253 54.893 77.2874C54.6485 78.164 54.3606 79.064 54.0059 79.9535C53.6489 80.8414 53.2282 81.7212 52.7489 82.5681C52.2559 83.4061 51.705 84.2104 51.105 84.9543C50.4858 85.6837 49.8391 86.3746 49.1427 86.9641C48.8041 87.2689 48.4381 87.5295 48.0955 87.8037C47.732 88.0466 47.3894 88.3048 47.0323 88.5203C46.3254 88.9594 45.6241 89.3286 44.9646 89.6334C44.63 89.779 44.3156 89.9277 44.0075 90.0484C43.6979 90.1618 43.4027 90.2744 43.1245 90.3781C42.5679 90.5695 42.0725 90.7103 41.6672 90.8374C40.8452 91.04 40.3748 91.1582 40.3748 91.1582C40.3748 91.1582 40.8444 91.0376 41.6632 90.8221C42.0653 90.6918 42.5599 90.5486 43.1156 90.3492C43.3891 90.2414 43.6842 90.128 43.9923 90.0106C44.3003 89.8867 44.6123 89.7331 44.9437 89.5851C45.5992 89.2763 46.29 88.9007 46.9913 88.4544C47.3484 88.238 47.6838 87.9758 48.0433 87.7305C48.3794 87.4539 48.7397 87.1925 49.0735 86.8845C49.7579 86.2918 50.3917 85.5993 50.9973 84.8714C51.5868 84.1251 52.1256 83.3241 52.6058 82.4853C53.0746 81.6424 53.4784 80.765 53.8242 79.8827C54.1668 78.9964 54.441 78.1013 54.6735 77.2287C55.1279 75.4762 55.3828 73.8026 55.5437 72.363C55.7053 70.9242 55.7729 69.7162 55.8235 68.8726C55.8686 68.0265 55.8919 67.5439 55.8919 67.5439L56.2225 67.5616Z" fill="#D8E2F3"/>
<path d="M56.6577 67.5616C56.6577 67.5616 56.6264 68.0546 56.5733 68.9184C56.5162 69.7846 56.4341 71.0191 56.254 72.4973C56.0779 73.9731 55.7932 75.691 55.3106 77.4885C55.0629 78.386 54.7629 79.3012 54.405 80.21C54.0399 81.1156 53.6072 82.0132 53.1166 82.8769C52.6236 83.7391 52.0478 84.5522 51.439 85.3162C50.8157 86.0674 50.1482 86.7614 49.4468 87.3743C49.0994 87.6823 48.7359 87.9606 48.386 88.2364C48.0161 88.489 47.6727 88.7608 47.3051 88.9779C46.5869 89.4364 45.8768 89.8192 45.2069 90.1369C44.8715 90.2865 44.5538 90.4497 44.2361 90.5728C43.9233 90.6974 43.6225 90.8124 43.3434 90.9226C42.7772 91.1261 42.273 91.2805 41.8612 91.4164C41.0248 91.636 40.5479 91.7647 40.5479 91.7647C40.5479 91.7647 41.0248 91.6328 41.8572 91.3995C42.2673 91.2628 42.7684 91.1036 43.3297 90.8929C43.6112 90.7795 43.908 90.662 44.2208 90.5374C44.5329 90.4079 44.849 90.2454 45.1868 90.0894C45.8519 89.7669 46.554 89.3744 47.2633 88.9128C47.6276 88.6924 47.9662 88.4182 48.333 88.164C48.678 87.8858 49.0343 87.6051 49.3793 87.2979C50.0685 86.6786 50.7248 85.9813 51.3368 85.2318C51.9328 84.4653 52.4925 83.6546 52.9735 82.7965C53.4504 81.9343 53.8718 81.0424 54.2225 80.1385C54.5667 79.2329 54.8538 78.3225 55.0935 77.4322C55.5535 75.6411 55.8165 73.9345 55.9773 72.4635C56.1414 70.9958 56.209 69.7621 56.258 68.8991C56.3022 68.0378 56.3272 67.5439 56.3272 67.5439L56.6577 67.5616Z" fill="#D8E2F3"/>
<path d="M26.5467 87.1095C26.5467 87.1095 26.7222 86.9737 27.0286 86.7331C27.1735 86.6043 27.35 86.4527 27.5467 86.2668C27.731 86.0719 27.9555 85.8689 28.1759 85.6209C28.4006 85.3778 28.6383 85.1091 28.871 84.8118C29.1196 84.5238 29.3414 84.1918 29.5964 83.8664C29.8274 83.5227 30.0797 83.1798 30.303 82.8098C30.4178 82.6246 30.5327 82.4394 30.646 82.2545L30.9658 81.6775C31.184 81.2947 31.3645 80.8914 31.5546 80.5034C31.7126 80.1021 31.9067 79.7216 32.0293 79.3282C32.0954 79.133 32.1636 78.9439 32.2319 78.7557C32.2859 78.5654 32.3394 78.3768 32.3904 78.1961C32.5058 77.8369 32.5622 77.4813 32.6267 77.1585C32.6986 76.8358 32.7149 76.5341 32.7528 76.2674C32.7687 76.1331 32.784 76.0079 32.7944 75.891C32.7935 75.7755 32.7963 75.6659 32.7963 75.5708C32.8088 75.1846 32.8134 74.9606 32.8134 74.9606C32.8134 74.9606 32.8298 75.1828 32.8608 75.5695C32.8689 75.6679 32.8779 75.7751 32.8857 75.8925C32.888 76.011 32.878 76.1384 32.8763 76.274C32.8617 76.5467 32.8746 76.8549 32.8111 77.1866C32.7606 77.5181 32.7205 77.8811 32.6217 78.2542C32.5797 78.4429 32.5375 78.635 32.4911 78.8345C32.4293 79.0264 32.3682 79.2222 32.3036 79.4212C32.186 79.8275 32.0065 80.2232 31.8453 80.6333C31.6561 81.0301 31.4764 81.4456 31.255 81.8332L30.9276 82.4174C30.8082 82.6084 30.6878 82.7948 30.5708 82.9812C30.4592 83.1707 30.3326 83.3501 30.2032 83.5242C30.078 83.6984 29.9527 83.8685 29.8294 84.0398C29.5664 84.3668 29.3194 84.6874 29.0526 84.966C28.8024 85.2584 28.546 85.5153 28.3073 85.7497C28.0765 85.9908 27.8303 86.1792 27.6277 86.3606C27.4145 86.5293 27.22 86.6688 27.0667 86.7846C26.7391 86.9966 26.5467 87.1095 26.5467 87.1095Z" fill="#D8E2F3"/>
<path d="M33.6586 97.0954C33.6586 97.8876 33.02 98.5286 32.227 98.5286C31.4341 98.5286 30.7947 97.8876 30.7947 97.0954C30.7947 96.3049 31.4341 95.6606 32.227 95.6606C33.02 95.6606 33.6586 96.3049 33.6586 97.0954Z" fill="#264673"/>
<path d="M32.2268 95.8262C31.5255 95.8262 30.9585 96.3972 30.9585 97.0953C30.9585 97.7958 31.5255 98.3612 32.2268 98.3612C32.9257 98.3612 33.4943 97.7958 33.4943 97.0953C33.4943 96.3972 32.9257 95.8262 32.2268 95.8262ZM32.2268 98.6933C31.3462 98.6933 30.6272 97.9767 30.6272 97.0953C30.6272 96.213 31.3462 95.498 32.2268 95.498C33.1059 95.498 33.8233 96.213 33.8233 97.0953C33.8233 97.9767 33.1059 98.6933 32.2268 98.6933Z" fill="#D8E2F3"/>
<path d="M33.188 96.6836C33.188 96.6836 33.2033 96.7294 33.2282 96.8091C33.2435 96.8477 33.2547 96.8991 33.2588 96.9603C33.266 97.0174 33.2789 97.0881 33.266 97.1621C33.2652 97.2345 33.2523 97.3165 33.2242 97.397C33.2089 97.4838 33.1607 97.5634 33.1172 97.6487C33.0658 97.7259 33.0119 97.8103 32.9339 97.8755C32.8607 97.9447 32.7762 98.0058 32.6845 98.0508C32.5937 98.0999 32.4931 98.1224 32.395 98.1457C32.2937 98.1554 32.1956 98.1658 32.1007 98.1473C32.0049 98.1433 31.9197 98.1063 31.8385 98.0814C31.758 98.0492 31.6881 98.0058 31.6245 97.9736C31.5642 97.9278 31.5127 97.8859 31.4677 97.8457C31.4227 97.8103 31.3929 97.7669 31.364 97.7355C31.3093 97.6728 31.2771 97.6334 31.2771 97.6334C31.2771 97.6334 31.3157 97.6624 31.3849 97.7138C31.4186 97.7355 31.4524 97.7709 31.5039 97.7975C31.5546 97.8224 31.6109 97.857 31.6704 97.8892C31.7958 97.9455 31.9462 97.9985 32.1151 98.0034C32.1964 98.0162 32.28 97.9945 32.3652 97.9897C32.4505 97.9664 32.5325 97.9455 32.6097 97.9028C32.6894 97.8642 32.7617 97.816 32.8253 97.7548C32.8936 97.7018 32.9451 97.6334 32.9958 97.5715C33.0368 97.4967 33.0891 97.4307 33.1116 97.3584C33.1446 97.2876 33.1639 97.2168 33.1751 97.1484C33.1928 97.0825 33.1928 97.0206 33.1968 96.9635C33.2065 96.9064 33.2033 96.8565 33.1968 96.8147C33.1928 96.7327 33.188 96.6836 33.188 96.6836Z" fill="#D8E2F3"/>
<path d="M14.8787 91.9619C14.4999 92.6568 13.6297 92.9117 12.9332 92.5313C12.2392 92.1509 11.985 91.2807 12.3638 90.5866C12.7442 89.8926 13.6136 89.636 14.3085 90.018C15.0026 90.3952 15.2583 91.267 14.8787 91.9619Z" fill="#264673"/>
<path d="M13.6229 90.006C13.1581 90.006 12.7326 90.2593 12.5091 90.6647C12.1745 91.2783 12.3997 92.0512 13.0133 92.3866C13.1991 92.4879 13.4082 92.5442 13.6189 92.5442C14.0846 92.5442 14.5116 92.2885 14.7336 91.8807C14.8961 91.5855 14.9347 91.2429 14.8374 90.918C14.7425 90.5915 14.5261 90.3245 14.231 90.1612C14.0444 90.0599 13.8337 90.006 13.6229 90.006ZM13.6189 92.8739C13.3535 92.8739 13.0897 92.8056 12.8557 92.6761C12.0804 92.2531 11.7965 91.2807 12.2179 90.5071C12.4994 89.9939 13.0383 89.6763 13.6229 89.6763C13.8884 89.6763 14.1546 89.7438 14.3886 89.8725C14.7618 90.0768 15.0352 90.4138 15.155 90.8239C15.2757 91.2349 15.2282 91.666 15.0231 92.0424C14.7441 92.5547 14.2052 92.8739 13.6189 92.8739Z" fill="#D8E2F3"/>
<path d="M14.6647 91.3748C14.6647 91.3748 14.6551 91.4214 14.639 91.5043C14.6318 91.5445 14.6189 91.5936 14.594 91.6499C14.5698 91.7037 14.5505 91.7713 14.5039 91.83C14.4661 91.8927 14.4162 91.9571 14.3527 92.0166C14.298 92.085 14.2184 92.134 14.1396 92.1863C14.0559 92.2321 13.9675 92.2756 13.8693 92.2973C13.7712 92.323 13.6683 92.3351 13.5669 92.3294C13.4632 92.3294 13.3635 92.3021 13.2662 92.2756C13.1729 92.2361 13.0804 92.1976 13.008 92.138C12.9227 92.0866 12.8664 92.0134 12.8077 91.9514C12.7547 91.8855 12.7136 91.8131 12.6726 91.752C12.6405 91.6852 12.6179 91.6217 12.5962 91.5694C12.5721 91.5147 12.5681 91.4625 12.556 91.4214C12.5407 91.3378 12.5303 91.2896 12.5303 91.2896C12.5303 91.2896 12.552 91.3346 12.5866 91.4078C12.6059 91.448 12.6195 91.4954 12.6517 91.5429C12.6831 91.592 12.7185 91.645 12.7522 91.7037C12.8375 91.8123 12.9437 91.933 13.0876 92.015C13.1544 92.0665 13.2372 92.089 13.3152 92.1252C13.3997 92.1437 13.4849 92.1662 13.5718 92.1662C13.6594 92.171 13.7487 92.163 13.8315 92.1437C13.9168 92.1252 13.9948 92.093 14.0704 92.06C14.1396 92.0142 14.2168 91.9836 14.2723 91.9281C14.335 91.8807 14.3857 91.83 14.4291 91.7761C14.4757 91.7247 14.5063 91.6716 14.5361 91.6257C14.5723 91.5775 14.5932 91.5324 14.6076 91.4946C14.6438 91.4182 14.6647 91.3748 14.6647 91.3748Z" fill="#D8E2F3"/>
<path d="M5.42139 76.3931C5.04259 77.0888 4.1732 77.3438 3.47753 76.9642C2.78347 76.5854 2.52852 75.7144 2.90812 75.0179C3.28773 74.3246 4.15792 74.0705 4.85279 74.4501C5.54685 74.8297 5.80261 75.7007 5.42139 76.3931Z" fill="#264673"/>
<path d="M4.16693 74.4396C3.70208 74.4396 3.27502 74.6905 3.05385 75.0967C2.71767 75.7103 2.94367 76.4816 3.55731 76.8186C3.74309 76.9223 3.95381 76.9738 4.16372 76.9738C4.62777 76.9738 5.05562 76.7221 5.27759 76.3143C5.43844 76.0191 5.47705 75.6741 5.38054 75.35C5.28644 75.0259 5.06929 74.7565 4.77413 74.5964C4.58675 74.4935 4.37523 74.4396 4.16693 74.4396ZM4.16372 77.3067C3.89751 77.3067 3.63291 77.2392 3.39807 77.1097C2.62438 76.6851 2.34048 75.7119 2.76271 74.939C3.04259 74.4275 3.58144 74.1099 4.16693 74.1099C4.43153 74.1099 4.69693 74.1758 4.93257 74.3053C5.30655 74.5104 5.57999 74.8466 5.69902 75.2567C5.81966 75.6677 5.77221 76.098 5.56793 76.4744C5.28644 76.9867 4.74921 77.3067 4.16372 77.3067Z" fill="#D8E2F3"/>
<path d="M5.2074 75.8087C5.2074 75.8087 5.19856 75.8546 5.18247 75.9374C5.17363 75.9784 5.16156 76.0283 5.13744 76.0806C5.11331 76.1377 5.0924 76.2052 5.04736 76.2631C5.00795 76.3267 4.95809 76.3926 4.89616 76.4505C4.84147 76.5181 4.76024 76.568 4.68384 76.6202C4.59939 76.6645 4.51012 76.7095 4.412 76.7304C4.31549 76.7553 4.21094 76.7682 4.1088 76.7634C4.00666 76.7618 3.90693 76.7352 3.80882 76.7119C3.71713 76.6693 3.62384 76.6307 3.54985 76.5712C3.46701 76.5213 3.40991 76.4473 3.3512 76.3846C3.2957 76.3186 3.25791 76.2471 3.21608 76.1867C3.18391 76.12 3.16059 76.0572 3.13968 76.0018C3.11555 75.9455 3.11233 75.8948 3.10027 75.8546C3.08257 75.7725 3.07373 75.7251 3.07373 75.7251C3.07373 75.7251 3.09464 75.7669 3.13003 75.8433C3.14933 75.8811 3.16381 75.9278 3.19517 75.9768C3.22734 76.0259 3.26112 76.079 3.2957 76.1377C3.38015 76.2446 3.48712 76.3653 3.63108 76.4505C3.69783 76.5004 3.77986 76.5221 3.85948 76.5567C3.94312 76.5784 4.02676 76.5977 4.11523 76.5961C4.20129 76.605 4.29136 76.5961 4.37339 76.5736C4.45945 76.5567 4.53746 76.5261 4.61467 76.4923C4.68384 76.4489 4.76024 76.4176 4.81573 76.3621C4.87847 76.3146 4.93074 76.2631 4.97176 76.2084C5.02001 76.1578 5.04977 76.1039 5.08194 76.0581C5.11492 76.013 5.13663 75.9648 5.15191 75.9278C5.1881 75.8522 5.2074 75.8087 5.2074 75.8087Z" fill="#D8E2F3"/>
<path d="M49.3359 92.5627C49.7163 93.2568 50.5857 93.5125 51.2813 93.1329C51.9762 92.7517 52.2312 91.8807 51.8507 91.1874C51.4711 90.4942 50.6009 90.2376 49.9077 90.618C49.2128 91.0001 48.9587 91.8694 49.3359 92.5627Z" fill="#264673"/>
<path d="M50.5919 90.6072C50.3828 90.6072 50.1721 90.6619 49.9855 90.7649C49.6872 90.9257 49.4732 91.1927 49.3775 91.5176C49.2826 91.8442 49.3204 92.186 49.4813 92.4835C49.7048 92.8889 50.1303 93.1422 50.5943 93.1422C50.8075 93.1422 51.0174 93.0899 51.2015 92.987C51.8144 92.654 52.0436 91.8804 51.7074 91.2667C51.483 90.859 51.0568 90.6072 50.5919 90.6072ZM50.5943 93.476C50.0105 93.476 49.4732 93.1567 49.1917 92.642C48.9875 92.268 48.9416 91.8345 49.0614 91.4276C49.1797 91.0166 49.4539 90.6772 49.8271 90.4721C50.0611 90.3434 50.3265 90.2759 50.5919 90.2759C51.1782 90.2759 51.7171 90.5968 51.9945 91.1099C52.4176 91.8804 52.1321 92.8551 51.36 93.2781C51.1268 93.406 50.8606 93.476 50.5943 93.476Z" fill="#D8E2F3"/>
<path d="M49.5513 91.9754C49.5513 91.9754 49.5714 92.0213 49.6084 92.0961C49.6221 92.1339 49.6454 92.1797 49.68 92.2255C49.7097 92.273 49.7419 92.3261 49.7861 92.3759C49.8287 92.4314 49.8794 92.4837 49.9454 92.5312C49.9968 92.5842 50.0748 92.6156 50.1448 92.659C50.2196 92.6952 50.2984 92.7258 50.3845 92.7435C50.4689 92.7636 50.5574 92.7732 50.6434 92.766C50.7335 92.7676 50.8172 92.7467 50.9008 92.7258C50.978 92.692 51.0609 92.6687 51.1268 92.6188C51.2716 92.5328 51.3777 92.4137 51.463 92.306C51.4984 92.2473 51.5321 92.1942 51.5643 92.1467C51.5949 92.0977 51.611 92.0502 51.6278 92.0132C51.6656 91.9368 51.6858 91.8926 51.6858 91.8926C51.6858 91.8926 51.6753 91.9376 51.6584 92.0221C51.648 92.0639 51.6423 92.1137 51.6222 92.17C51.5997 92.2239 51.5756 92.2883 51.5434 92.355C51.5 92.4153 51.463 92.4877 51.4075 92.5545C51.348 92.6156 51.2917 92.6896 51.2088 92.7386C51.134 92.7982 51.0424 92.8384 50.9491 92.8778C50.8526 92.9043 50.7536 92.9317 50.6507 92.9317C50.5477 92.9373 50.4432 92.9236 50.3459 92.8971C50.247 92.8778 50.1601 92.8327 50.0748 92.7901C49.9968 92.7346 49.9204 92.6864 49.8649 92.6188C49.8014 92.5593 49.7523 92.4958 49.7137 92.4314C49.6663 92.3743 49.6454 92.306 49.6221 92.2513C49.5971 92.1966 49.5834 92.1467 49.5786 92.1065C49.5593 92.0237 49.5513 91.9754 49.5513 91.9754Z" fill="#D8E2F3"/>
<path d="M48.7783 92.0987C48.7783 92.0987 48.8041 92.1823 48.8443 92.3263C48.8644 92.4027 48.8869 92.4911 48.9416 92.5812C48.989 92.6697 49.0268 92.775 49.1105 92.8723C49.1491 92.9214 49.1845 92.9745 49.2255 93.0284C49.2729 93.0734 49.3236 93.1184 49.3775 93.1667C49.4266 93.2174 49.4828 93.2584 49.5496 93.2946C49.6139 93.3324 49.6735 93.3774 49.7418 93.4128C49.8834 93.4723 50.0241 93.5367 50.1841 93.5648L50.2983 93.5921L50.4214 93.6026C50.501 93.6066 50.5823 93.6259 50.6619 93.6122L50.9039 93.597L51.1388 93.5423C51.2184 93.5302 51.2844 93.4828 51.3575 93.457C51.4315 93.4289 51.5015 93.3999 51.5602 93.3509C51.6245 93.3107 51.6865 93.2672 51.7476 93.2246C51.8007 93.1764 51.8505 93.1257 51.902 93.079C52.0138 92.9874 52.0637 92.8579 52.1449 92.7606C52.2044 92.6544 52.2414 92.5442 52.2873 92.4501C52.3403 92.3576 52.3435 92.2651 52.3669 92.1944C52.4071 92.0464 52.4288 91.9644 52.4288 91.9644C52.4288 91.9644 52.4216 92.0504 52.4167 92.2C52.4014 92.2756 52.4167 92.3745 52.3765 92.4759C52.3451 92.5772 52.3242 92.7027 52.2679 92.8225C52.2358 92.8852 52.2012 92.9447 52.1682 93.0091C52.132 93.075 52.0942 93.1402 52.0379 93.1965C51.9857 93.2552 51.9358 93.3163 51.8827 93.3806C51.82 93.4337 51.7516 93.4812 51.6816 93.5367C51.6165 93.5897 51.5377 93.6299 51.4557 93.6669C51.3744 93.7031 51.2964 93.7506 51.2088 93.7699C51.1187 93.7916 51.0318 93.8149 50.9426 93.8366L50.6715 93.8632C50.5782 93.8744 50.4865 93.8479 50.3949 93.8439L50.2581 93.8318L50.1279 93.7964C49.9477 93.7643 49.7901 93.6782 49.6365 93.6026C49.5633 93.5608 49.4949 93.5085 49.4314 93.4586C49.3598 93.4128 49.3027 93.3565 49.2528 93.2962C49.1998 93.2399 49.1507 93.182 49.1016 93.1257C49.0638 93.0646 49.0284 93.0034 48.9923 92.9455C48.9118 92.8378 48.8853 92.7099 48.8531 92.6078C48.8113 92.5016 48.8041 92.4123 48.7984 92.3383C48.784 92.1863 48.7783 92.0987 48.7783 92.0987Z" fill="#264673"/>
<path d="M58.8072 75.9613C59.1876 76.657 60.0595 76.9128 60.7527 76.5299C61.4484 76.152 61.7017 75.2801 61.3213 74.5861C60.9441 73.8912 60.0707 73.6371 59.3775 74.0175C58.6834 74.3963 58.4284 75.2681 58.8072 75.9613Z" fill="#264673"/>
<path d="M60.0652 74.0045C59.8528 74.0045 59.6429 74.0608 59.4579 74.1622C59.1596 74.3246 58.9448 74.5924 58.8499 74.9182C58.755 75.2439 58.7912 75.5849 58.9529 75.8825C59.1757 76.2886 59.6035 76.542 60.0668 76.542C60.2775 76.542 60.4874 76.4881 60.6748 76.3859C61.2868 76.0506 61.5136 75.2785 61.175 74.6632C60.9571 74.2579 60.5284 74.0045 60.0652 74.0045ZM60.0668 76.8725C59.4829 76.8725 58.9432 76.5548 58.6609 76.0409C58.2379 75.268 58.525 74.2941 59.2987 73.8718C59.5336 73.7424 59.7998 73.6748 60.0652 73.6748C60.6498 73.6748 61.1863 73.9925 61.4678 74.5064C61.89 75.2801 61.6053 76.2524 60.8332 76.6779C60.596 76.8041 60.3338 76.8725 60.0668 76.8725Z" fill="#D8E2F3"/>
<path d="M59.0222 75.3742C59.0222 75.3742 59.0431 75.42 59.0785 75.4948C59.0954 75.5342 59.1171 75.5801 59.1493 75.6251C59.1823 75.6726 59.2104 75.7249 59.2563 75.7771C59.3013 75.8294 59.352 75.8825 59.4147 75.9299C59.471 75.983 59.5466 76.016 59.6158 76.0602C59.6914 76.0956 59.7718 76.1254 59.8562 76.1422C59.9399 76.1624 60.0275 76.1712 60.1136 76.1648C60.2029 76.1648 60.2857 76.1463 60.3709 76.1254C60.4498 76.0924 60.5326 76.0667 60.6002 76.0176C60.7425 75.9323 60.8503 75.8133 60.9331 75.7023C60.9701 75.646 61.0039 75.5913 61.0361 75.5447C61.0682 75.4964 61.0811 75.4482 61.0996 75.4104C61.1358 75.334 61.1567 75.293 61.1567 75.293C61.1567 75.293 61.147 75.338 61.1301 75.4208C61.1181 75.4611 61.1173 75.5141 61.0916 75.5688C61.069 75.6235 61.0473 75.6871 61.0119 75.753C60.9725 75.8133 60.9323 75.8865 60.8808 75.9525C60.8205 76.016 60.7618 76.086 60.679 76.1374C60.605 76.1985 60.5141 76.2372 60.4224 76.2766C60.3243 76.3023 60.2246 76.3288 60.12 76.3304C60.0211 76.3369 59.9157 76.324 59.8192 76.2991C59.7195 76.2766 59.6343 76.2299 59.5466 76.1865C59.4686 76.135 59.3882 76.0843 59.3335 76.0192C59.2707 75.9589 59.2209 75.8945 59.1823 75.8294C59.138 75.7723 59.1171 75.7023 59.0922 75.6493C59.0689 75.5938 59.0544 75.5447 59.0488 75.5037C59.0327 75.4209 59.0222 75.3742 59.0222 75.3742Z" fill="#D8E2F3"/>
<path d="M58.25 75.4971C58.25 75.4971 58.2725 75.5807 58.3167 75.7255C58.332 75.8019 58.357 75.8904 58.41 75.978C58.4599 76.0681 58.4993 76.1742 58.5821 76.2699C58.6191 76.3198 58.6553 76.3713 58.6947 76.4268C58.7446 76.471 58.7977 76.5152 58.85 76.5643C58.899 76.6142 58.9545 76.6576 59.0197 76.6914C59.0856 76.73 59.1467 76.7758 59.2119 76.8096C59.3526 76.8715 59.4966 76.9359 59.655 76.9624L59.7716 76.993L59.8931 77.0018C59.9727 77.0034 60.0547 77.0243 60.1344 77.0099L60.3764 76.9962L60.6089 76.9399C60.6877 76.9294 60.7544 76.8812 60.83 76.8562C60.9016 76.8289 60.9724 76.7983 61.0311 76.7509C61.097 76.7083 61.1565 76.6672 61.2185 76.6246C61.274 76.5732 61.3214 76.5233 61.3721 76.475C61.4823 76.3842 61.5345 76.2571 61.6142 76.1574C61.6761 76.0504 61.7155 75.9418 61.7589 75.8477C61.812 75.756 61.812 75.6611 61.8385 75.5912C61.8771 75.444 61.8997 75.3604 61.8997 75.3604C61.8997 75.3604 61.8957 75.448 61.8844 75.6C61.8731 75.6732 61.8844 75.7721 61.8498 75.8735C61.8184 75.9764 61.7959 76.1011 61.7396 76.2201C61.7067 76.2788 61.6713 76.3431 61.6383 76.4059C61.6053 76.4726 61.5651 76.5378 61.5112 76.5933C61.4606 76.6552 61.4075 76.7155 61.352 76.779C61.2917 76.8345 61.2209 76.8812 61.1533 76.9342C61.0858 76.9881 61.0094 77.0308 60.9257 77.0653C60.8453 77.0999 60.7689 77.1506 60.6788 77.1675C60.592 77.19 60.5035 77.2141 60.4134 77.2366L60.14 77.2592C60.0475 77.2728 59.9574 77.2487 59.8649 77.2447L59.7306 77.231L59.5995 77.1948C59.4186 77.161 59.2617 77.0766 59.1081 77.0018C59.0349 76.9584 58.9666 76.9061 58.9014 76.8562C58.8315 76.8128 58.7768 76.7549 58.7253 76.6938C58.6722 76.6383 58.6232 76.5796 58.5725 76.5241C58.5347 76.4622 58.4993 76.4026 58.4623 76.3447C58.3843 76.2338 58.357 76.1099 58.3232 76.0046C58.283 75.9008 58.2757 75.8107 58.2693 75.7351C58.2556 75.5847 58.25 75.4971 58.25 75.4971Z" fill="#264673"/>
<path d="M48.694 57.1287C48.3707 58.0393 47.2695 58.487 46.2395 58.1212C45.2132 57.7568 44.642 56.7152 44.9653 55.8045C45.2911 54.8873 48.0533 49.7592 49.0795 50.1236C50.1095 50.4894 49.0198 56.2114 48.694 57.1287Z" fill="#D8E2F3"/>
<path d="M48.751 51.0912C48.7481 51.0902 48.7453 51.0892 48.7415 51.0878C49.2384 52.0475 48.4736 56.0101 48.2296 56.697C47.9604 57.4551 47.0472 57.8212 46.1963 57.519C45.9944 57.4474 45.8203 57.3428 45.6658 57.225C45.8567 57.4326 46.1032 57.6098 46.3989 57.7147C47.2507 58.0173 48.1611 57.6502 48.4307 56.8912C48.6995 56.134 49.6029 51.3937 48.751 51.0912Z" fill="#264673"/>
<path d="M48.2534 39.8081C48.2534 49.1004 40.9055 56.6303 31.8412 56.6303C22.7779 56.6303 15.4299 49.1004 15.4299 39.8081C15.4299 30.5157 22.7779 22.9858 31.8412 22.9858C40.9055 22.9858 48.2534 30.5157 48.2534 39.8081Z" fill="#D8E2F3"/>
<path d="M31.8413 23.1799C22.9005 23.1799 15.6242 30.639 15.6242 39.8079C15.6242 48.9749 22.9005 56.4379 31.8413 56.4379C40.784 56.4379 48.0603 48.9749 48.0603 39.8079C48.0603 30.639 40.784 23.1799 31.8413 23.1799ZM31.8413 56.8224C22.6866 56.8224 15.2378 49.1889 15.2378 39.8079C15.2378 30.4241 22.6866 22.7925 31.8413 22.7925C40.998 22.7925 48.4458 30.4241 48.4458 39.8079C48.4458 49.1889 40.998 56.8224 31.8413 56.8224Z" fill="#D8E2F3"/>
<path d="M19.9353 28.9973C19.9353 28.9973 20.0691 28.8286 20.3048 28.5317C20.4217 28.38 20.5753 28.2075 20.7534 28.0124C20.842 27.9134 20.9382 27.8098 21.0362 27.6985C21.1427 27.5949 21.2567 27.4855 21.3727 27.3724C21.6026 27.1396 21.8713 26.9087 22.1559 26.6655C22.4396 26.4224 22.7544 26.1792 23.0862 25.9436C23.4264 25.7117 23.777 25.478 24.1503 25.264C24.3341 25.149 24.5245 25.0425 24.7177 24.9454C24.9128 24.8474 25.1004 24.7371 25.2992 24.6476C25.6979 24.4685 26.1004 24.2951 26.5038 24.1509C26.9053 23.9906 27.3153 23.8832 27.7064 23.7616C28.1051 23.6608 28.4869 23.5599 28.8544 23.5034C29.0401 23.4732 29.2192 23.4402 29.3945 23.4091C29.567 23.3893 29.7357 23.3676 29.8978 23.3488C30.222 23.3026 30.5208 23.2932 30.7866 23.2819C31.0515 23.264 31.2805 23.2611 31.4709 23.2668C31.8507 23.2734 32.0675 23.2781 32.0675 23.2781C32.0675 23.2781 31.8507 23.2932 31.4737 23.3224C31.2843 23.3299 31.0581 23.3507 30.7951 23.3884C30.534 23.4223 30.2381 23.4525 29.9223 23.5118C29.763 23.5392 29.5971 23.5656 29.4247 23.5948C29.256 23.6325 29.0788 23.6711 28.8987 23.7117C28.5368 23.7852 28.1654 23.9039 27.7752 24.0048C27.3926 24.1301 26.992 24.2414 26.5999 24.4044C26.2031 24.5505 25.812 24.7296 25.4227 24.9096C25.2257 24.9954 25.0381 25.1 24.8459 25.1952C24.6545 25.2866 24.4651 25.3894 24.286 25.4987C23.9156 25.7013 23.565 25.9275 23.2304 26.1509C22.9005 26.3809 22.58 26.6024 22.2879 26.8286C21.9985 27.0576 21.7195 27.2735 21.482 27.4912C21.2379 27.7042 21.0173 27.9021 20.8316 28.0888C20.6403 28.2678 20.4744 28.4262 20.3462 28.5694C20.0861 28.8437 19.9353 28.9973 19.9353 28.9973Z" fill="#264673"/>
<path d="M20.363 29.4223C20.363 29.4223 20.4912 29.2677 20.7174 28.9962C20.8305 28.8624 20.9691 28.6975 21.1265 28.5108C21.2066 28.4185 21.2924 28.3186 21.3819 28.2139C21.4809 28.1206 21.5883 28.0198 21.7005 27.918C21.9229 27.7116 22.167 27.4873 22.4243 27.2497C22.6807 27.015 22.9908 26.8162 23.299 26.59C23.4536 26.4806 23.6119 26.3675 23.7703 26.2535C23.9314 26.1413 24.1096 26.0556 24.284 25.9538C24.6327 25.7643 24.9795 25.5485 25.3452 25.3722C25.7213 25.2205 26.1002 25.0659 26.4697 24.916L26.7458 24.8029L27.0314 24.7238C27.219 24.671 27.4056 24.6182 27.5903 24.5654C27.956 24.4665 28.3066 24.3505 28.6535 24.3185C29.0003 24.2666 29.3236 24.2186 29.6252 24.1762C29.9231 24.1158 30.203 24.1215 30.45 24.1187C30.696 24.114 30.909 24.113 31.0852 24.1083C31.4396 24.1074 31.6394 24.1055 31.6394 24.1055C31.6394 24.1055 31.4405 24.1262 31.0899 24.1658C30.9127 24.1809 30.7007 24.2025 30.4584 24.2261C30.2172 24.2506 29.94 24.2666 29.645 24.3373C29.3538 24.3967 29.0343 24.4599 28.6978 24.524C28.3575 24.5739 28.0182 24.7087 27.6591 24.8076C27.4791 24.8623 27.2963 24.9179 27.1134 24.9726L26.8344 25.0536L26.5639 25.1677C26.2029 25.3232 25.8372 25.4787 25.4696 25.6342C25.1096 25.8011 24.7656 26.0084 24.4159 26.1894C24.2472 26.2874 24.0672 26.3656 23.9107 26.475C23.7514 26.5843 23.595 26.6927 23.4413 26.7964C23.1407 27.0188 22.8211 27.196 22.5582 27.4156C22.2952 27.6352 22.0454 27.8426 21.8155 28.033C21.7005 28.1291 21.5883 28.2215 21.4846 28.3082C21.3866 28.4062 21.2943 28.4986 21.2057 28.5853C21.0341 28.7606 20.8805 28.9095 20.758 29.0358C20.5054 29.2818 20.363 29.4223 20.363 29.4223Z" fill="#264673"/>
<path d="M47.1289 37.4657C45.7622 30.4288 39.5746 25.1177 32.1418 25.1177C25.1765 25.1177 19.3036 29.7832 17.4704 36.1594C16.9064 40.0681 16.9064 40.0681 17.3196 44.0615C18.9643 50.7186 24.9748 55.6556 32.1418 55.6556C39.7169 55.6556 45.9988 50.1399 47.2005 42.906C47.2005 40.9674 47.2005 38.9889 47.1289 37.4657Z" fill="#264673"/>
<path d="M17.4741 43.8672C19.0191 50.6044 25.2605 55.4622 32.1417 55.4622C39.5443 55.4622 45.7961 50.168 47.0101 42.8729C47.2881 40.4277 47.3021 40.0679 46.9375 37.5052C45.5709 30.439 39.3455 25.3108 32.1417 25.3108C25.456 25.3108 19.4145 29.9272 17.6146 36.3553C17.1687 39.7082 17.1687 40.4277 17.4741 43.8672ZM32.1417 55.8477C25.0634 55.8477 18.9284 51.0917 17.1687 44.2555C16.7265 40.7874 16.7266 39.7082 17.3233 35.966C19.263 29.4569 25.3348 24.9243 32.1417 24.9243C39.4774 24.9243 45.8206 30.1063 47.2881 37.2733C47.6618 40.0679 47.6618 40.0679 47.3645 43.0962C46.0581 50.496 39.681 55.8477 32.1417 55.8477Z" fill="#D8E2F3"/>
<path d="M20.8477 29.8362C20.8477 29.8362 20.9655 29.6948 21.17 29.445C21.2737 29.3215 21.399 29.1717 21.5432 29.0001C21.6158 28.9163 21.6922 28.8229 21.7732 28.7287C21.8656 28.6401 21.9636 28.5487 22.0645 28.4563C22.2699 28.2678 22.4905 28.0614 22.7261 27.8455C22.9608 27.6288 23.2426 27.445 23.5244 27.2386C23.6658 27.1377 23.8091 27.035 23.9561 26.9303C24.1041 26.8276 24.2671 26.7494 24.4245 26.6551C24.745 26.4808 25.0636 26.2847 25.3963 26.1217C25.7422 25.9831 26.0862 25.8427 26.4265 25.7051L26.6791 25.6052L26.9383 25.5307C27.1107 25.4807 27.2823 25.4346 27.451 25.3874C27.7865 25.2932 28.107 25.1904 28.4265 25.1612C28.7413 25.116 29.0392 25.0726 29.3144 25.034C29.5858 24.9793 29.8412 24.9859 30.0674 24.984C30.2927 24.9793 30.4878 24.9784 30.6499 24.9746C30.9751 24.9746 31.1561 24.9746 31.1561 24.9746C31.1561 24.9746 30.9751 24.9963 30.6518 25.034C30.4916 25.05 30.2984 25.0679 30.075 25.0924C29.8544 25.1141 29.6028 25.1311 29.336 25.1961C29.0684 25.2489 28.7762 25.3092 28.468 25.3705C28.1579 25.4148 27.8478 25.5382 27.5189 25.6287C27.3558 25.6787 27.188 25.7286 27.0203 25.7776L26.7667 25.854L26.5217 25.9605C26.1899 26.099 25.8562 26.2442 25.5207 26.3846C25.1908 26.5383 24.877 26.7258 24.5593 26.8898C24.4048 26.9794 24.2408 27.0538 24.0956 27.1518C23.9495 27.2499 23.8072 27.3498 23.6668 27.445C23.3925 27.6467 23.1003 27.8097 22.86 28.0095C22.6177 28.2075 22.3906 28.396 22.1804 28.5704C22.0739 28.6571 21.973 28.7419 21.8769 28.822C21.7864 28.9106 21.7025 28.9945 21.6224 29.0746C21.4641 29.2311 21.3246 29.3696 21.2096 29.4837C20.9777 29.708 20.8477 29.8362 20.8477 29.8362Z" fill="#264673"/>
<path d="M43.2092 40.3864C43.2092 46.5006 38.2543 51.4564 32.142 51.4564C26.0278 51.4564 21.072 46.5006 21.072 40.3864C21.072 34.2722 26.0278 29.3174 32.142 29.3174C38.2543 29.3174 43.2092 34.2722 43.2092 40.3864Z" fill="#D8E2F3"/>
<path d="M32.142 29.5109C26.1447 29.5109 21.2662 34.3903 21.2662 40.3867C21.2662 46.384 26.1447 51.2625 32.142 51.2625C38.1384 51.2625 43.015 46.384 43.015 40.3867C43.015 34.3903 38.1384 29.5109 32.142 29.5109ZM32.142 51.6499C25.9308 51.6499 20.877 46.5989 20.877 40.3867C20.877 34.1773 25.9308 29.1226 32.142 29.1226C38.3524 29.1226 43.4034 34.1773 43.4034 40.3867C43.4034 46.5989 38.3524 51.6499 32.142 51.6499Z" fill="#D8E2F3"/>
<path d="M32.1418 28.2858C25.4677 28.2858 20.0407 33.7147 20.0407 40.3869C20.0407 47.059 25.4677 52.4899 32.1418 52.4899C38.813 52.4899 44.2419 47.059 44.2419 40.3869C44.2419 33.7147 38.813 28.2858 32.1418 28.2858ZM32.1418 52.8763C25.2547 52.8763 19.6523 47.2749 19.6523 40.3869C19.6523 33.5017 25.2547 27.8975 32.1418 27.8975C39.0279 27.8975 44.6321 33.5017 44.6321 40.3869C44.6321 47.2749 39.0279 52.8763 32.1418 52.8763Z" fill="#D8E2F3"/>
<path d="M45.3553 34.2378C45.3553 34.2378 45.4222 34.4093 45.5448 34.7251C45.6089 34.8853 45.6852 35.0795 45.7757 35.3104C45.8209 35.4273 45.869 35.5479 45.918 35.6808C45.9566 35.8194 45.9962 35.9654 46.0386 36.121C46.1225 36.4292 46.214 36.7732 46.3176 37.1455C46.3798 37.5272 46.4505 37.9391 46.525 38.3802C46.6051 38.8213 46.6051 39.2992 46.6494 39.8025C46.6786 40.0504 46.6636 40.3124 46.6532 40.5735C46.6428 40.8393 46.6343 41.1098 46.6277 41.3859C46.6258 41.664 46.5599 41.9401 46.5354 42.2285C46.4939 42.5141 46.4694 42.8063 46.4119 43.0994C46.344 43.3916 46.2762 43.6885 46.2074 43.9882C46.1697 44.1409 46.1348 44.2889 46.098 44.4444C46.0481 44.5924 45.9962 44.7432 45.9453 44.8931C45.8454 45.1956 45.7436 45.501 45.6371 45.812C45.5024 46.1089 45.3685 46.4105 45.229 46.7187C45.1602 46.8686 45.0952 47.026 45.0198 47.1777C44.934 47.3257 44.8511 47.4718 44.7653 47.6198C44.589 47.9139 44.4326 48.2239 44.2337 48.5105C43.4646 49.6764 42.4947 50.7612 41.3788 51.716C40.2299 52.6463 38.9574 53.3965 37.5474 54.0007C36.2128 54.5021 34.6944 54.8763 33.241 54.9903C31.7726 55.078 30.3211 54.9658 28.961 54.6586C28.6198 54.5898 28.2928 54.4729 27.9619 54.3843C27.7979 54.3362 27.6339 54.2882 27.4709 54.241C27.3106 54.1854 27.157 54.1166 26.9996 54.0544C26.6905 53.9291 26.3832 53.8046 26.0797 53.6831C25.7894 53.5323 25.5019 53.3824 25.2192 53.2354C25.0768 53.1628 24.9383 53.0893 24.7988 53.0176C24.6678 52.9319 24.5358 52.847 24.4058 52.7641C24.1475 52.5944 23.8921 52.4286 23.6423 52.2646C23.3982 52.0921 23.1758 51.897 22.9505 51.7198C22.7309 51.5341 22.4934 51.3739 22.2983 51.1788C22.1013 50.9865 21.9081 50.7961 21.7177 50.6095C21.5292 50.4276 21.3388 50.2523 21.187 50.0506C20.8703 49.6556 20.5395 49.3107 20.2897 48.9403C20.039 48.5699 19.8044 48.2258 19.5847 47.9054C19.4 47.567 19.2313 47.2531 19.0767 46.9723C18.9994 46.8309 18.9269 46.7018 18.8599 46.5764C18.8034 46.4445 18.7525 46.3219 18.7054 46.2079C18.6111 45.9788 18.531 45.7828 18.465 45.6263C18.335 45.3097 18.2671 45.1409 18.2671 45.1409C18.2671 45.1409 18.3491 45.304 18.5027 45.6065C18.58 45.7602 18.6771 45.9459 18.7874 46.1674C18.8458 46.2776 18.9061 46.3936 18.9683 46.5199C19.0447 46.6386 19.1238 46.7668 19.2077 46.8997C19.3755 47.1693 19.5612 47.4652 19.7657 47.7876C19.9985 48.0873 20.2492 48.4134 20.5197 48.764C20.7836 49.1099 21.1305 49.4294 21.4575 49.7942C21.6206 49.9808 21.81 50.1439 22.0033 50.3164C22.1955 50.4879 22.3916 50.6632 22.5914 50.8385C22.7856 51.0251 23.0231 51.1703 23.2427 51.3418C23.4708 51.5021 23.6942 51.6811 23.9345 51.8376C24.1852 51.9865 24.4359 52.1383 24.6904 52.2938C24.8186 52.3701 24.9468 52.4483 25.075 52.5238C25.2116 52.5907 25.3483 52.6557 25.4868 52.7236C25.763 52.8555 26.0411 52.9894 26.3266 53.126C26.6207 53.2354 26.9195 53.3456 27.2202 53.4559C27.371 53.5106 27.5199 53.5709 27.6763 53.619C27.8347 53.6614 27.9902 53.7047 28.1467 53.7472C28.4652 53.8273 28.7782 53.9328 29.1052 53.9922C30.4116 54.2665 31.7924 54.3259 33.1826 54.2448C34.5869 54.1147 35.9093 53.7924 37.2958 53.2655C38.5625 52.7273 39.8227 52.0091 40.9047 51.1382C41.9641 50.2334 42.9189 49.2353 43.671 48.1316C43.8642 47.8611 44.0179 47.567 44.1941 47.2908C44.2771 47.1514 44.36 47.0109 44.4439 46.8714C44.5231 46.73 44.5881 46.5811 44.6597 46.4397C44.7992 46.1494 44.9387 45.8648 45.0744 45.5802C45.1838 45.288 45.2912 44.9967 45.4006 44.7102C45.4543 44.5651 45.508 44.4227 45.558 44.2823C45.5985 44.1343 45.6371 43.9911 45.6767 43.8459C45.754 43.5575 45.8304 43.2766 45.9048 42.9967C45.9708 42.7139 46.0085 42.4331 46.0584 42.1578C46.099 41.8817 46.1725 41.615 46.1838 41.3454C46.2074 41.0777 46.2243 40.8138 46.2451 40.5584C46.2639 40.302 46.2903 40.0504 46.2762 39.8044C46.2639 39.3161 46.2903 38.8458 46.2413 38.4113C46.1932 37.973 46.1499 37.563 46.1065 37.1851C46.0264 36.8118 45.9585 36.4697 45.8935 36.1624C45.8652 36.0069 45.8313 35.8599 45.803 35.7213C45.7625 35.5856 45.7239 35.4584 45.688 35.3405C45.6183 35.104 45.5551 34.9013 45.508 34.7402C45.4062 34.415 45.3553 34.2378 45.3553 34.2378Z" fill="#D8E2F3"/>
<path d="M43.1654 30.8208C43.1654 31.4735 42.6319 32.0007 41.9808 32.0007C41.3312 32.0007 40.8025 31.4735 40.8025 30.8208C40.8025 30.1665 41.3312 29.6362 41.9808 29.6362C42.6319 29.6362 43.1654 30.1665 43.1654 30.8208Z" fill="#D8E2F3"/>
<path d="M23.3814 49.419C23.3814 50.0166 22.8994 50.4996 22.303 50.4996C21.708 50.4996 21.2231 50.0166 21.2231 49.419C21.2231 48.8214 21.708 48.3413 22.303 48.3413C22.8994 48.3413 23.3814 48.8214 23.3814 49.419Z" fill="#D8E2F3"/>
<path d="M6.93097 29.4124L3.31909 29.7317L4.99193 48.5929L8.6038 48.2704C10.127 48.1361 10.9876 43.8052 10.526 38.5977C10.0635 33.3894 8.45421 29.2773 6.93097 29.4124Z" fill="#D8E2F3"/>
<path d="M3.49834 29.8829L5.14062 48.4135L8.58843 48.1079C9.23665 48.0492 9.80364 47.0278 10.1471 45.3035C10.5082 43.4915 10.5838 41.1158 10.3602 38.6114C9.88165 33.206 8.23778 29.5756 7.00245 29.5756C6.98476 29.5756 6.96385 29.5756 6.94455 29.5773L3.49834 29.8829ZM4.84143 48.7722L3.13965 29.5837L6.91479 29.2475C8.54178 29.1092 10.2178 33.2502 10.6907 38.5824C10.9167 41.1166 10.8371 43.5253 10.4712 45.3694C10.0924 47.2755 9.43369 48.3629 8.61657 48.436L4.84143 48.7722Z" fill="#D8E2F3"/>
<path d="M9.97402 36.4409C9.94989 36.2085 9.90485 35.9624 9.86625 35.6994C9.83005 35.4364 9.77376 35.1613 9.71987 34.8766C9.67162 34.5903 9.59522 34.2992 9.52927 34.0008C9.45608 33.7065 9.37727 33.4049 9.28961 33.1081C9.19631 32.8105 9.10785 32.5129 8.99847 32.2274C8.90115 31.9371 8.7773 31.6604 8.66551 31.3918C8.53763 31.1272 8.42182 30.8691 8.28349 30.6366C8.15883 30.3978 8.00683 30.1879 7.87735 29.99C7.72776 29.8059 7.6031 29.6257 7.45834 29.4914C7.42456 29.456 7.39158 29.4287 7.35781 29.3965L6.92432 29.4343C7.01922 29.5026 7.1286 29.5823 7.24602 29.7045C7.38113 29.8227 7.50739 29.9868 7.65457 30.1573C7.78405 30.3431 7.93365 30.5369 8.06313 30.7653C8.20709 30.9841 8.32692 31.235 8.46042 31.4875C8.57865 31.7481 8.70974 32.0135 8.8167 32.2966C8.93252 32.5757 9.03144 32.866 9.13197 33.1571C9.22848 33.4491 9.31695 33.7426 9.40059 34.0354C9.47378 34.3273 9.55983 34.6144 9.61854 34.8983C9.68047 35.179 9.74561 35.4525 9.79145 35.7114C9.8397 35.9728 9.89118 36.2181 9.92415 36.4473C9.99734 36.9033 10.0504 37.287 10.0794 37.5548C10.1115 37.8226 10.1316 37.9778 10.1316 37.9778C10.1316 37.9778 10.1164 37.8226 10.093 37.5548C10.0729 37.2837 10.0335 36.8993 9.97402 36.4409Z" fill="#264673"/>
<path d="M9.02497 36.5244C9.00084 36.2944 8.95661 36.0459 8.9172 35.7829C8.88101 35.5199 8.82391 35.2456 8.76922 34.9585C8.72096 34.6746 8.64617 34.3827 8.58102 34.0851C8.50703 33.7875 8.42661 33.49 8.34136 33.1908C8.24807 32.8948 8.1596 32.5972 8.04942 32.3109C7.9513 32.0214 7.82745 31.7447 7.71566 31.4761C7.58778 31.2123 7.47197 30.9518 7.33203 30.7209C7.20818 30.4829 7.05939 30.2738 6.9291 30.0743C6.77871 29.8893 6.65325 29.7116 6.50849 29.5757C6.47632 29.5387 6.44173 29.5122 6.40876 29.48L5.97607 29.517C6.06937 29.5869 6.17955 29.6658 6.29697 29.788C6.43369 29.9054 6.55915 30.0735 6.70552 30.2416C6.83581 30.4266 6.9854 30.6228 7.11489 30.8496C7.25724 31.0684 7.37787 31.3185 7.51218 31.571C7.6288 31.8324 7.75989 32.0986 7.86685 32.3817C7.98427 32.6592 8.08078 32.9511 8.18292 33.2414C8.27943 33.5326 8.3687 33.8277 8.44993 34.1181C8.52473 34.4124 8.61078 34.6987 8.66869 34.981C8.73142 35.2641 8.79657 35.536 8.84241 35.7965C8.88986 36.0579 8.94213 36.3024 8.97269 36.5324C9.04909 36.9884 9.10057 37.3696 9.12952 37.6383C9.1633 37.9093 9.18019 38.0605 9.18019 38.0605C9.18019 38.0605 9.16732 37.9069 9.144 37.6383C9.1247 37.3688 9.08448 36.9844 9.02497 36.5244Z" fill="#264673"/>
<path d="M7.9676 35.8672C7.93141 35.6026 7.87592 35.3307 7.82203 35.0436C7.77378 34.7573 7.69738 34.4662 7.63143 34.1694C7.55905 33.8726 7.47782 33.5735 7.39096 33.2751C7.29847 32.9783 7.21081 32.6799 7.10063 32.3952C7.00251 32.1049 6.87865 31.8307 6.76767 31.5596C6.63899 31.295 6.52318 31.0361 6.38485 30.806C6.25858 30.5664 6.10898 30.3565 5.9803 30.1586C5.83152 29.9728 5.70445 29.7951 5.55888 29.6592C5.52591 29.6222 5.49213 29.5948 5.45996 29.5635L5.02808 29.6013C5.12056 29.6712 5.22994 29.7501 5.34897 29.8723C5.48248 29.9897 5.61035 30.157 5.75592 30.3275C5.8854 30.5117 6.0358 30.7047 6.16609 30.9331C6.30844 31.1535 6.42827 31.4028 6.56178 31.6545C6.68 31.9167 6.81109 32.1829 6.91806 32.4644C7.03548 32.7435 7.13199 33.0346 7.23332 33.3241C7.32983 33.6161 7.41911 33.9112 7.50195 34.2032C7.57594 34.4951 7.66038 34.783 7.7199 35.0653C7.78182 35.3484 7.84616 35.6195 7.892 35.88C7.94026 36.1414 7.99414 36.3867 8.02551 36.6167C8.09869 37.0727 8.15258 37.454 8.18153 37.7226C8.2137 37.9912 8.2322 38.144 8.2322 38.144C8.2322 38.144 8.21853 37.9912 8.19359 37.7218C8.1759 37.4523 8.13489 37.0679 8.07618 36.6079C8.05205 36.3771 8.00701 36.131 7.9676 35.8672Z" fill="#264673"/>
<path d="M7.01933 35.9515C6.98313 35.6885 6.92603 35.4134 6.87295 35.1279C6.82309 34.8424 6.74749 34.5513 6.68235 34.2537C6.60836 33.9569 6.52954 33.6569 6.44188 33.3586C6.34939 33.0634 6.26093 32.7666 6.15155 32.4803C6.05343 32.1892 5.92877 31.9133 5.81698 31.6431C5.68991 31.3809 5.5749 31.1212 5.43577 30.8895C5.31031 30.6507 5.16071 30.4408 5.03042 30.2421C4.88083 30.0579 4.75537 29.8786 4.61061 29.7443C4.57764 29.7089 4.54386 29.6791 4.51008 29.647L4.07739 29.6848C4.17069 29.7539 4.28087 29.8344 4.39829 29.9566C4.53582 30.074 4.66047 30.2397 4.80684 30.4094C4.93633 30.5968 5.08672 30.7914 5.2154 31.0174C5.35856 31.2362 5.47919 31.4871 5.6127 31.7396C5.73092 32.001 5.86121 32.2664 5.96898 32.5495C6.0856 32.8286 6.18291 33.1181 6.28344 33.4084C6.38075 33.7004 6.46842 33.9955 6.55206 34.2859C6.62685 34.5802 6.7113 34.8657 6.77082 35.1496C6.83274 35.4319 6.89789 35.7029 6.94373 35.9643C6.99118 36.2249 7.04426 36.4702 7.07643 36.6986C7.15042 37.1562 7.2043 37.539 7.23084 37.8069C7.26382 38.0763 7.28312 38.2299 7.28312 38.2299C7.28312 38.2299 7.26945 38.0763 7.24613 37.8061C7.22602 37.5358 7.18661 37.1514 7.1271 36.6922C7.10297 36.4606 7.05713 36.2153 7.01933 35.9515Z" fill="#264673"/>
<path d="M3.49834 29.8829L5.14062 48.4135L8.58843 48.1079C9.23665 48.0492 9.80364 47.0278 10.1471 45.3035C10.5082 43.4915 10.5838 41.1158 10.3602 38.6114C9.88165 33.206 8.23778 29.5756 7.00245 29.5756C6.98476 29.5756 6.96385 29.5756 6.94455 29.5773L3.49834 29.8829ZM4.84143 48.7722L3.13965 29.5837L6.91479 29.2475C8.54178 29.1092 10.2178 33.2502 10.6907 38.5824C10.9167 41.1166 10.8371 43.5253 10.4712 45.3694C10.0924 47.2755 9.43369 48.3629 8.61657 48.436L4.84143 48.7722Z" fill="#D8E2F3"/>
<path d="M6.91468 38.917C7.37471 44.1253 6.51497 48.4577 4.99172 48.5929C3.46767 48.7272 1.85677 44.615 1.39593 39.4067C0.933489 34.1992 1.79484 29.8676 3.31889 29.7316C4.84133 29.5989 6.45143 33.7103 6.91468 38.917Z" fill="#264673"/>
<path d="M3.39207 29.8939C3.37277 29.8939 3.35186 29.8955 3.33175 29.898C2.68514 29.9551 2.11654 30.9764 1.77473 32.6999C1.41523 34.5127 1.33883 36.8909 1.5608 39.3921C2.04818 44.8835 3.73709 48.5468 4.97644 48.427C5.62386 48.3683 6.19246 47.3469 6.53507 45.6242C6.89457 43.813 6.97258 41.4365 6.749 38.9329C6.26967 33.5259 4.62659 29.8939 3.39207 29.8939ZM4.91853 48.7608C3.31567 48.7608 1.69591 44.6583 1.23106 39.421C1.00667 36.8869 1.08388 34.4789 1.45062 32.6364C1.82942 30.7304 2.4873 29.6398 3.30441 29.5674C4.9306 29.4275 6.60504 33.5693 7.07874 38.9015C7.30313 41.4365 7.22592 43.8468 6.85838 45.6885C6.47958 47.5954 5.82331 48.6852 5.0062 48.7559C4.97644 48.7576 4.94748 48.7608 4.91853 48.7608Z" fill="#D8E2F3"/>
<path d="M6.91468 38.917C7.37471 44.1253 6.51497 48.4577 4.99172 48.5929C3.46767 48.7272 1.85677 44.615 1.39593 39.4067C0.933489 34.1992 1.79484 29.8676 3.31889 29.7316C4.84133 29.5989 6.45143 33.7103 6.91468 38.917Z" fill="#264673"/>
<path d="M3.39207 29.8939C3.37277 29.8939 3.35186 29.8955 3.33175 29.898C2.68514 29.9551 2.11654 30.9764 1.77473 32.6999C1.41523 34.5127 1.33883 36.8909 1.5608 39.3921C2.04818 44.8835 3.73709 48.5468 4.97644 48.427C5.62386 48.3683 6.19246 47.3469 6.53507 45.6242C6.89457 43.813 6.97258 41.4365 6.749 38.9329C6.26967 33.5259 4.62659 29.8939 3.39207 29.8939ZM4.91853 48.7608C3.31567 48.7608 1.69591 44.6583 1.23106 39.421C1.00667 36.8869 1.08388 34.4789 1.45062 32.6364C1.82942 30.7304 2.4873 29.6398 3.30441 29.5674C4.9306 29.4275 6.60504 33.5693 7.07874 38.9015C7.30313 41.4365 7.22592 43.8468 6.85838 45.6885C6.47958 47.5954 5.82331 48.6852 5.0062 48.7559C4.97644 48.7576 4.94748 48.7608 4.91853 48.7608Z" fill="#D8E2F3"/>
<path d="M5.31017 39.0468C5.5796 42.1261 5.19177 44.6755 4.44449 44.7435C3.69662 44.8103 2.87262 42.3693 2.6038 39.2906C2.33437 36.2132 2.721 33.6625 3.46887 33.5951C4.21554 33.5271 5.04074 35.9681 5.31017 39.0468Z" fill="#D8E2F3"/>
<path d="M3.33785 33.4985C2.69611 33.5546 2.21304 35.9719 2.51423 39.3534C2.8064 42.6659 3.69838 44.9742 4.31431 44.9742L4.3343 44.9735C4.57358 44.9523 4.89606 44.495 5.08504 43.2754C5.25789 42.1531 5.27594 40.6781 5.13857 39.1186C4.84124 35.7578 3.96603 33.4985 3.33785 33.4985ZM4.31431 45.2399C3.31076 45.2399 2.50069 42.2183 2.24851 39.3766C1.99053 36.4672 2.26915 33.3269 3.29334 33.236C4.31238 33.1425 5.14631 36.2124 5.403 39.0961C5.54296 40.6743 5.52296 42.1731 5.34624 43.3173C5.21596 44.1641 4.93734 45.1857 4.35817 45.2373C4.34269 45.2393 4.3285 45.2399 4.31431 45.2399Z" fill="#D8E2F3"/>
<path d="M6.51804 40.0396C6.51804 40.0396 6.57836 40.5905 6.58238 41.4277C6.59364 42.2625 6.547 43.378 6.41027 44.4854C6.33789 45.0404 6.24379 45.5913 6.11109 46.1004C5.97759 46.6078 5.81513 47.0783 5.57949 47.4435C5.46689 47.6268 5.32454 47.7788 5.1661 47.8713C5.0133 47.9767 4.83958 47.9839 4.71332 47.9839C4.58544 47.963 4.49134 47.9292 4.43424 47.8938C4.37473 47.8641 4.34497 47.8456 4.34497 47.8456C4.34497 47.8456 4.38116 47.8544 4.44389 47.8673C4.50582 47.889 4.59992 47.8922 4.71492 47.8938C4.82832 47.8794 4.96424 47.8512 5.08648 47.7507C5.21355 47.6614 5.3358 47.5231 5.44196 47.3534C5.66474 47.0164 5.828 46.5588 5.96231 46.061C6.09742 45.5623 6.19473 45.0154 6.27194 44.4661C6.43359 43.3707 6.49552 42.2593 6.52528 41.4261C6.55504 40.5921 6.51804 40.0396 6.51804 40.0396Z" fill="#D8E2F3"/>
<path d="M56.9312 29.4134L60.543 29.7327L58.871 48.5939L55.2591 48.2714C53.7367 48.1371 52.8745 43.8062 53.3362 38.5987C53.7954 33.3904 55.4071 29.2783 56.9312 29.4134Z" fill="#D8E2F3"/>
<path d="M56.8585 29.5758C55.6223 29.5758 53.9793 33.2061 53.4991 38.6115C53.0085 44.1552 54.0187 47.997 55.2717 48.108L58.7195 48.4136L60.3642 29.883L56.9148 29.5774C56.8947 29.5758 56.877 29.5758 56.8585 29.5758ZM59.0195 48.7723L55.2427 48.4362C53.6037 48.2906 52.6933 43.9613 53.1694 38.5825C53.6439 33.2504 55.3103 29.1069 56.9437 29.2476L60.7213 29.5838L59.0195 48.7723Z" fill="#D8E2F3"/>
<path d="M53.8853 36.4409C53.9103 36.2085 53.9561 35.9624 53.9939 35.6994C54.0293 35.4364 54.088 35.1613 54.1419 34.8766C54.1886 34.5903 54.2658 34.2992 54.3317 34.0008C54.4049 33.7065 54.4837 33.4049 54.5706 33.1081C54.6623 32.8105 54.7531 32.5129 54.8625 32.2274C54.959 31.9371 55.0861 31.6604 55.1955 31.3918C55.3233 31.1272 55.4375 30.8691 55.5783 30.6366C55.7038 30.3978 55.8533 30.1879 55.982 29.99C56.1316 29.8059 56.2579 29.6257 56.4034 29.4914C56.434 29.456 56.4686 29.4287 56.5008 29.3965L56.9343 29.4343C56.8418 29.5026 56.7308 29.5823 56.6166 29.7045C56.4782 29.8227 56.3536 29.9868 56.2056 30.1573C56.0753 30.3431 55.9265 30.5369 55.797 30.7653C55.6563 30.9841 55.5341 31.235 55.4006 31.4875C55.2823 31.7481 55.1512 32.0135 55.0435 32.2966C54.9277 32.5757 54.8287 32.866 54.7282 33.1571C54.6341 33.4491 54.5432 33.7426 54.4604 34.0354C54.3872 34.3273 54.3003 34.6144 54.244 34.8983C54.1797 35.179 54.1146 35.4525 54.0695 35.7114C54.0221 35.9728 53.9682 36.2181 53.9368 36.4473C53.862 36.9033 53.8105 37.287 53.784 37.5548C53.7502 37.8226 53.7285 37.9778 53.7285 37.9778C53.7285 37.9778 53.7446 37.8226 53.7679 37.5548C53.788 37.2837 53.8266 36.8993 53.8853 36.4409Z" fill="#264673"/>
<path d="M54.8358 36.5244C54.8591 36.2944 54.9033 36.0459 54.9419 35.7829C54.9789 35.5199 55.0376 35.2456 55.0891 34.9585C55.1398 34.6746 55.2162 34.3827 55.2813 34.0851C55.3537 33.7875 55.4317 33.49 55.5186 33.1908C55.6111 32.8948 55.7012 32.5972 55.8113 32.3109C55.9087 32.0214 56.0333 31.7447 56.1459 31.4761C56.2714 31.2123 56.3896 30.9518 56.5247 30.7209C56.6518 30.4829 56.8006 30.2738 56.9309 30.0743C57.0812 29.8893 57.2091 29.7116 57.3507 29.5757C57.3828 29.5387 57.4182 29.5122 57.4528 29.48L57.8823 29.517C57.7922 29.5869 57.6804 29.6658 57.5638 29.788C57.4271 29.9054 57.3024 30.0735 57.1544 30.2416C57.0241 30.4266 56.8746 30.6228 56.7451 30.8496C56.6035 31.0684 56.4845 31.3185 56.3486 31.571C56.2312 31.8324 56.1017 32.0986 55.9955 32.3817C55.8749 32.6592 55.7784 32.9511 55.6778 33.2414C55.5805 33.5326 55.4929 33.8277 55.4084 34.1181C55.3352 34.4124 55.25 34.6987 55.1921 34.981C55.1301 35.2641 55.0626 35.536 55.0183 35.7965C54.9717 36.0579 54.917 36.3024 54.8857 36.5324C54.8109 36.9884 54.7594 37.3696 54.7312 37.6383C54.6975 37.9093 54.679 38.0605 54.679 38.0605C54.679 38.0605 54.6918 37.9069 54.7143 37.6383C54.7345 37.3688 54.7755 36.9844 54.8358 36.5244Z" fill="#264673"/>
<path d="M55.8919 35.8672C55.9289 35.6026 55.9868 35.3307 56.0399 35.0436C56.0881 34.7573 56.1637 34.4662 56.2297 34.1694C56.3021 33.8726 56.3841 33.5735 56.4685 33.2751C56.5634 32.9783 56.6511 32.6799 56.7589 32.3952C56.8586 32.1049 56.9825 31.8307 57.0942 31.5596C57.2221 31.295 57.3371 31.0361 57.4771 30.806C57.6009 30.5664 57.7497 30.3565 57.88 30.1586C58.0296 29.9728 58.155 29.7951 58.3014 29.6592C58.332 29.6222 58.3666 29.5948 58.4003 29.5635L58.8314 29.6013C58.7389 29.6712 58.6303 29.7501 58.5145 29.8723C58.3762 29.9897 58.2507 30.157 58.1052 30.3275C57.9741 30.5117 57.8253 30.7047 57.695 30.9331C57.5519 31.1535 57.4328 31.4028 57.2993 31.6545C57.1795 31.9167 57.0508 32.1829 56.9438 32.4644C56.8248 32.7435 56.7291 33.0346 56.6262 33.3241C56.5305 33.6161 56.4404 33.9112 56.36 34.2032C56.2844 34.4951 56.2007 34.783 56.1412 35.0653C56.0777 35.3484 56.0133 35.6195 55.9675 35.88C55.92 36.1414 55.8686 36.3867 55.8364 36.6167C55.7624 37.0727 55.7085 37.454 55.6788 37.7226C55.6482 37.9912 55.6289 38.144 55.6289 38.144C55.6289 38.144 55.6426 37.9912 55.6667 37.7218C55.6868 37.4523 55.7254 37.0679 55.7849 36.6079C55.8091 36.3771 55.8533 36.131 55.8919 35.8672Z" fill="#264673"/>
<path d="M56.8418 35.952C56.8772 35.689 56.9343 35.4139 56.9882 35.1284C57.0397 34.8429 57.1137 34.5518 57.1772 34.2542C57.252 33.9574 57.3308 33.6574 57.4185 33.3591C57.5134 33.0639 57.6003 32.7671 57.7072 32.4808C57.8086 32.1897 57.9308 31.9138 58.0434 31.6436C58.1697 31.3814 58.2863 31.1216 58.427 30.89C58.5501 30.6512 58.7021 30.4413 58.8308 30.2426C58.982 30.0584 59.1074 29.8791 59.2514 29.7448C59.2827 29.7094 59.3165 29.6796 59.3487 29.6475L59.7822 29.6853C59.6897 29.7544 59.5795 29.8349 59.4613 29.9571C59.3254 30.0745 59.2007 30.2402 59.0511 30.4099C58.9241 30.5973 58.772 30.7919 58.6442 31.0179C58.5018 31.2367 58.382 31.4876 58.2477 31.7401C58.1294 32.0015 57.9992 32.2669 57.8938 32.55C57.774 32.8291 57.6775 33.1186 57.5737 33.4089C57.4796 33.7009 57.392 33.996 57.3075 34.2864C57.2327 34.5807 57.1483 34.8662 57.0896 35.1501C57.0284 35.4324 56.9617 35.7034 56.9182 35.9648C56.8692 36.2254 56.8161 36.4707 56.7847 36.6991C56.7116 37.1567 56.6577 37.5395 56.6287 37.8073C56.5957 38.0768 56.5789 38.2304 56.5789 38.2304C56.5789 38.2304 56.5909 38.0768 56.6167 37.8065C56.6335 37.5363 56.677 37.1519 56.7317 36.6927C56.7582 36.461 56.804 36.2157 56.8418 35.952Z" fill="#264673"/>
<path d="M56.8585 29.5758C55.6223 29.5758 53.9793 33.2061 53.4991 38.6115C53.0085 44.1552 54.0187 47.997 55.2717 48.108L58.7195 48.4136L60.3642 29.883L56.9148 29.5774C56.8947 29.5758 56.877 29.5758 56.8585 29.5758ZM59.0195 48.7723L55.2427 48.4362C53.6037 48.2906 52.6933 43.9613 53.1694 38.5825C53.6439 33.2504 55.3103 29.1069 56.9437 29.2476L60.7213 29.5838L59.0195 48.7723Z" fill="#D8E2F3"/>
<path d="M56.9457 38.917C56.4865 44.1253 57.3454 48.4577 58.8703 48.5929C60.3943 48.7272 62.0028 44.615 62.4653 39.4067C62.9261 34.1992 62.0647 29.8676 60.5423 29.7316C59.0183 29.5989 57.4073 33.7103 56.9457 38.917Z" fill="#264673"/>
<path d="M60.4697 29.8944C59.2352 29.8944 57.5897 33.5263 57.1104 38.9333C56.8884 41.4369 56.9656 43.8135 57.3251 45.6246C57.6653 47.3473 58.2371 48.3687 58.8853 48.4274C58.9038 48.4299 58.9231 48.4299 58.9424 48.4299C60.1778 48.4299 61.82 44.7979 62.3018 39.3925C62.7908 33.8513 61.779 30.0086 60.5268 29.8984C60.5083 29.896 60.489 29.8944 60.4697 29.8944ZM58.9424 48.7612C58.9135 48.7612 58.8853 48.758 58.854 48.7564C58.0377 48.6856 57.3798 47.5959 57.0018 45.689C56.6335 43.8473 56.5562 41.4369 56.7822 38.9019C57.2471 33.6663 58.866 29.5654 60.4697 29.5654C60.4987 29.5654 60.5268 29.567 60.5558 29.5678C62.1964 29.7142 63.1068 34.0427 62.6299 39.4215C62.1651 44.6587 60.5437 48.7612 58.9424 48.7612Z" fill="#D8E2F3"/>
<path d="M56.9457 38.917C56.4865 44.1253 57.3454 48.4577 58.8703 48.5929C60.3943 48.7272 62.0028 44.615 62.4653 39.4067C62.9261 34.1992 62.0647 29.8676 60.5423 29.7316C59.0183 29.5989 57.4073 33.7103 56.9457 38.917Z" fill="#264673"/>
<path d="M60.4697 29.8944C59.2352 29.8944 57.5897 33.5263 57.1104 38.9333C56.8884 41.4369 56.9656 43.8135 57.3251 45.6246C57.6653 47.3473 58.2371 48.3687 58.8853 48.4274C58.9038 48.4299 58.9231 48.4299 58.9424 48.4299C60.1778 48.4299 61.82 44.7979 62.3018 39.3925C62.7908 33.8513 61.779 30.0086 60.5268 29.8984C60.5083 29.896 60.489 29.8944 60.4697 29.8944ZM58.9424 48.7612C58.9135 48.7612 58.8853 48.758 58.854 48.7564C58.0377 48.6856 57.3798 47.5959 57.0018 45.689C56.6335 43.8473 56.5562 41.4369 56.7822 38.9019C57.2471 33.6663 58.866 29.5654 60.4697 29.5654C60.4987 29.5654 60.5268 29.567 60.5558 29.5678C62.1964 29.7142 63.1068 34.0427 62.6299 39.4215C62.1651 44.6587 60.5437 48.7612 58.9424 48.7612Z" fill="#D8E2F3"/>
<path d="M60.1511 33.8497C59.5922 33.8497 58.8371 36.0139 58.5813 39.236C58.4628 40.7311 58.4789 42.1452 58.628 43.2211C58.7898 44.3904 59.0678 44.8288 59.2747 44.8492L59.2919 44.8498C59.823 44.8498 60.5921 42.6368 60.8451 39.4611C61.1037 36.2192 60.6867 33.9017 60.1511 33.8497ZM59.2919 45.1045C59.278 45.1045 59.2669 45.1039 59.253 45.1021C58.7548 45.0526 58.5151 44.0732 58.4011 43.2613C58.2509 42.1644 58.2315 40.7274 58.3521 39.2144C58.5718 36.4906 59.2686 33.5938 60.135 33.5938C60.1472 33.5938 60.1595 33.595 60.1717 33.5962C61.0548 33.6834 61.2967 36.694 61.0726 39.4833C60.8546 42.2077 60.1572 45.1045 59.2919 45.1045Z" fill="#D8E2F3"/>
<path d="M58.3488 39.2308C58.112 42.2107 58.4519 44.6779 59.1062 44.7437C59.7601 44.8083 60.481 42.446 60.7162 39.4667C60.9525 36.4885 60.6137 34.0202 59.9588 33.955C59.3055 33.8892 58.5835 36.2514 58.3488 39.2308Z" fill="#D8E2F3"/>
<path d="M57.3427 40.04C57.3427 40.04 57.304 40.5926 57.3354 41.4266C57.3628 42.2598 57.4255 43.3712 57.5888 44.4666C57.6652 45.0159 57.7617 45.5628 57.8984 46.0614C58.0319 46.5593 58.196 47.0169 58.4179 47.3539C58.5233 47.5236 58.6463 47.6619 58.7718 47.7512C58.8965 47.8517 59.0324 47.8798 59.1466 47.8943C59.26 47.8927 59.3549 47.8895 59.4152 47.8678C59.4787 47.8549 59.5133 47.8461 59.5133 47.8461C59.5133 47.8461 59.4828 47.8646 59.4265 47.8943C59.3686 47.9297 59.2745 47.9635 59.1474 47.9844C59.0219 47.9844 58.8474 47.9772 58.6938 47.8718C58.5346 47.7793 58.3946 47.6273 58.2796 47.4439C58.044 47.0788 57.8807 46.6083 57.748 46.1009C57.6153 45.5918 57.5212 45.0409 57.4496 44.4859C57.3121 43.3785 57.2646 42.263 57.2767 41.4282C57.2815 40.591 57.3427 40.04 57.3427 40.04Z" fill="#D8E2F3"/>
<path d="M11.8706 27.8378C11.8706 27.8378 11.9556 27.607 12.1063 27.2054C12.1802 27.0024 12.2824 26.7627 12.4139 26.4908C12.5414 26.2144 12.676 25.9005 12.8641 25.5758C13.0442 25.2485 13.2365 24.8916 13.4682 24.5267C13.6887 24.1555 13.9396 23.7736 14.2148 23.3881C14.4769 22.9955 14.7885 22.6091 15.091 22.2102C15.4148 21.8265 15.7254 21.4231 16.0734 21.0484C16.4134 20.6638 16.7705 20.2926 17.1277 19.9322C17.4808 19.569 17.8582 19.2336 18.2163 18.9054C18.9478 18.2587 19.6813 17.7033 20.3299 17.2517C20.6526 17.0254 20.9703 16.8402 21.2445 16.6694C21.5308 16.5138 21.7807 16.3787 21.9861 16.2687C22.4161 16.0773 22.662 15.9673 22.662 15.9673C22.662 15.9673 22.4303 16.0979 22.0276 16.3286C21.8374 16.4529 21.6037 16.6059 21.3356 16.7803C21.0816 16.9681 20.7872 17.1738 20.4796 17.4108C20.1761 17.6532 19.8402 17.909 19.5114 18.2024C19.1704 18.4877 18.8375 18.8079 18.4824 19.1317C18.1334 19.4599 17.7792 19.8078 17.4322 20.1656C17.0822 20.5252 16.7331 20.8936 16.3992 21.2747C16.0522 21.6441 15.7406 22.0403 15.4148 22.4168C15.1163 22.8104 14.7915 23.1797 14.5214 23.5617C14.2432 23.9391 13.967 24.304 13.7332 24.66C13.4813 25.0088 13.2709 25.3531 13.0736 25.6706C12.8702 25.9864 12.7073 26.2824 12.5546 26.5445C12.3998 26.8012 12.2753 27.0346 12.1832 27.2305C11.9829 27.6178 11.8706 27.8378 11.8706 27.8378Z" fill="#D8E2F3"/>
<path d="M9.7124 28.9171C9.7124 28.9171 9.79717 28.6291 9.9483 28.1263C9.98609 28.0002 10.03 27.8605 10.077 27.7105C10.1342 27.5597 10.1954 27.3995 10.2628 27.2256C10.3997 26.8831 10.5324 26.486 10.7448 26.0744C10.943 25.6619 11.1472 25.2069 11.4137 24.7476C11.5414 24.5149 11.6731 24.2763 11.8089 24.0301C11.9591 23.794 12.1122 23.5511 12.2705 23.3032C12.5728 22.8055 12.9517 22.3215 13.304 21.8145C13.497 21.569 13.69 21.3202 13.8861 21.0722C14.078 20.8217 14.2792 20.5771 14.4927 20.3368C14.7061 20.0982 14.9205 19.8613 15.133 19.6219C15.3597 19.3926 15.5833 19.1634 15.8059 18.9367C16.0245 18.705 16.2614 18.4919 16.4912 18.2772C16.725 18.0667 16.9425 17.8477 17.1815 17.65C17.6492 17.2486 18.1087 16.8694 18.5816 16.5379C19.0309 16.1903 19.5017 15.9022 19.9214 15.6253C20.3503 15.3585 20.7659 15.1396 21.1325 14.9427C21.5155 14.7689 21.8402 14.607 22.12 14.4911C22.6919 14.2874 23.0218 14.1689 23.0218 14.1689C23.0218 14.1689 22.7072 14.3087 22.1578 14.5524C21.8933 14.6836 21.5798 14.8592 21.2183 15.0526C20.8711 15.2674 20.48 15.5068 20.0664 15.7812C19.663 16.071 19.2147 16.3692 18.7858 16.7271C18.3395 17.068 17.9065 17.4634 17.446 17.8596C17.2142 18.0565 17.0018 18.2755 16.774 18.4859C16.5504 18.6981 16.3206 18.9146 16.1082 19.1447C15.8917 19.3705 15.6732 19.5989 15.4546 19.8298C15.2484 20.0658 15.04 20.3053 14.8327 20.5422C14.6162 20.7774 14.4181 21.0177 14.222 21.2623C14.0249 21.506 13.8289 21.748 13.6359 21.9891C13.2785 22.486 12.8955 22.9615 12.5871 23.4506C12.4268 23.6926 12.2675 23.9295 12.1122 24.1613C11.9682 24.3982 11.8273 24.6308 11.6895 24.8566C11.4015 25.304 11.1789 25.7454 10.9624 26.1511C10.7367 26.5524 10.5743 26.9333 10.4099 27.2665C10.3313 27.4353 10.2567 27.5912 10.1883 27.7369C10.1301 27.8852 10.0739 28.0215 10.0259 28.1434C9.82371 28.6351 9.7124 28.9171 9.7124 28.9171Z" fill="#D8E2F3"/>
<path d="M47.9599 66.6836C47.9599 66.6836 47.6752 66.7359 47.1758 66.8292C46.6731 66.916 45.967 67.0544 45.1089 67.1943C44.677 67.2675 44.2153 67.3447 43.7239 67.4259C43.2358 67.5208 42.709 67.5562 42.1669 67.6141C41.0844 67.7227 39.9295 67.8385 38.7738 67.9535C37.6157 67.9993 36.4552 68.0452 35.3686 68.087C34.8274 68.1047 34.3014 68.1361 33.8028 68.1208C33.3041 68.1127 32.8328 68.1047 32.401 68.0967C31.53 68.0854 30.8053 68.0548 30.2986 68.0428C29.7904 68.0251 29.5024 68.013 29.5024 68.013C29.5024 68.013 29.7912 68.0002 30.2986 67.9792C30.8061 67.9656 31.5299 67.9294 32.3985 67.9141C32.8288 67.9028 33.3009 67.8908 33.7971 67.8795C34.2933 67.8755 34.8185 67.82 35.3598 67.7991C36.4423 67.7452 37.5964 67.6841 38.7513 67.6238C39.9014 67.5232 41.0538 67.4251 42.1331 67.3318C42.672 67.2731 43.198 67.2643 43.6886 67.1895C44.184 67.1259 44.6488 67.0656 45.0807 67.0117C45.9429 66.8999 46.6627 66.8284 47.1653 66.7656C47.6696 66.7126 47.9599 66.6836 47.9599 66.6836Z" fill="#D8E2F3"/>
<path d="M48.0851 66.3169C48.0851 66.3169 47.7932 66.3635 47.2769 66.4432C46.7613 66.5188 46.0246 66.6362 45.1392 66.7528C44.6952 66.8131 44.2151 66.8791 43.706 66.9466C43.2025 67.0246 42.6613 67.0673 42.1039 67.1123C40.986 67.2016 39.7957 67.2997 38.6055 67.3946C38.0087 67.4292 37.4111 67.4332 36.8232 67.4565C36.2386 67.4726 35.6579 67.4879 35.0989 67.5056C34.54 67.5208 34.0003 67.5393 33.4856 67.5321C32.9733 67.5233 32.4908 67.5152 32.0428 67.5056C31.1461 67.4911 30.4021 67.4597 29.8794 67.4485C29.359 67.4259 29.0623 67.4147 29.0623 67.4147C29.0623 67.4147 29.359 67.4034 29.8794 67.3841C30.4029 67.3696 31.1461 67.3359 32.0396 67.3214C32.4859 67.3109 32.9709 67.3013 33.4832 67.2916C33.9939 67.2788 34.5344 67.2353 35.0933 67.2201C35.6507 67.1943 36.2241 67.1718 36.812 67.1477C37.3959 67.1203 37.9902 67.1042 38.5861 67.0648C39.7732 66.9836 40.9611 66.904 42.075 66.8284C42.6307 66.7842 43.1704 66.7681 43.6811 66.7077C44.1893 66.6595 44.6711 66.6137 45.1175 66.5686C46.0053 66.481 46.7509 66.4271 47.2704 66.3796C47.7916 66.341 48.0851 66.3169 48.0851 66.3169Z" fill="#D8E2F3"/>
<path d="M48.0922 66.0811C48.0922 66.0811 47.793 66.1148 47.2606 66.1743C46.7314 66.2266 45.9754 66.3143 45.065 66.3947C44.6122 66.4373 44.12 66.4824 43.5989 66.5314C43.0801 66.5837 42.526 66.6167 41.959 66.6505C40.8178 66.7156 39.6002 66.7856 38.3849 66.8604C37.1673 66.8885 35.9513 66.9175 34.8093 66.9464C34.2374 66.9593 33.6849 66.9746 33.1638 66.9633C32.6394 66.9569 32.1448 66.9505 31.688 66.9464C30.776 66.9384 30.0127 66.9094 29.4827 66.8998C28.9495 66.8821 28.6455 66.8724 28.6455 66.8724C28.6455 66.8724 28.9495 66.8604 29.4827 66.8346C30.0127 66.8202 30.7744 66.7799 31.6872 66.7598C32.1416 66.7494 32.6362 66.7357 33.1565 66.7228C33.6809 66.7124 34.231 66.6722 34.802 66.6593C35.9416 66.6183 37.1569 66.5732 38.3705 66.529C39.5849 66.4735 40.8001 66.4164 41.9397 66.3633C42.5075 66.3312 43.0592 66.3255 43.5804 66.291C44.1031 66.2628 44.5962 66.2371 45.053 66.2097C45.9642 66.1607 46.7242 66.1373 47.2566 66.11C47.789 66.0915 48.0922 66.0811 48.0922 66.0811Z" fill="#D8E2F3"/>
<path d="M29.6992 1.12451H34.6882L36.0488 19.6497C36.0488 19.6497 33.7403 20.3691 32.1937 20.3691C30.6471 20.3691 28.3386 19.6497 28.3386 19.6497L29.6992 1.12451Z" fill="#264673"/>
<path fill-rule="evenodd" clip-rule="evenodd" d="M30.5753 0.5H31.8343L32.0142 18.1259C32.0142 18.1259 32.0142 18.1259 32.194 18.3058C32.3739 18.1259 32.3739 18.1259 32.3739 18.1259L32.5538 0.5H33.8127C33.8101 0.629808 35.0934 0.825801 35.2516 0.859712C35.2516 0.859712 36.1057 16.4076 36.1057 17.8257C36.1057 19.2438 38.1293 20.1043 38.1293 20.1043C38.1293 20.1043 35.2516 21.3633 32.194 21.3633C29.1365 21.3633 26.2588 20.1043 26.2588 20.1043C26.2588 20.1043 28.2821 19.2438 28.2821 17.8257C28.2821 16.4076 29.1365 0.859712 29.1365 0.859712C29.2948 0.82577 30.578 0.630018 30.5753 0.5ZM29.7924 5.17061C29.7068 9.9038 29.5861 16.7408 29.5861 17.6466C29.5861 19.0497 28.7168 19.5175 28.7168 19.5175C28.7168 19.5175 30.8251 20.0093 32.1936 20.0093C33.562 20.0093 35.671 19.5175 35.671 19.5175C35.671 19.5175 34.8018 19.0497 34.8018 17.6466C34.8018 16.74 34.6808 9.89172 34.5952 5.15807C34.5004 9.87704 34.3671 16.6776 34.3671 17.6011C34.3671 19.0341 34.688 19.1101 34.688 19.1101C34.688 19.1101 33.334 19.4698 32.1936 19.4698C31.0532 19.4698 29.6991 19.1101 29.6991 19.1101C29.6991 19.1101 30.0207 19.0341 30.0207 17.6011C30.0207 16.6784 29.8874 9.88907 29.7924 5.17061Z" fill="#D8E2F3"/>
<circle cx="33.9928" cy="41.6866" r="8.45324" fill="#264673"/>
<path d="M22.7648 42.2265C20.3476 34.4424 27.8691 28.4463 34.5325 30.9211C27.0715 30.7159 22.9243 34.1205 22.7648 42.2265Z" fill="#264673"/>
</svg>
