<svg width="65" height="100" viewBox="0 0 65 100" fill="none" xmlns="http://www.w3.org/2000/svg">
<path d="M52.1732 65.7653V63.4684H11.6609V66.1578C18.5364 69.5461 47.7322 68.7507 52.1732 65.7653Z" fill="#ECF1F9"/>
<path d="M12.1552 65.8418C15.0738 67.1197 21.8424 67.8749 30.4221 67.8765C30.4221 67.8765 30.4237 67.8765 30.4245 67.8765C40.2122 67.8765 49.1844 66.8583 51.6751 65.4863V63.9638H12.1552V65.8418ZM30.4237 68.8698C30.4221 68.8698 30.4237 68.8698 30.4221 68.8698C21.4129 68.8698 14.3194 68.0245 11.441 66.6034C11.2697 66.5213 11.1636 66.346 11.1636 66.1578V63.4684C11.1636 63.1958 11.3872 62.9746 11.6606 62.9746H52.1729C52.4464 62.9746 52.6692 63.1958 52.6692 63.4684V65.7654C52.6692 65.9318 52.5847 66.0838 52.4496 66.1771C49.6991 68.0269 39.1031 68.8698 30.4237 68.8698Z" fill="#28518A"/>
<path d="M54.6341 66.8173L52.2793 65.7629C47.8398 68.7491 18.6416 69.5461 11.7661 66.157L9.45068 67.6449C9.64853 98.0736 57.1554 97.0779 54.6341 66.8173Z" fill="#ECF1F9"/>
<path d="M9.9502 67.9111C10.1858 82.7406 21.7943 89.4971 32.5415 89.4971C39.1822 89.4971 45.2719 87.0176 49.2497 82.6948C52.9179 78.7097 54.6133 73.3374 54.1629 67.1503L52.3147 66.3227C49.232 68.0712 38.9755 68.8666 30.5285 68.8682C21.7791 68.8682 14.832 68.0696 11.8048 66.72L9.9502 67.9111ZM32.5415 90.4896C21.2523 90.4896 9.05668 83.3422 8.95534 67.6465C8.95374 67.4776 9.03979 67.32 9.18294 67.2251L11.4976 65.7388C11.6447 65.6448 11.8289 65.6335 11.9866 65.7099C14.7339 67.0659 21.6657 67.8749 30.5285 67.8749C40.6322 67.8749 49.865 66.79 52.0019 65.352C52.145 65.2555 52.3244 65.241 52.4804 65.311L54.8377 66.3629C55.0033 66.4393 55.1135 66.5978 55.1304 66.7763C55.6789 73.372 53.8983 79.1079 49.9816 83.3663C45.8148 87.8935 39.458 90.4896 32.5415 90.4896Z" fill="#28518A"/>
<path d="M9.63501 61.4433V63.4684C9.63501 64.5879 19.6101 65.4943 31.9167 65.4943C44.2225 65.4943 54.1983 64.5879 54.1983 63.4684V61.4433H9.63501Z" fill="#28518A"/>
<path d="M9.96431 63.4274C10.5892 64.1617 18.4845 65.1654 31.9162 65.1654C45.3464 65.1654 53.2417 64.1617 53.8658 63.4274V61.7763H9.96431V63.4274ZM31.9162 65.8257C25.9552 65.8257 20.3496 65.615 16.1297 65.2313C9.30322 64.6113 9.30322 63.8681 9.30322 63.4684V61.4433C9.30322 61.2608 9.4504 61.1128 9.63457 61.1128H54.1979C54.3813 61.1128 54.5285 61.2608 54.5285 61.4433V63.4684C54.5285 63.8681 54.5285 64.6113 47.7004 65.2313C43.4829 65.615 37.8789 65.8257 31.9162 65.8257Z" fill="#28518A"/>
<path d="M54.1983 61.4432C54.1983 62.5612 44.2225 63.4684 31.9167 63.4684C19.6101 63.4684 9.63501 62.5612 9.63501 61.4432C9.63501 60.3245 19.6101 59.4182 31.9167 59.4182C44.2225 59.4182 54.1983 60.3245 54.1983 61.4432Z" fill="#ECF1F9"/>
<path d="M10.0061 61.4433C10.8804 62.1728 18.7306 63.1403 31.9162 63.1403C45.1011 63.1403 52.9513 62.1728 53.8264 61.4433C52.9513 60.713 45.1011 59.7496 31.9162 59.7496C18.7306 59.7496 10.8804 60.713 10.0061 61.4433ZM31.9162 63.8006C25.9552 63.8006 20.3496 63.589 16.1297 63.207C9.30322 62.5845 9.30322 61.843 9.30322 61.4433C9.30322 61.046 9.30322 60.3029 16.1297 59.6812C20.3496 59.2984 25.9552 59.0869 31.9162 59.0869C37.8789 59.0869 43.4829 59.2984 47.7004 59.6812C54.5285 60.3029 54.5285 61.046 54.5285 61.4433C54.5285 61.843 54.5285 62.5845 47.7004 63.207C43.4829 63.589 37.8789 63.8006 31.9162 63.8006Z" fill="#28518A"/>
<path d="M0.539949 67.2662C0.530298 66.7201 0.976661 66.2746 1.52355 66.2746L7.11535 65.4943C7.11535 75.6648 10.498 92.7245 33.1561 92.7245C40.712 92.7245 46.5444 90.6423 50.4956 86.5351C56.2541 80.549 57.1492 71.2873 56.8886 64.5703L62.5904 65.2878C63.1381 65.2669 63.5989 65.6931 63.6118 66.2424C63.8603 77.2542 60.9291 85.2298 55.264 91.1193C50.0147 96.5737 42.5802 99.3395 33.1561 99.3395C13.0298 99.3395 0.917141 87.863 0.539949 67.2662Z" fill="#ECF1F9"/>
<path d="M1.43885 67.2662C1.80961 87.5325 13.3971 98.5612 33.1559 98.5612C42.4393 98.5612 49.5234 95.8215 54.6763 90.4677C60.2368 84.6851 62.8368 77.0589 62.5899 66.1871C61.1511 65.8274 58.7143 65.7554 57.9137 65.6475C58.1123 72.4145 56.5892 80.9142 50.8525 86.8769C46.8056 91.0863 40.8501 93.2224 33.1559 93.2224C10.4319 93.2224 6.2269 76.9473 6.11511 66.5468C4.99131 66.7154 2.8777 66.9065 1.43885 67.2662ZM33.1559 100C12.7851 100 0.382218 88.1429 0.00020024 67.2662C-0.00623374 66.8705 0.142554 66.4966 0.421628 66.2135C0.700701 65.9296 1.07914 65.8274 1.48002 65.7711L7.11517 64.9997C7.38942 64.9997 7.61139 65.2209 7.61139 65.4943C7.61139 75.4783 10.9305 92.2283 33.1559 92.2283C40.5711 92.2283 46.2836 90.1976 50.14 86.1892C55.7729 80.3303 56.6512 71.2109 56.3914 64.5912C56.3842 64.3177 56.5957 64.0861 56.8691 64.0748L62.5516 64.7475C63.3478 64.7475 64.0105 65.3917 64.029 66.1871C64.2808 77.3299 61.3697 85.4871 55.6209 91.4643C50.2767 97.0192 42.72 100 33.1559 100Z" fill="#28518A"/>
<path d="M63.4892 69.4245C62.4101 72.1223 58.2733 66.7266 58.2733 66.7266C58.4532 72.8417 57.3077 75.3673 56.6426 77.8984C55.5188 82.1749 53.7769 85.072 49.1687 89.1317C51.5543 92.3298 49.3828 95.9937 49.3828 95.9937C53.4624 92.9613 58.4532 87.5899 61.5107 81.1151C62.6987 76.359 63.4892 69.4245 63.4892 69.4245Z" fill="#28518A"/>
<path d="M10.5099 84.4303C14.4966 90.3287 21.0407 94.4882 32.6669 94.4882C40.7134 94.4882 47.7208 92.0924 51.9327 87.9851C57.7088 82.3465 58.9135 71.3637 58.8025 64.4938L56.7316 64.1118C55.3419 64.5879 54.9647 65.4605 54.5288 66.8189C54.4829 66.9701 56.8772 66.6379 56.8772 66.7972C56.8514 73.2247 55.5864 81.1868 50.4432 86.535C46.4919 90.6423 40.6595 92.7245 33.106 92.7245C12.0356 92.7245 7.63231 77.9722 7.1192 67.7293C7.10472 67.4679 9.3534 67.9014 9.34536 67.6465C9.32927 67.147 8.00387 65.0118 7.19641 65.0319C6.55542 65.0463 5.3772 65.4943 5.3772 65.4943C5.46566 70.8048 6.55221 78.5754 10.5099 84.4303Z" fill="#28518A"/>
<path d="M57.7772 34.9827C57.7772 40.372 55.8309 45.824 53.953 51.0966C53.1062 53.4748 52.3051 55.7235 51.71 57.8949L51.6722 58.0228V58.1531L51.6529 60.9374C49.8168 61.3757 42.6831 61.9009 32.0558 61.9009C21.4413 61.9009 14.3085 61.3757 12.4724 60.9374L12.4667 58.5528V58.4105L12.4273 58.2689C11.8716 56.3693 11.1019 54.2308 10.288 51.97C8.30556 46.4392 6.05688 40.1766 6.05688 34.9827C6.05688 20.7234 17.6606 9.12457 31.9134 9.12457C46.1735 9.12457 57.7772 20.7234 57.7772 34.9827Z" fill="#ECF1F9"/>
<path d="M50.7193 57.554V59.8921C48.9057 60.3272 42.5145 60.7914 32.0142 60.7914C21.5268 60.7914 15.4817 60.3272 13.6689 59.8921V57.9137C13.1204 56.0374 11.9568 54.0328 11.1509 51.7986C9.19176 46.3353 7.19407 40.0248 7.19407 34.8921C7.19407 20.8041 18.1125 10.2518 32.1941 10.2518C46.2821 10.2518 56.6545 20.8041 56.6545 34.8921C56.6545 40.2162 55.0959 45.6902 53.2372 50.8993C52.4008 53.2493 51.3064 55.4098 50.7193 57.554ZM32.1941 8.45325C17.5383 8.45325 5.39551 20.2355 5.39551 34.8921C5.39551 42.3298 9.82048 51.8149 11.704 58.2754L11.7113 61.227C11.7113 61.9725 20.8507 62.5789 32.0539 62.5789C43.2619 62.5789 52.5178 61.8966 52.5178 61.1511V57.9137C54.4086 51.0382 58.4531 42.8212 58.4531 34.8921C58.4531 20.2355 46.8579 8.45325 32.1941 8.45325Z" fill="#28518A"/>
<path d="M54.5286 66.8189C54.387 85.5884 43.9857 89.8397 32.2766 89.7046C19.6355 89.5558 9.97967 82.2653 9.34512 67.6465H6.78198C6.78198 75.253 10.7493 92.7816 32.2461 92.7816C55.2636 92.7816 57.0507 76.161 57.0507 66.8189H54.5286Z" fill="#ECF1F9"/>
<path d="M7.11524 67.977C7.15545 70.3383 7.65489 76.9798 11.7252 82.8781C16.1075 89.2301 23.0128 92.4511 32.2464 92.4511C56.307 92.4511 56.7116 73.8038 56.7204 67.1511H54.8546C54.7371 75.5691 52.478 81.7232 48.1423 85.4445C44.5417 88.5352 39.5264 90.0375 32.8117 90.0375C32.8117 90.0375 32.8117 90.0375 32.8109 90.0375C32.6308 90.0375 32.4531 90.0376 32.2761 90.0343C25.7312 89.9571 20.136 87.9907 16.0874 84.3459C11.8313 80.512 9.39447 74.8566 9.02854 67.977H7.11524ZM32.2464 93.1122C22.782 93.1122 15.6933 89.7947 11.1807 83.2545C6.79193 76.8937 6.45093 69.7013 6.45093 67.6465C6.45093 67.4631 6.59972 67.3151 6.78228 67.3151H9.34542C9.52155 67.3151 9.66712 67.4535 9.67435 67.6312C10.2607 81.0871 18.7117 89.2156 32.2834 89.3724C32.4595 89.3749 32.6348 89.3748 32.8109 89.3748C32.8117 89.3748 32.8117 89.3748 32.8117 89.3748C47.2866 89.3748 54.0825 82.2066 54.1983 66.8173C54.2015 66.6364 54.3471 66.49 54.5288 66.49H57.051C57.2327 66.49 57.3799 66.6372 57.3799 66.8189C57.3799 71.346 56.9842 77.9956 53.5605 83.4797C49.5682 89.8695 42.3968 93.1122 32.2464 93.1122Z" fill="#28518A"/>
<path d="M54.5289 66.8189L52.1733 65.7653C49.894 67.7293 32.9138 69.2446 21.2231 67.9856C24.4606 68.705 32.4136 69.875 34.5325 71.7626C36.1512 73.3813 35.7521 81.2949 28.4174 89.2086C34.8922 90.8273 55.0361 90.4676 54.5289 66.8189Z" fill="#28518A"/>
<path d="M55.2933 66.8526C55.2933 66.8526 55.2668 67.332 55.2161 68.1708C55.1614 69.0096 55.093 70.2144 54.9314 71.65C54.7713 73.0823 54.5156 74.7544 54.0435 76.5052C53.8054 77.3778 53.5111 78.2681 53.154 79.148C52.7945 80.0262 52.3562 80.8916 51.86 81.7184C51.367 82.5508 50.775 83.3156 50.155 84.0322C49.5349 84.7544 48.8312 85.3769 48.1403 85.9511C47.4197 86.502 46.7031 87.0031 45.9785 87.402C45.8008 87.5025 45.6214 87.6046 45.4469 87.7044C45.2708 87.7977 45.0882 87.8797 44.9145 87.9674C44.5678 88.1387 44.2293 88.3027 43.8923 88.433C43.2312 88.725 42.6031 88.9268 42.0506 89.1247C41.4892 89.292 41.0002 89.4351 40.5941 89.5453C39.7745 89.7375 39.3057 89.8453 39.3057 89.8453C39.3057 89.8453 39.7729 89.7311 40.5892 89.53C40.9938 89.4166 41.4828 89.2686 42.0401 89.0933C42.5894 88.8955 43.2159 88.6823 43.869 88.3856C44.2068 88.2513 44.5429 88.084 44.8871 87.9086C45.0576 87.821 45.2386 87.7381 45.4147 87.64C45.586 87.5411 45.763 87.439 45.9391 87.3352C46.6581 86.9307 47.3666 86.4216 48.0728 85.8707C48.7548 85.29 49.4456 84.6651 50.0536 83.9437C50.6616 83.2255 51.2415 82.4615 51.7176 81.6331C52.201 80.8063 52.6256 79.949 52.973 79.074C53.3165 78.1982 53.5971 77.3159 53.8288 76.4489C54.2703 74.7093 54.5084 73.0478 54.6523 71.6186C54.7979 70.1911 54.8542 68.9919 54.9008 68.1539C54.9402 67.3151 54.9644 66.8358 54.9644 66.8358L55.2933 66.8526Z" fill="#28518A"/>
<path d="M55.7462 67.0296C55.7462 67.0296 55.7189 67.5089 55.6674 68.3542C55.6127 69.1971 55.5412 70.4042 55.3771 71.8478C55.2162 73.2907 54.9508 74.9707 54.4804 76.7264C54.2367 77.603 53.9423 78.4933 53.5812 79.3804C53.2233 80.2635 52.7802 81.1313 52.2856 81.9637C51.7918 82.8001 51.1998 83.5754 50.5806 84.2984C49.9621 85.0238 49.2608 85.6527 48.5716 86.2415C47.8534 86.798 47.1408 87.3103 46.4202 87.7213C46.236 87.8258 46.0591 87.9304 45.8854 88.0309C45.7092 88.1298 45.5299 88.2111 45.3562 88.3044C45.0071 88.4789 44.6709 88.6486 44.3348 88.7853C43.6737 89.0877 43.0464 89.3016 42.4938 89.5059C41.9301 89.6852 41.4419 89.834 41.0358 89.9498C40.217 90.1541 39.7498 90.2715 39.7498 90.2715C39.7498 90.2715 40.2154 90.1501 41.0309 89.9378C41.4371 89.8171 41.9261 89.6611 42.4842 89.4786C43.0327 89.267 43.6568 89.0467 44.3123 88.7402C44.6468 88.6003 44.983 88.4266 45.3264 88.2456C45.4993 88.154 45.6771 88.0687 45.8516 87.969C46.0245 87.8676 46.1974 87.7607 46.3776 87.6569C47.0917 87.2395 47.8003 86.7216 48.5032 86.161C49.1844 85.5691 49.8736 84.9378 50.4792 84.2067C51.084 83.4837 51.6639 82.7124 52.1408 81.8784C52.6241 81.0508 53.0552 80.1863 53.4011 79.3056C53.7461 78.4258 54.0316 77.5403 54.2608 76.6677C54.7112 74.9209 54.9508 73.2529 55.098 71.8181C55.246 70.3825 55.3055 69.1769 55.3522 68.3357C55.3932 67.4921 55.4157 67.0111 55.4157 67.0111L55.7462 67.0296Z" fill="#28518A"/>
<path d="M56.2225 67.0618C56.2225 67.0618 56.1911 67.5452 56.138 68.392C56.0801 69.2381 55.9989 70.4501 55.8203 71.8953C55.6458 73.3422 55.37 75.0255 54.893 76.7876C54.6485 77.6642 54.3606 78.5642 54.0059 79.4537C53.6489 80.3415 53.2282 81.2214 52.7489 82.0683C52.2559 82.9063 51.705 83.7105 51.105 84.4545C50.4858 85.1839 49.8391 85.8748 49.1427 86.4643C48.8041 86.7691 48.4381 87.0297 48.0955 87.3039C47.732 87.5468 47.3894 87.805 47.0323 88.0205C46.3254 88.4596 45.6241 88.8288 44.9646 89.1336C44.63 89.2792 44.3156 89.4279 44.0075 89.5486C43.6979 89.662 43.4027 89.7746 43.1245 89.8783C42.5679 90.0697 42.0725 90.2105 41.6672 90.3375C40.8452 90.5402 40.3748 90.6584 40.3748 90.6584C40.3748 90.6584 40.8444 90.5378 41.6632 90.3223C42.0653 90.192 42.5599 90.0488 43.1156 89.8494C43.3891 89.7416 43.6842 89.6282 43.9923 89.5108C44.3003 89.3869 44.6123 89.2333 44.9437 89.0853C45.5992 88.7765 46.29 88.4009 46.9913 87.9546C47.3484 87.7382 47.6838 87.476 48.0433 87.2307C48.3794 86.9541 48.7397 86.6927 49.0735 86.3847C49.7579 85.7919 50.3917 85.0995 50.9973 84.3716C51.5868 83.6253 52.1256 82.8243 52.6058 81.9854C53.0746 81.1426 53.4784 80.2651 53.8242 79.3829C54.1668 78.4966 54.441 77.6015 54.6735 76.7289C55.1279 74.9764 55.3828 73.3028 55.5437 71.8632C55.7053 70.4244 55.7729 69.2164 55.8235 68.3727C55.8686 67.5267 55.8919 67.0441 55.8919 67.0441L56.2225 67.0618Z" fill="#28518A"/>
<path d="M56.6577 67.0618C56.6577 67.0618 56.6264 67.5548 56.5733 68.4186C56.5162 69.2848 56.4341 70.5193 56.254 71.9975C56.0779 73.4733 55.7932 75.1911 55.3106 76.9886C55.0629 77.8862 54.7629 78.8014 54.405 79.7102C54.0399 80.6158 53.6072 81.5133 53.1166 82.3771C52.6236 83.2393 52.0478 84.0523 51.439 84.8164C50.8157 85.5676 50.1482 86.2616 49.4468 86.8745C49.0994 87.1825 48.7359 87.4608 48.386 87.7366C48.0161 87.9892 47.6727 88.261 47.3051 88.4781C46.5869 88.9366 45.8768 89.3194 45.2069 89.637C44.8715 89.7866 44.5538 89.9499 44.2361 90.073C43.9233 90.1976 43.6225 90.3126 43.3434 90.4228C42.7772 90.6263 42.273 90.7807 41.8612 90.9166C41.0248 91.1362 40.5479 91.2648 40.5479 91.2648C40.5479 91.2648 41.0248 91.133 41.8572 90.8997C42.2673 90.763 42.7684 90.6038 43.3297 90.393C43.6112 90.2796 43.908 90.1622 44.2208 90.0376C44.5329 89.9081 44.849 89.7456 45.1868 89.5896C45.8519 89.2671 46.554 88.8746 47.2633 88.413C47.6276 88.1926 47.9662 87.9184 48.333 87.6642C48.678 87.386 49.0343 87.1053 49.3793 86.7981C50.0685 86.1788 50.7248 85.4815 51.3368 84.7319C51.9328 83.9655 52.4925 83.1548 52.9735 82.2967C53.4504 81.4345 53.8718 80.5426 54.2225 79.6386C54.5667 78.7331 54.8538 77.8227 55.0935 76.9324C55.5535 75.1413 55.8165 73.4347 55.9773 71.9637C56.1414 70.496 56.209 69.2622 56.258 68.3993C56.3022 67.5379 56.3272 67.0441 56.3272 67.0441L56.6577 67.0618Z" fill="#28518A"/>
<path d="M26.5467 86.6093C26.5467 86.6093 26.7222 86.4735 27.0286 86.233C27.1735 86.1041 27.35 85.9525 27.5467 85.7666C27.731 85.5717 27.9555 85.3688 28.1759 85.1207C28.4006 84.8776 28.6383 84.6089 28.871 84.3117C29.1196 84.0236 29.3414 83.6916 29.5964 83.3662C29.8274 83.0226 30.0797 82.6796 30.303 82.3097C30.4178 82.1244 30.5327 81.9392 30.646 81.7543L30.9658 81.1774C31.184 80.7945 31.3645 80.3912 31.5546 80.0032C31.7126 79.602 31.9067 79.2214 32.0293 78.828C32.0954 78.6328 32.1636 78.4437 32.2319 78.2555C32.2859 78.0652 32.3394 77.8766 32.3903 77.6959C32.5058 77.3367 32.5622 76.9811 32.6267 76.6583C32.6986 76.3357 32.7149 76.0339 32.7528 75.7673C32.7687 75.6329 32.784 75.5077 32.7944 75.3908C32.7935 75.2754 32.7963 75.1657 32.7963 75.0706C32.8088 74.6844 32.8134 74.4604 32.8134 74.4604C32.8134 74.4604 32.8298 74.6827 32.8608 75.0693C32.8689 75.1677 32.8779 75.275 32.8857 75.3923C32.888 75.5108 32.878 75.6382 32.8763 75.7738C32.8617 76.0465 32.8746 76.3547 32.8111 76.6864C32.7606 77.0179 32.7205 77.3809 32.6217 77.754C32.5797 77.9428 32.5375 78.1348 32.4911 78.3343C32.4293 78.5262 32.3682 78.722 32.3036 78.921C32.186 79.3274 32.0065 79.7231 31.8453 80.1331C31.6561 80.53 31.4764 80.9454 31.255 81.333L30.9276 81.9172C30.8082 82.1083 30.6878 82.2946 30.5708 82.481C30.4592 82.6705 30.3326 82.8499 30.2032 83.0241C30.078 83.1982 29.9527 83.3683 29.8294 83.5396C29.5664 83.8666 29.3194 84.1872 29.0526 84.4658C28.8024 84.7583 28.546 85.0151 28.3073 85.2496C28.0765 85.4907 27.8303 85.679 27.6277 85.8604C27.4145 86.0291 27.22 86.1686 27.0667 86.2844C26.7391 86.4964 26.5467 86.6093 26.5467 86.6093Z" fill="#28518A"/>
<path d="M33.6586 96.5954C33.6586 97.3876 33.02 98.0285 32.227 98.0285C31.4341 98.0285 30.7947 97.3876 30.7947 96.5954C30.7947 95.8048 31.4341 95.1606 32.227 95.1606C33.02 95.1606 33.6586 95.8048 33.6586 96.5954Z" fill="#ECF1F9"/>
<path d="M32.2268 95.3262C31.5255 95.3262 30.9585 95.8973 30.9585 96.5953C30.9585 97.2958 31.5255 97.8612 32.2268 97.8612C32.9257 97.8612 33.4943 97.2958 33.4943 96.5953C33.4943 95.8973 32.9257 95.3262 32.2268 95.3262ZM32.2268 98.1934C31.3462 98.1934 30.6272 97.4768 30.6272 96.5953C30.6272 95.7131 31.3462 94.9981 32.2268 94.9981C33.1059 94.9981 33.8233 95.7131 33.8233 96.5953C33.8233 97.4768 33.1059 98.1934 32.2268 98.1934Z" fill="#28518A"/>
<path d="M33.188 96.1836C33.188 96.1836 33.2033 96.2294 33.2282 96.3091C33.2435 96.3477 33.2547 96.3991 33.2588 96.4603C33.266 96.5174 33.2789 96.5881 33.266 96.6621C33.2652 96.7345 33.2523 96.8165 33.2242 96.897C33.2089 96.9838 33.1607 97.0634 33.1172 97.1487C33.0658 97.2259 33.0119 97.3103 32.9339 97.3755C32.8607 97.4447 32.7762 97.5058 32.6845 97.5508C32.5937 97.5999 32.4931 97.6224 32.395 97.6457C32.2937 97.6554 32.1956 97.6658 32.1007 97.6473C32.0049 97.6433 31.9197 97.6063 31.8385 97.5814C31.758 97.5492 31.6881 97.5058 31.6245 97.4736C31.5642 97.4278 31.5127 97.3859 31.4677 97.3457C31.4227 97.3103 31.3929 97.2669 31.364 97.2355C31.3093 97.1728 31.2771 97.1334 31.2771 97.1334C31.2771 97.1334 31.3157 97.1624 31.3849 97.2138C31.4186 97.2355 31.4524 97.2709 31.5039 97.2975C31.5546 97.3224 31.6109 97.357 31.6704 97.3892C31.7958 97.4455 31.9462 97.4985 32.1151 97.5034C32.1964 97.5162 32.28 97.4945 32.3652 97.4897C32.4505 97.4664 32.5325 97.4455 32.6097 97.4028C32.6894 97.3642 32.7617 97.316 32.8253 97.2548C32.8936 97.2018 32.9451 97.1334 32.9958 97.0715C33.0368 96.9967 33.0891 96.9307 33.1116 96.8584C33.1446 96.7876 33.1639 96.7168 33.1751 96.6484C33.1928 96.5825 33.1928 96.5206 33.1968 96.4635C33.2065 96.4064 33.2033 96.3565 33.1968 96.3147C33.1928 96.2327 33.188 96.1836 33.188 96.1836Z" fill="#28518A"/>
<path d="M14.8787 91.4618C14.4999 92.1567 13.6297 92.4116 12.9332 92.0312C12.2392 91.6508 11.985 90.7806 12.3638 90.0866C12.7442 89.3925 13.6136 89.1359 14.3085 89.518C15.0026 89.8952 15.2583 90.767 14.8787 91.4618Z" fill="#ECF1F9"/>
<path d="M13.6229 89.506C13.1581 89.506 12.7326 89.7593 12.5091 90.1646C12.1745 90.7783 12.3997 91.5511 13.0133 91.8865C13.1991 91.9878 13.4082 92.0441 13.6189 92.0441C14.0846 92.0441 14.5116 91.7884 14.7336 91.3806C14.8961 91.0855 14.9347 90.7429 14.8374 90.418C14.7425 90.0914 14.5261 89.8244 14.231 89.6612C14.0444 89.5598 13.8337 89.506 13.6229 89.506ZM13.6189 92.3739C13.3535 92.3739 13.0897 92.3055 12.8557 92.176C12.0804 91.753 11.7965 90.7807 12.2179 90.007C12.4994 89.4939 13.0383 89.1762 13.6229 89.1762C13.8884 89.1762 14.1546 89.2438 14.3886 89.3724C14.7618 89.5767 15.0352 89.9137 15.155 90.3239C15.2757 90.7348 15.2282 91.1659 15.0231 91.5423C14.7441 92.0546 14.2052 92.3739 13.6189 92.3739Z" fill="#28518A"/>
<path d="M14.6647 90.8748C14.6647 90.8748 14.6551 90.9214 14.639 91.0043C14.6318 91.0445 14.6189 91.0935 14.594 91.1498C14.5698 91.2037 14.5505 91.2713 14.5039 91.33C14.4661 91.3927 14.4162 91.4571 14.3527 91.5166C14.298 91.5849 14.2184 91.634 14.1396 91.6863C14.0559 91.7321 13.9675 91.7755 13.8693 91.7972C13.7712 91.823 13.6683 91.835 13.5669 91.8294C13.4632 91.8294 13.3635 91.8021 13.2662 91.7755C13.1729 91.7361 13.0804 91.6975 13.008 91.638C12.9227 91.5865 12.8664 91.5133 12.8077 91.4514C12.7547 91.3855 12.7136 91.3131 12.6726 91.252C12.6405 91.1852 12.6179 91.1217 12.5962 91.0694C12.5721 91.0147 12.5681 90.9624 12.556 90.9214C12.5407 90.8378 12.5303 90.7895 12.5303 90.7895C12.5303 90.7895 12.552 90.8346 12.5866 90.9077C12.6059 90.948 12.6195 90.9954 12.6517 91.0429C12.6831 91.0919 12.7185 91.145 12.7522 91.2037C12.8375 91.3123 12.9437 91.4329 13.0876 91.515C13.1544 91.5664 13.2372 91.5889 13.3152 91.6251C13.3997 91.6436 13.4849 91.6661 13.5718 91.6661C13.6594 91.671 13.7487 91.6629 13.8315 91.6436C13.9168 91.6251 13.9948 91.593 14.0704 91.56C14.1396 91.5142 14.2168 91.4836 14.2723 91.4281C14.335 91.3806 14.3857 91.33 14.4291 91.2761C14.4757 91.2246 14.5063 91.1715 14.5361 91.1257C14.5723 91.0774 14.5932 91.0324 14.6076 90.9946C14.6438 90.9182 14.6647 90.8748 14.6647 90.8748Z" fill="#28518A"/>
<path d="M5.42139 75.8933C5.04259 76.5889 4.1732 76.8439 3.47753 76.4643C2.78347 76.0855 2.52852 75.2145 2.90812 74.518C3.28773 73.8247 4.15792 73.5706 4.85279 73.9502C5.54685 74.3298 5.80261 75.2008 5.42139 75.8933Z" fill="#ECF1F9"/>
<path d="M4.16693 73.9397C3.70208 73.9397 3.27502 74.1906 3.05385 74.5968C2.71767 75.2104 2.94367 75.9817 3.55731 76.3187C3.74309 76.4224 3.95381 76.4739 4.16372 76.4739C4.62777 76.4739 5.05562 76.2222 5.27759 75.8144C5.43844 75.5193 5.47705 75.1742 5.38054 74.8501C5.28644 74.526 5.06929 74.2566 4.77413 74.0966C4.58675 73.9936 4.37523 73.9397 4.16693 73.9397ZM4.16372 76.8069C3.89751 76.8069 3.63291 76.7393 3.39807 76.6098C2.62438 76.1852 2.34048 75.212 2.76271 74.4392C3.04259 73.9277 3.58144 73.61 4.16693 73.61C4.43153 73.61 4.69693 73.6759 4.93257 73.8054C5.30655 74.0105 5.57999 74.3467 5.69902 74.7568C5.81966 75.1678 5.77221 75.5981 5.56793 75.9745C5.28644 76.4868 4.74921 76.8069 4.16372 76.8069Z" fill="#28518A"/>
<path d="M5.2074 75.3085C5.2074 75.3085 5.19856 75.3543 5.18247 75.4372C5.17363 75.4782 5.16156 75.5281 5.13744 75.5803C5.11331 75.6374 5.0924 75.705 5.04736 75.7629C5.00795 75.8264 4.95809 75.8924 4.89616 75.9503C4.84147 76.0178 4.76024 76.0677 4.68384 76.12C4.59939 76.1642 4.51012 76.2093 4.412 76.2302C4.31549 76.2551 4.21094 76.268 4.1088 76.2631C4.00666 76.2615 3.90693 76.235 3.80882 76.2117C3.71713 76.169 3.62384 76.1304 3.54985 76.0709C3.46701 76.0211 3.40991 75.9471 3.3512 75.8843C3.2957 75.8184 3.25791 75.7468 3.21608 75.6865C3.18391 75.6197 3.16059 75.557 3.13968 75.5015C3.11555 75.4452 3.11233 75.3945 3.10027 75.3543C3.08257 75.2723 3.07373 75.2249 3.07373 75.2249C3.07373 75.2249 3.09464 75.2667 3.13003 75.3431C3.14933 75.3809 3.16381 75.4275 3.19517 75.4766C3.22734 75.5256 3.26112 75.5787 3.2957 75.6374C3.38015 75.7444 3.48712 75.865 3.63108 75.9503C3.69783 76.0001 3.77986 76.0219 3.85948 76.0564C3.94312 76.0782 4.02676 76.0975 4.11523 76.0959C4.20129 76.1047 4.29136 76.0958 4.37339 76.0733C4.45945 76.0564 4.53746 76.0259 4.61467 75.9921C4.68384 75.9487 4.76024 75.9173 4.81573 75.8618C4.87847 75.8144 4.93074 75.7629 4.97176 75.7082C5.02001 75.6575 5.04977 75.6037 5.08194 75.5578C5.11492 75.5128 5.13663 75.4645 5.15191 75.4275C5.1881 75.3519 5.2074 75.3085 5.2074 75.3085Z" fill="#28518A"/>
<path d="M49.3359 92.0626C49.7163 92.7567 50.5857 93.0125 51.2813 92.6329C51.9762 92.2516 52.2312 91.3806 51.8507 90.6874C51.4711 89.9941 50.6009 89.7376 49.9077 90.118C49.2128 90.5 48.9587 91.3694 49.3359 92.0626Z" fill="#ECF1F9"/>
<path d="M50.5919 90.1075C50.3828 90.1075 50.1721 90.1622 49.9855 90.2651C49.6872 90.426 49.4732 90.693 49.3775 91.0179C49.2826 91.3444 49.3204 91.6862 49.4813 91.9838C49.7048 92.3891 50.1303 92.6425 50.5943 92.6425C50.8075 92.6425 51.0174 92.5902 51.2015 92.4872C51.8144 92.1543 52.0436 91.3806 51.7074 90.767C51.483 90.3592 51.0568 90.1075 50.5919 90.1075ZM50.5943 92.9762C50.0105 92.9762 49.4732 92.6569 49.1917 92.1422C48.9875 91.7682 48.9416 91.3347 49.0614 90.9278C49.1797 90.5168 49.4539 90.1774 49.8271 89.9724C50.0611 89.8437 50.3265 89.7761 50.5919 89.7761C51.1782 89.7761 51.7171 90.097 51.9945 90.6101C52.4176 91.3806 52.1321 92.3553 51.36 92.7784C51.1268 92.9063 50.8606 92.9762 50.5943 92.9762Z" fill="#28518A"/>
<path d="M49.5513 91.4755C49.5513 91.4755 49.5714 91.5213 49.6084 91.5961C49.6221 91.6339 49.6454 91.6798 49.68 91.7256C49.7097 91.773 49.7419 91.8261 49.7861 91.876C49.8287 91.9315 49.8794 91.9838 49.9454 92.0312C49.9968 92.0843 50.0748 92.1157 50.1448 92.1591C50.2196 92.1953 50.2984 92.2258 50.3845 92.2435C50.4689 92.2636 50.5574 92.2733 50.6434 92.266C50.7335 92.2677 50.8172 92.2468 50.9008 92.2258C50.978 92.1921 51.0609 92.1687 51.1268 92.1189C51.2716 92.0328 51.3777 91.9138 51.463 91.806C51.4984 91.7473 51.5321 91.6942 51.5643 91.6468C51.5949 91.5977 51.611 91.5503 51.6278 91.5133C51.6656 91.4369 51.6858 91.3926 51.6858 91.3926C51.6858 91.3926 51.6753 91.4377 51.6584 91.5221C51.648 91.564 51.6423 91.6138 51.6222 91.6701C51.5997 91.724 51.5756 91.7883 51.5434 91.8551C51.5 91.9154 51.463 91.9878 51.4075 92.0545C51.348 92.1157 51.2917 92.1896 51.2088 92.2387C51.134 92.2982 51.0424 92.3384 50.9491 92.3778C50.8526 92.4044 50.7536 92.4317 50.6507 92.4317C50.5477 92.4374 50.4432 92.4237 50.3459 92.3971C50.247 92.3778 50.1601 92.3328 50.0748 92.2902C49.9968 92.2347 49.9204 92.1864 49.8649 92.1189C49.8014 92.0594 49.7523 91.9958 49.7137 91.9315C49.6663 91.8744 49.6454 91.806 49.6221 91.7513C49.5971 91.6966 49.5834 91.6468 49.5786 91.6066C49.5593 91.5237 49.5513 91.4755 49.5513 91.4755Z" fill="#28518A"/>
<path d="M48.7783 91.5985C48.7783 91.5985 48.8041 91.6822 48.8443 91.8261C48.8644 91.9025 48.8869 91.991 48.9416 92.0811C48.989 92.1696 49.0268 92.2749 49.1105 92.3722C49.1491 92.4213 49.1845 92.4744 49.2255 92.5282C49.2729 92.5733 49.3236 92.6183 49.3775 92.6666C49.4266 92.7172 49.4828 92.7583 49.5496 92.7944C49.6139 92.8322 49.6735 92.8773 49.7418 92.9127C49.8834 92.9722 50.0241 93.0365 50.1841 93.0647L50.2983 93.092L50.4214 93.1025C50.501 93.1065 50.5823 93.1258 50.6619 93.1121L50.9039 93.0968L51.1388 93.0422C51.2184 93.0301 51.2844 92.9826 51.3575 92.9569C51.4315 92.9288 51.5015 92.8998 51.5602 92.8507C51.6245 92.8105 51.6865 92.7671 51.7476 92.7245C51.8007 92.6762 51.8505 92.6256 51.902 92.5789C52.0138 92.4872 52.0637 92.3578 52.1449 92.2604C52.2044 92.1543 52.2414 92.0441 52.2873 91.95C52.3403 91.8575 52.3435 91.765 52.3669 91.6942C52.4071 91.5463 52.4288 91.4642 52.4288 91.4642C52.4288 91.4642 52.4216 91.5503 52.4167 91.6999C52.4014 91.7755 52.4167 91.8744 52.3765 91.9757C52.3452 92.0771 52.3242 92.2025 52.2679 92.3224C52.2358 92.3851 52.2012 92.4446 52.1682 92.5089C52.132 92.5749 52.0942 92.64 52.0379 92.6963C51.9857 92.755 51.9358 92.8162 51.8827 92.8805C51.82 92.9336 51.7516 92.981 51.6816 93.0365C51.6165 93.0896 51.5377 93.1298 51.4557 93.1668C51.3744 93.203 51.2964 93.2505 51.2088 93.2698C51.1187 93.2915 51.0318 93.3148 50.9426 93.3365L50.6715 93.363C50.5782 93.3743 50.4865 93.3478 50.3949 93.3438L50.2581 93.3317L50.1279 93.2963C49.9477 93.2641 49.7901 93.1781 49.6365 93.1025C49.5633 93.0607 49.4949 93.0084 49.4314 92.9585C49.3598 92.9127 49.3027 92.8564 49.2528 92.7961C49.1998 92.7398 49.1507 92.6819 49.1016 92.6256C49.0638 92.5644 49.0284 92.5033 48.9923 92.4454C48.9118 92.3376 48.8853 92.2098 48.8531 92.1076C48.8113 92.0015 48.8041 91.9122 48.7984 91.8382C48.784 91.6862 48.7783 91.5985 48.7783 91.5985Z" fill="#ECF1F9"/>
<path d="M58.8072 75.4613C59.1876 76.157 60.0595 76.4128 60.7527 76.0299C61.4484 75.652 61.7017 74.7801 61.3213 74.0861C60.9441 73.3912 60.0707 73.1371 59.3775 73.5175C58.6834 73.8963 58.4284 74.7681 58.8072 75.4613Z" fill="#ECF1F9"/>
<path d="M60.0652 73.5046C59.8528 73.5046 59.6429 73.5609 59.4579 73.6622C59.1596 73.8247 58.9448 74.0925 58.8499 74.4182C58.755 74.7439 58.7912 75.085 58.9529 75.3825C59.1757 75.7887 59.6035 76.042 60.0668 76.042C60.2775 76.042 60.4874 75.9881 60.6748 75.886C61.2868 75.5506 61.5136 74.7785 61.175 74.1633C60.9571 73.7579 60.5284 73.5046 60.0652 73.5046ZM60.0668 76.3726C59.4829 76.3726 58.9432 76.0549 58.6609 75.541C58.2379 74.7681 58.525 73.7941 59.2987 73.3719C59.5336 73.2424 59.7998 73.1749 60.0652 73.1749C60.6498 73.1749 61.1863 73.4925 61.4678 74.0065C61.89 74.7801 61.6053 75.7525 60.8332 76.1779C60.596 76.3042 60.3338 76.3726 60.0668 76.3726Z" fill="#28518A"/>
<path d="M59.0222 74.8743C59.0222 74.8743 59.0431 74.9201 59.0785 74.9949C59.0954 75.0343 59.1171 75.0802 59.1493 75.1252C59.1823 75.1726 59.2104 75.2249 59.2563 75.2772C59.3013 75.3295 59.352 75.3825 59.4147 75.43C59.471 75.4831 59.5466 75.5161 59.6158 75.5603C59.6914 75.5957 59.7718 75.6254 59.8562 75.6423C59.9399 75.6624 60.0275 75.6713 60.1136 75.6648C60.2029 75.6648 60.2857 75.6463 60.3709 75.6254C60.4498 75.5925 60.5326 75.5667 60.6002 75.5177C60.7425 75.4324 60.8503 75.3134 60.9331 75.2024C60.9701 75.1461 61.0039 75.0914 61.0361 75.0448C61.0682 74.9965 61.0811 74.9482 61.0996 74.9104C61.1358 74.834 61.1567 74.793 61.1567 74.793C61.1567 74.793 61.147 74.8381 61.1301 74.9209C61.1181 74.9611 61.1173 75.0142 61.0916 75.0689C61.069 75.1236 61.0473 75.1871 61.0119 75.2531C60.9725 75.3134 60.9323 75.3866 60.8808 75.4525C60.8205 75.516 60.7618 75.586 60.679 75.6375C60.605 75.6986 60.5141 75.7372 60.4224 75.7766C60.3243 75.8024 60.2246 75.8289 60.12 75.8305C60.0211 75.8369 59.9157 75.8241 59.8192 75.7991C59.7195 75.7766 59.6343 75.73 59.5466 75.6865C59.4686 75.6351 59.3882 75.5844 59.3335 75.5193C59.2707 75.4589 59.2209 75.3946 59.1823 75.3295C59.138 75.2724 59.1171 75.2024 59.0922 75.1493C59.0689 75.0938 59.0544 75.0448 59.0488 75.0037C59.0327 74.9209 59.0222 74.8743 59.0222 74.8743Z" fill="#28518A"/>
<path d="M58.25 74.9972C58.25 74.9972 58.2725 75.0808 58.3167 75.2256C58.332 75.302 58.357 75.3905 58.41 75.4781C58.4599 75.5682 58.4993 75.6744 58.5821 75.7701C58.6191 75.8199 58.6553 75.8714 58.6947 75.9269C58.7446 75.9711 58.7977 76.0154 58.85 76.0644C58.899 76.1143 58.9545 76.1577 59.0197 76.1915C59.0856 76.2301 59.1467 76.2759 59.2119 76.3097C59.3526 76.3716 59.4966 76.436 59.655 76.4625L59.7716 76.4931L59.8931 76.5019C59.9727 76.5035 60.0547 76.5245 60.1344 76.51L60.3764 76.4963L60.6089 76.44C60.6877 76.4295 60.7544 76.3813 60.83 76.3564C60.9016 76.329 60.9724 76.2985 61.0311 76.251C61.097 76.2084 61.1565 76.1674 61.2185 76.1247C61.274 76.0733 61.3214 76.0234 61.3721 75.9752C61.4823 75.8843 61.5345 75.7572 61.6142 75.6575C61.6761 75.5505 61.7155 75.4419 61.7589 75.3478C61.812 75.2562 61.812 75.1613 61.8385 75.0913C61.8771 74.9441 61.8997 74.8605 61.8997 74.8605C61.8997 74.8605 61.8957 74.9481 61.8844 75.1001C61.8731 75.1733 61.8844 75.2722 61.8498 75.3736C61.8184 75.4765 61.7959 75.6012 61.7396 75.7202C61.7067 75.7789 61.6713 75.8433 61.6383 75.906C61.6053 75.9727 61.5651 76.0379 61.5112 76.0934C61.4606 76.1553 61.4075 76.2156 61.352 76.2792C61.2917 76.3347 61.2209 76.3813 61.1533 76.4344C61.0858 76.4883 61.0094 76.5309 60.9257 76.5655C60.8453 76.6001 60.7689 76.6507 60.6788 76.6676C60.592 76.6901 60.5035 76.7143 60.4134 76.7368L60.14 76.7593C60.0475 76.773 59.9574 76.7488 59.8649 76.7448L59.7306 76.7311L59.5995 76.6949C59.4186 76.6612 59.2617 76.5767 59.1081 76.5019C59.0349 76.4585 58.9666 76.4062 58.9014 76.3564C58.8315 76.3129 58.7768 76.255 58.7253 76.1939C58.6722 76.1384 58.6232 76.0797 58.5725 76.0242C58.5347 75.9623 58.4993 75.9028 58.4623 75.8449C58.3843 75.7339 58.357 75.61 58.3232 75.5047C58.283 75.4009 58.2757 75.3109 58.2693 75.2353C58.2556 75.0849 58.25 74.9972 58.25 74.9972Z" fill="#ECF1F9"/>
<path d="M48.694 56.629C48.3707 57.5396 47.2695 57.9873 46.2395 57.6215C45.2132 57.2571 44.642 56.2155 44.9653 55.3048C45.2911 54.3876 48.0533 49.2595 49.0795 49.6239C50.1095 49.9897 49.0198 55.7117 48.694 56.629Z" fill="#28518A"/>
<path d="M48.751 50.5914C48.7481 50.5904 48.7453 50.5894 48.7415 50.588C49.2384 51.5477 48.4736 55.5102 48.2296 56.1972C47.9604 56.9553 47.0472 57.3214 46.1963 57.0192C45.9944 56.9475 45.8203 56.843 45.6658 56.7252C45.8567 56.9328 46.1032 57.1099 46.3989 57.2149C47.2507 57.5174 48.1611 57.1503 48.4307 56.3913C48.6995 55.6342 49.6029 50.8939 48.751 50.5914Z" fill="#ECF1F9"/>
<path d="M48.2534 39.3081C48.2534 48.6005 40.9055 56.1303 31.8412 56.1303C22.7779 56.1303 15.4299 48.6005 15.4299 39.3081C15.4299 30.0157 22.7779 22.4859 31.8412 22.4859C40.9055 22.4859 48.2534 30.0157 48.2534 39.3081Z" fill="#28518A"/>
<path d="M31.8413 22.6801C22.9005 22.6801 15.6242 30.1393 15.6242 39.3082C15.6242 48.4752 22.9005 55.9381 31.8413 55.9381C40.784 55.9381 48.0603 48.4752 48.0603 39.3082C48.0603 30.1393 40.784 22.6801 31.8413 22.6801ZM31.8413 56.3227C22.6866 56.3227 15.2378 48.6891 15.2378 39.3082C15.2378 29.9244 22.6866 22.2927 31.8413 22.2927C40.998 22.2927 48.4458 29.9244 48.4458 39.3082C48.4458 48.6891 40.998 56.3227 31.8413 56.3227Z" fill="#28518A"/>
<path d="M19.9353 28.4973C19.9353 28.4973 20.0691 28.3286 20.3048 28.0317C20.4217 27.88 20.5753 27.7075 20.7534 27.5124C20.842 27.4134 20.9382 27.3098 21.0362 27.1985C21.1427 27.0949 21.2567 26.9855 21.3727 26.8724C21.6026 26.6396 21.8713 26.4087 22.1559 26.1655C22.4396 25.9224 22.7544 25.6792 23.0862 25.4436C23.4264 25.2117 23.777 24.978 24.1503 24.764C24.3341 24.649 24.5245 24.5425 24.7177 24.4454C24.9128 24.3474 25.1004 24.2371 25.2992 24.1476C25.6979 23.9685 26.1004 23.7951 26.5038 23.6509C26.9053 23.4906 27.3153 23.3832 27.7064 23.2616C28.1051 23.1608 28.4869 23.0599 28.8544 23.0034C29.0401 22.9732 29.2192 22.9402 29.3945 22.9091C29.567 22.8893 29.7357 22.8676 29.8978 22.8488C30.222 22.8026 30.5208 22.7932 30.7866 22.7819C31.0515 22.764 31.2805 22.7611 31.4709 22.7668C31.8507 22.7734 32.0675 22.7781 32.0675 22.7781C32.0675 22.7781 31.8507 22.7932 31.4737 22.8224C31.2843 22.8299 31.0581 22.8507 30.7951 22.8884C30.534 22.9223 30.2381 22.9525 29.9223 23.0118C29.763 23.0392 29.5971 23.0656 29.4247 23.0948C29.256 23.1325 29.0788 23.1711 28.8987 23.2117C28.5368 23.2852 28.1654 23.4039 27.7752 23.5048C27.3926 23.6301 26.992 23.7414 26.5999 23.9044C26.2031 24.0505 25.812 24.2296 25.4227 24.4096C25.2257 24.4954 25.0381 24.6 24.8459 24.6952C24.6545 24.7866 24.4651 24.8894 24.286 24.9987C23.9156 25.2013 23.565 25.4275 23.2304 25.6509C22.9005 25.8809 22.58 26.1024 22.2879 26.3286C21.9985 26.5576 21.7195 26.7735 21.482 26.9912C21.2379 27.2042 21.0173 27.4021 20.8316 27.5888C20.6403 27.7678 20.4744 27.9262 20.3462 28.0694C20.0861 28.3437 19.9353 28.4973 19.9353 28.4973Z" fill="#ECF1F9"/>
<path d="M20.363 28.9224C20.363 28.9224 20.4912 28.7679 20.7174 28.4964C20.8305 28.3626 20.9691 28.1976 21.1265 28.011C21.2066 27.9187 21.2924 27.8187 21.3819 27.7141C21.4809 27.6208 21.5883 27.52 21.7005 27.4182C21.9229 27.2118 22.167 26.9874 22.4243 26.7499C22.6807 26.5152 22.9908 26.3164 23.299 26.0901C23.4536 25.9808 23.6119 25.8677 23.7703 25.7537C23.9314 25.6415 24.1096 25.5557 24.284 25.4539C24.6327 25.2645 24.9795 25.0487 25.3452 24.8724C25.7213 24.7207 26.1002 24.5661 26.4697 24.4162L26.7458 24.3031L27.0314 24.2239C27.219 24.1712 27.4056 24.1184 27.5903 24.0656C27.956 23.9666 28.3066 23.8507 28.6535 23.8187C29.0003 23.7668 29.3236 23.7188 29.6252 23.6763C29.9231 23.616 30.203 23.6217 30.45 23.6188C30.696 23.6141 30.909 23.6132 31.0852 23.6085C31.4396 23.6075 31.6394 23.6057 31.6394 23.6057C31.6394 23.6057 31.4405 23.6264 31.0899 23.666C30.9127 23.681 30.7007 23.7027 30.4584 23.7263C30.2172 23.7508 29.94 23.7668 29.645 23.8375C29.3538 23.8969 29.0343 23.96 28.6978 24.0241C28.3575 24.0741 28.0182 24.2089 27.6591 24.3078C27.4791 24.3625 27.2963 24.4181 27.1134 24.4728L26.8344 24.5538L26.5639 24.6679C26.2029 24.8234 25.8372 24.9789 25.4696 25.1344C25.1096 25.3013 24.7656 25.5086 24.4159 25.6896C24.2472 25.7876 24.0672 25.8658 23.9107 25.9752C23.7514 26.0845 23.595 26.1929 23.4413 26.2966C23.1407 26.519 22.8211 26.6962 22.5582 26.9158C22.2952 27.1354 22.0454 27.3428 21.8155 27.5332C21.7005 27.6293 21.5883 27.7217 21.4846 27.8084C21.3866 27.9064 21.2943 27.9988 21.2057 28.0855C21.0341 28.2608 20.8805 28.4097 20.758 28.536C20.5054 28.782 20.363 28.9224 20.363 28.9224Z" fill="#ECF1F9"/>
<path d="M47.1289 36.966C45.7622 29.9291 39.5746 24.618 32.1418 24.618C25.1765 24.618 19.3036 29.2835 17.4704 35.6597C16.9064 39.5684 16.9064 39.5684 17.3196 43.5618C18.9643 50.2189 24.9748 55.1559 32.1418 55.1559C39.7169 55.1559 45.9988 49.6402 47.2005 42.4063C47.2005 40.4677 47.2005 38.4892 47.1289 36.966Z" fill="#ECF1F9"/>
<path d="M17.4741 43.3676C19.0191 50.1048 25.2605 54.9626 32.1417 54.9626C39.5443 54.9626 45.7961 49.6684 47.0101 42.3733C47.2881 39.9281 47.3021 39.5684 46.9375 37.0056C45.5709 29.9395 39.3455 24.8112 32.1417 24.8112C25.456 24.8112 19.4145 29.4276 17.6146 35.8557C17.1687 39.2087 17.1687 39.9281 17.4741 43.3676ZM32.1417 55.3481C25.0634 55.3481 18.9284 50.5921 17.1687 43.756C16.7265 40.2878 16.7266 39.2087 17.3233 35.4664C19.263 28.9574 25.3348 24.4247 32.1417 24.4247C39.4774 24.4247 45.8206 29.6068 47.2881 36.7737C47.6618 39.5684 47.6618 39.5684 47.3645 42.5967C46.0581 49.9964 39.681 55.3481 32.1417 55.3481Z" fill="#28518A"/>
<path d="M20.8477 29.3363C20.8477 29.3363 20.9655 29.1949 21.17 28.9451C21.2737 28.8217 21.399 28.6718 21.5432 28.5003C21.6158 28.4164 21.6922 28.3231 21.7732 28.2288C21.8656 28.1402 21.9636 28.0488 22.0645 27.9564C22.2699 27.7679 22.4905 27.5615 22.7261 27.3457C22.9608 27.1289 23.2426 26.9451 23.5244 26.7387C23.6658 26.6378 23.8091 26.5351 23.9561 26.4305C24.1041 26.3277 24.2671 26.2495 24.4245 26.1553C24.745 25.9809 25.0636 25.7848 25.3963 25.6218C25.7422 25.4832 26.0862 25.3428 26.4265 25.2052L26.6791 25.1053L26.9383 25.0308C27.1107 24.9809 27.2823 24.9347 27.451 24.8876C27.7865 24.7933 28.107 24.6906 28.4265 24.6613C28.7413 24.6161 29.0392 24.5728 29.3144 24.5341C29.5858 24.4794 29.8412 24.486 30.0674 24.4842C30.2927 24.4794 30.4878 24.4785 30.6499 24.4747C30.9751 24.4747 31.1561 24.4747 31.1561 24.4747C31.1561 24.4747 30.9751 24.4964 30.6518 24.5341C30.4916 24.5501 30.2984 24.568 30.075 24.5925C29.8544 24.6142 29.6028 24.6312 29.336 24.6962C29.0684 24.749 28.7762 24.8093 28.468 24.8706C28.1579 24.9149 27.8478 25.0384 27.5189 25.1288C27.3558 25.1788 27.188 25.2288 27.0203 25.2778L26.7667 25.3541L26.5217 25.4606C26.1899 25.5992 25.8562 25.7443 25.5207 25.8848C25.1908 26.0384 24.877 26.2259 24.5593 26.3899C24.4048 26.4795 24.2408 26.5539 24.0956 26.652C23.9495 26.75 23.8072 26.8499 23.6668 26.9451C23.3925 27.1468 23.1003 27.3099 22.86 27.5097C22.6177 27.7076 22.3906 27.8961 22.1804 28.0705C22.0739 28.1572 21.973 28.242 21.8769 28.3221C21.7864 28.4107 21.7025 28.4946 21.6224 28.5747C21.4641 28.7312 21.3246 28.8697 21.2096 28.9838C20.9777 29.2081 20.8477 29.3363 20.8477 29.3363Z" fill="#ECF1F9"/>
<path d="M43.2091 39.8868C43.2091 46.001 38.2543 50.9568 32.142 50.9568C26.0278 50.9568 21.072 46.001 21.072 39.8868C21.072 33.7727 26.0278 28.8178 32.142 28.8178C38.2543 28.8178 43.2091 33.7727 43.2091 39.8868Z" fill="#28518A"/>
<path d="M32.142 29.0111C26.1447 29.0111 21.2662 33.8905 21.2662 39.8869C21.2662 45.8842 26.1447 50.7627 32.142 50.7627C38.1384 50.7627 43.015 45.8842 43.015 39.8869C43.015 33.8905 38.1384 29.0111 32.142 29.0111ZM32.142 51.1501C25.9308 51.1501 20.877 46.0991 20.877 39.8869C20.877 33.6775 25.9308 28.6227 32.142 28.6227C38.3524 28.6227 43.4034 33.6775 43.4034 39.8869C43.4034 46.0991 38.3524 51.1501 32.142 51.1501Z" fill="#28518A"/>
<path d="M32.1418 27.7858C25.4677 27.7858 20.0407 33.2147 20.0407 39.8869C20.0407 46.559 25.4677 51.9899 32.1418 51.9899C38.813 51.9899 44.2419 46.559 44.2419 39.8869C44.2419 33.2147 38.813 27.7858 32.1418 27.7858ZM32.1418 52.3763C25.2547 52.3763 19.6523 46.7749 19.6523 39.8869C19.6523 33.0017 25.2547 27.3975 32.1418 27.3975C39.0279 27.3975 44.6321 33.0017 44.6321 39.8869C44.6321 46.7749 39.0279 52.3763 32.1418 52.3763Z" fill="#28518A"/>
<path d="M45.3553 33.7379C45.3553 33.7379 45.4222 33.9094 45.5448 34.2251C45.6089 34.3854 45.6852 34.5795 45.7757 34.8104C45.8209 34.9273 45.869 35.048 45.918 35.1809C45.9566 35.3194 45.9962 35.4655 46.0386 35.621C46.1225 35.9292 46.214 36.2733 46.3176 36.6455C46.3798 37.0273 46.4505 37.4392 46.525 37.8803C46.6051 38.3214 46.6051 38.7992 46.6494 39.3025C46.6786 39.5504 46.6636 39.8124 46.6532 40.0735C46.6428 40.3393 46.6343 40.6098 46.6277 40.886C46.6258 41.164 46.5599 41.4402 46.5354 41.7286C46.4939 42.0142 46.4694 42.3064 46.4119 42.5995C46.344 42.8917 46.2762 43.1886 46.2074 43.4883C46.1697 43.641 46.1348 43.789 46.098 43.9445C46.0481 44.0924 45.9962 44.2433 45.9453 44.3931C45.8454 44.6957 45.7436 45.001 45.6371 45.3121C45.5024 45.609 45.3685 45.9106 45.229 46.2188C45.1602 46.3687 45.0952 46.5261 45.0198 46.6778C44.934 46.8258 44.8511 46.9719 44.7653 47.1198C44.589 47.4139 44.4326 47.724 44.2337 48.0105C43.4646 49.1764 42.4947 50.2613 41.3788 51.2161C40.2299 52.1463 38.9574 52.8966 37.5474 53.5008C36.2128 54.0022 34.6944 54.3764 33.241 54.4904C31.7726 54.5781 30.3211 54.4659 28.961 54.1586C28.6198 54.0898 28.2928 53.973 27.9619 53.8844C27.7979 53.8363 27.6339 53.7882 27.4709 53.7411C27.3106 53.6855 27.157 53.6167 26.9996 53.5545C26.6905 53.4291 26.3832 53.3047 26.0797 53.1831C25.7894 53.0323 25.5019 52.8825 25.2192 52.7354C25.0768 52.6628 24.9383 52.5893 24.7988 52.5177C24.6678 52.4319 24.5358 52.3471 24.4058 52.2642C24.1475 52.0945 23.8921 51.9286 23.6423 51.7646C23.3982 51.5921 23.1758 51.397 22.9505 51.2198C22.7309 51.0342 22.4934 50.8739 22.2983 50.6788C22.1013 50.4866 21.9081 50.2962 21.7177 50.1095C21.5292 49.9276 21.3388 49.7523 21.187 49.5506C20.8703 49.1557 20.5395 48.8107 20.2897 48.4403C20.039 48.0699 19.8044 47.7259 19.5847 47.4054C19.4 47.0671 19.2313 46.7532 19.0767 46.4723C18.9994 46.3309 18.9269 46.2018 18.8599 46.0765C18.8034 45.9445 18.7525 45.822 18.7054 45.7079C18.6111 45.4789 18.531 45.2829 18.465 45.1264C18.335 44.8097 18.2671 44.641 18.2671 44.641C18.2671 44.641 18.3491 44.8041 18.5027 45.1066C18.58 45.2602 18.6771 45.4459 18.7874 45.6674C18.8458 45.7777 18.9061 45.8936 18.9683 46.0199C19.0447 46.1387 19.1238 46.2669 19.2077 46.3998C19.3755 46.6693 19.5612 46.9653 19.7657 47.2876C19.9985 47.5873 20.2492 47.9135 20.5197 48.2641C20.7836 48.61 21.1305 48.9295 21.4575 49.2943C21.6206 49.4809 21.81 49.6439 22.0033 49.8164C22.1955 49.988 22.3916 50.1633 22.5914 50.3386C22.7856 50.5252 23.0231 50.6703 23.2427 50.8419C23.4708 51.0021 23.6942 51.1812 23.9345 51.3377C24.1852 51.4866 24.4359 51.6383 24.6904 51.7938C24.8186 51.8702 24.9468 51.9484 25.075 52.0238C25.2116 52.0907 25.3483 52.1558 25.4868 52.2236C25.763 52.3556 26.0411 52.4894 26.3266 52.6261C26.6207 52.7354 26.9195 52.8457 27.2202 52.956C27.371 53.0106 27.5199 53.071 27.6763 53.119C27.8347 53.1614 27.9902 53.2048 28.1467 53.2472C28.4652 53.3273 28.7782 53.4329 29.1052 53.4923C30.4116 53.7665 31.7924 53.8259 33.1826 53.7449C34.5869 53.6148 35.9093 53.2925 37.2958 52.7656C38.5625 52.2274 39.8227 51.5092 40.9047 50.6383C41.9641 49.7335 42.9189 48.7353 43.671 47.6316C43.8642 47.3611 44.0179 47.0671 44.1941 46.7909C44.2771 46.6514 44.36 46.511 44.4439 46.3715C44.5231 46.2301 44.5881 46.0812 44.6597 45.9398C44.7992 45.6495 44.9387 45.3649 45.0744 45.0802C45.1838 44.788 45.2912 44.4968 45.4006 44.2103C45.4543 44.0651 45.508 43.9228 45.558 43.7824C45.5985 43.6344 45.6371 43.4911 45.6767 43.346C45.754 43.0576 45.8304 42.7767 45.9048 42.4968C45.9708 42.214 46.0085 41.9331 46.0584 41.6579C46.099 41.3817 46.1725 41.115 46.1838 40.8454C46.2074 40.5778 46.2243 40.3139 46.2451 40.0584C46.2639 39.8021 46.2903 39.5504 46.2762 39.3044C46.2639 38.8162 46.2903 38.3459 46.2413 37.9114C46.1932 37.4731 46.1499 37.0631 46.1065 36.6851C46.0264 36.3119 45.9585 35.9698 45.8935 35.6625C45.8652 35.507 45.8313 35.3599 45.803 35.2214C45.7625 35.0857 45.7238 34.9584 45.688 34.8406C45.6183 34.604 45.5551 34.4014 45.508 34.2402C45.4062 33.915 45.3553 33.7379 45.3553 33.7379Z" fill="#28518A"/>
<path d="M43.1654 30.3212C43.1654 30.9739 42.6319 31.5011 41.9808 31.5011C41.3312 31.5011 40.8025 30.9739 40.8025 30.3212C40.8025 29.667 41.3312 29.1367 41.9808 29.1367C42.6319 29.1367 43.1654 29.667 43.1654 30.3212Z" fill="#28518A"/>
<path d="M23.3814 48.9194C23.3814 49.5171 22.8994 50 22.303 50C21.708 50 21.2231 49.5171 21.2231 48.9194C21.2231 48.3218 21.708 47.8417 22.303 47.8417C22.8994 47.8417 23.3814 48.3218 23.3814 48.9194Z" fill="#28518A"/>
<path d="M6.93097 28.9122L3.31909 29.2315L4.99193 48.0927L8.6038 47.7702C10.127 47.6359 10.9876 43.305 10.526 38.0975C10.0635 32.8892 8.45421 28.7771 6.93097 28.9122Z" fill="#28518A"/>
<path d="M3.49834 29.3828L5.14062 47.9135L8.58843 47.6079C9.23665 47.5491 9.80364 46.5278 10.1471 44.8034C10.5082 42.9915 10.5838 40.6157 10.3602 38.1113C9.88165 32.706 8.23778 29.0756 7.00245 29.0756C6.98476 29.0756 6.96385 29.0756 6.94455 29.0772L3.49834 29.3828ZM4.84143 48.2722L3.13965 29.0836L6.91479 28.7474C8.54178 28.6091 10.2178 32.7502 10.6907 38.0823C10.9167 40.6165 10.8371 43.0252 10.4712 44.8694C10.0924 46.7755 9.43369 47.8628 8.61657 47.936L4.84143 48.2722Z" fill="#28518A"/>
<path d="M9.97402 35.9406C9.94989 35.7082 9.90485 35.4621 9.86625 35.1991C9.83005 34.9361 9.77376 34.661 9.71987 34.3763C9.67162 34.09 9.59522 33.7989 9.52927 33.5005C9.45608 33.2061 9.37727 32.9046 9.28961 32.6078C9.19631 32.3102 9.10785 32.0126 8.99847 31.7271C8.90115 31.4368 8.7773 31.1601 8.66551 30.8915C8.53763 30.6269 8.42182 30.3688 8.28349 30.1363C8.15883 29.8975 8.00683 29.6876 7.87735 29.4897C7.72776 29.3055 7.6031 29.1254 7.45834 28.9911C7.42456 28.9557 7.39158 28.9283 7.35781 28.8962L6.92432 28.934C7.01922 29.0023 7.1286 29.082 7.24602 29.2042C7.38113 29.3224 7.50739 29.4865 7.65457 29.657C7.78405 29.8428 7.93365 30.0366 8.06313 30.265C8.20709 30.4838 8.32692 30.7347 8.46042 30.9872C8.57865 31.2478 8.70974 31.5132 8.8167 31.7963C8.93252 32.0754 9.03144 32.3657 9.13197 32.6568C9.22848 32.9488 9.31695 33.2423 9.40059 33.5351C9.47378 33.827 9.55983 34.1141 9.61854 34.398C9.68047 34.6787 9.74561 34.9522 9.79145 35.2111C9.8397 35.4725 9.89118 35.7178 9.92415 35.947C9.99734 36.403 10.0504 36.7867 10.0794 37.0545C10.1115 37.3223 10.1316 37.4775 10.1316 37.4775C10.1316 37.4775 10.1164 37.3223 10.093 37.0545C10.0729 36.7834 10.0335 36.399 9.97402 35.9406Z" fill="#ECF1F9"/>
<path d="M9.02497 36.0243C9.00084 35.7942 8.95661 35.5457 8.9172 35.2827C8.88101 35.0198 8.82391 34.7455 8.76922 34.4584C8.72096 34.1745 8.64617 33.8825 8.58102 33.585C8.50703 33.2874 8.42661 32.9898 8.34136 32.6907C8.24807 32.3947 8.1596 32.0971 8.04942 31.8108C7.9513 31.5213 7.82745 31.2446 7.71566 30.976C7.58778 30.7122 7.47197 30.4516 7.33203 30.2208C7.20818 29.9828 7.05939 29.7736 6.9291 29.5742C6.77871 29.3892 6.65325 29.2115 6.50849 29.0756C6.47632 29.0386 6.44173 29.012 6.40876 28.9799L5.97607 29.0169C6.06937 29.0868 6.17955 29.1656 6.29697 29.2879C6.43369 29.4053 6.55915 29.5734 6.70552 29.7415C6.83581 29.9265 6.9854 30.1227 7.11489 30.3495C7.25724 30.5682 7.37787 30.8184 7.51218 31.0709C7.6288 31.3323 7.75989 31.5985 7.86685 31.8816C7.98427 32.159 8.08078 32.451 8.18292 32.7413C8.27943 33.0325 8.3687 33.3276 8.44993 33.6179C8.52473 33.9123 8.61078 34.1986 8.66869 34.4809C8.73142 34.764 8.79657 35.0358 8.84241 35.2964C8.88986 35.5578 8.94213 35.8023 8.97269 36.0323C9.04909 36.4883 9.10057 36.8695 9.12952 37.1381C9.1633 37.4092 9.18019 37.5604 9.18019 37.5604C9.18019 37.5604 9.16732 37.4068 9.144 37.1381C9.1247 36.8687 9.08448 36.4843 9.02497 36.0243Z" fill="#ECF1F9"/>
<path d="M7.9676 35.3672C7.93141 35.1026 7.87592 34.8307 7.82203 34.5436C7.77378 34.2573 7.69738 33.9662 7.63143 33.6694C7.55905 33.3726 7.47782 33.0735 7.39096 32.7751C7.29847 32.4783 7.21081 32.1799 7.10063 31.8952C7.00251 31.6049 6.87865 31.3307 6.76767 31.0596C6.63899 30.795 6.52318 30.5361 6.38485 30.306C6.25858 30.0664 6.10898 29.8565 5.9803 29.6586C5.83152 29.4728 5.70445 29.2951 5.55888 29.1592C5.52591 29.1222 5.49213 29.0948 5.45996 29.0635L5.02808 29.1013C5.12056 29.1712 5.22994 29.2501 5.34897 29.3723C5.48248 29.4897 5.61035 29.657 5.75592 29.8275C5.8854 30.0117 6.0358 30.2047 6.16609 30.4331C6.30844 30.6535 6.42827 30.9028 6.56178 31.1545C6.68 31.4167 6.81109 31.6829 6.91806 31.9644C7.03548 32.2435 7.13199 32.5346 7.23332 32.8241C7.32983 33.1161 7.41911 33.4112 7.50195 33.7032C7.57594 33.9951 7.66038 34.283 7.7199 34.5653C7.78182 34.8484 7.84616 35.1195 7.892 35.38C7.94026 35.6414 7.99414 35.8867 8.02551 36.1167C8.09869 36.5727 8.15258 36.954 8.18153 37.2226C8.2137 37.4912 8.2322 37.644 8.2322 37.644C8.2322 37.644 8.21853 37.4912 8.19359 37.2218C8.1759 36.9523 8.13489 36.5679 8.07618 36.1079C8.05205 35.8771 8.00701 35.631 7.9676 35.3672Z" fill="#ECF1F9"/>
<path d="M7.01933 35.4516C6.98313 35.1886 6.92603 34.9135 6.87295 34.628C6.82309 34.3425 6.74749 34.0514 6.68235 33.7538C6.60836 33.4571 6.52954 33.1571 6.44188 32.8587C6.34939 32.5635 6.26093 32.2668 6.15155 31.9805C6.05343 31.6893 5.92877 31.4135 5.81698 31.1432C5.68991 30.8811 5.5749 30.6213 5.43577 30.3897C5.31031 30.1508 5.16071 29.9409 5.03042 29.7422C4.88083 29.5581 4.75537 29.3787 4.61061 29.2444C4.57764 29.209 4.54386 29.1793 4.51008 29.1471L4.07739 29.1849C4.17069 29.2541 4.28087 29.3345 4.39829 29.4567C4.53582 29.5742 4.66047 29.7398 4.80684 29.9095C4.93633 30.0969 5.08672 30.2915 5.2154 30.5175C5.35856 30.7363 5.47919 30.9872 5.6127 31.2397C5.73092 31.5011 5.86121 31.7665 5.96898 32.0496C6.0856 32.3287 6.18291 32.6182 6.28344 32.9086C6.38075 33.2005 6.46842 33.4957 6.55206 33.786C6.62685 34.0803 6.7113 34.3659 6.77082 34.6498C6.83274 34.932 6.89789 35.2031 6.94373 35.4645C6.99118 35.725 7.04426 35.9703 7.07643 36.1987C7.15042 36.6563 7.2043 37.0392 7.23084 37.307C7.26382 37.5764 7.28312 37.73 7.28312 37.73C7.28312 37.73 7.26945 37.5764 7.24613 37.3062C7.22602 37.036 7.18661 36.6515 7.1271 36.1923C7.10297 35.9607 7.05713 35.7154 7.01933 35.4516Z" fill="#ECF1F9"/>
<path d="M3.49834 29.3828L5.14062 47.9135L8.58843 47.6079C9.23665 47.5491 9.80364 46.5278 10.1471 44.8034C10.5082 42.9915 10.5838 40.6157 10.3602 38.1113C9.88165 32.706 8.23778 29.0756 7.00245 29.0756C6.98476 29.0756 6.96385 29.0756 6.94455 29.0772L3.49834 29.3828ZM4.84143 48.2722L3.13965 29.0836L6.91479 28.7474C8.54178 28.6091 10.2178 32.7502 10.6907 38.0823C10.9167 40.6165 10.8371 43.0252 10.4712 44.8694C10.0924 46.7755 9.43369 47.8628 8.61657 47.936L4.84143 48.2722Z" fill="#28518A"/>
<path d="M6.91468 38.4169C7.37471 43.6252 6.51497 47.9577 4.99172 48.0928C3.46767 48.2271 1.85677 44.115 1.39593 38.9067C0.933489 33.6992 1.79484 29.3675 3.31889 29.2316C4.84133 29.0989 6.45143 33.2102 6.91468 38.4169Z" fill="#ECF1F9"/>
<path d="M3.39207 29.394C3.37277 29.394 3.35186 29.3956 3.33175 29.398C2.68514 29.4551 2.11654 30.4765 1.77473 32.2C1.41523 34.0128 1.33883 36.3909 1.5608 38.8922C2.04818 44.3836 3.73709 48.0469 4.97644 47.9271C5.62386 47.8684 6.19246 46.847 6.53507 45.1243C6.89457 43.3131 6.97258 40.9366 6.749 38.4329C6.26967 33.026 4.62659 29.394 3.39207 29.394ZM4.91853 48.2608C3.31567 48.2608 1.69591 44.1584 1.23106 38.9211C1.00667 36.3869 1.08388 33.979 1.45062 32.1365C1.82942 30.2304 2.4873 29.1399 3.30441 29.0675C4.9306 28.9275 6.60504 33.0694 7.07874 38.4016C7.30313 40.9365 7.22592 43.3469 6.85838 45.1886C6.47958 47.0955 5.82331 48.1852 5.0062 48.256C4.97644 48.2576 4.94748 48.2608 4.91853 48.2608Z" fill="#28518A"/>
<path d="M6.91468 38.4169C7.37471 43.6252 6.51497 47.9577 4.99172 48.0928C3.46767 48.2271 1.85677 44.115 1.39593 38.9067C0.933489 33.6992 1.79484 29.3675 3.31889 29.2316C4.84133 29.0989 6.45143 33.2102 6.91468 38.4169Z" fill="#ECF1F9"/>
<path d="M3.39207 29.394C3.37277 29.394 3.35186 29.3956 3.33175 29.398C2.68514 29.4551 2.11654 30.4765 1.77473 32.2C1.41523 34.0128 1.33883 36.3909 1.5608 38.8922C2.04818 44.3836 3.73709 48.0469 4.97644 47.9271C5.62386 47.8684 6.19246 46.847 6.53507 45.1243C6.89457 43.3131 6.97258 40.9366 6.749 38.4329C6.26967 33.026 4.62659 29.394 3.39207 29.394ZM4.91853 48.2608C3.31567 48.2608 1.69591 44.1584 1.23106 38.9211C1.00667 36.3869 1.08388 33.979 1.45062 32.1365C1.82942 30.2304 2.4873 29.1399 3.30441 29.0675C4.9306 28.9275 6.60504 33.0694 7.07874 38.4016C7.30313 40.9365 7.22592 43.3469 6.85838 45.1886C6.47958 47.0955 5.82331 48.1852 5.0062 48.256C4.97644 48.2576 4.94748 48.2608 4.91853 48.2608Z" fill="#28518A"/>
<path d="M5.31017 38.5466C5.5796 41.6258 5.19177 44.1753 4.44449 44.2432C3.69662 44.31 2.87262 41.869 2.6038 38.7904C2.33437 35.7129 2.721 33.1623 3.46887 33.0949C4.21554 33.0269 5.04074 35.4679 5.31017 38.5466Z" fill="#28518A"/>
<path d="M3.33785 32.9984C2.69611 33.0545 2.21304 35.4718 2.51423 38.8533C2.8064 42.1658 3.69838 44.4741 4.31431 44.4741L4.3343 44.4735C4.57358 44.4522 4.89606 43.9949 5.08504 42.7753C5.25789 41.6531 5.27594 40.1781 5.13857 38.6186C4.84124 35.2577 3.96603 32.9984 3.33785 32.9984ZM4.31431 44.7399C3.31076 44.7399 2.50069 41.7182 2.24851 38.8765C1.99053 35.9671 2.26915 32.8268 3.29334 32.7359C4.31238 32.6424 5.14631 35.7124 5.403 38.596C5.54296 40.1742 5.52296 41.6731 5.34624 42.8172C5.21596 43.6641 4.93734 44.6857 4.35817 44.7373C4.34269 44.7392 4.3285 44.7399 4.31431 44.7399Z" fill="#28518A"/>
<path d="M6.51804 39.5396C6.51804 39.5396 6.57836 40.0905 6.58238 40.9277C6.59364 41.7626 6.547 42.878 6.41028 43.9855C6.33789 44.5404 6.24379 45.0913 6.11109 45.6004C5.97759 46.1079 5.81513 46.5784 5.57949 46.9435C5.46689 47.1269 5.32454 47.2789 5.1661 47.3714C5.0133 47.4767 4.83958 47.484 4.71332 47.484C4.58544 47.4631 4.49134 47.4293 4.43424 47.3939C4.37473 47.3641 4.34497 47.3456 4.34497 47.3456C4.34497 47.3456 4.38116 47.3545 4.44389 47.3674C4.50582 47.3891 4.59992 47.3923 4.71492 47.3939C4.82832 47.3794 4.96424 47.3513 5.08648 47.2507C5.21355 47.1615 5.3358 47.0231 5.44196 46.8534C5.66474 46.5165 5.828 46.0588 5.96231 45.561C6.09742 45.0624 6.19473 44.5155 6.27194 43.9662C6.43359 42.8708 6.49552 41.7593 6.52528 40.9261C6.55504 40.0921 6.51804 39.5396 6.51804 39.5396Z" fill="#28518A"/>
<path d="M56.9312 28.9131L60.543 29.2324L58.871 48.0936L55.2591 47.7711C53.7367 47.6368 52.8745 43.306 53.3362 38.0985C53.7954 32.8902 55.4071 28.778 56.9312 28.9131Z" fill="#28518A"/>
<path d="M56.8585 29.0756C55.6223 29.0756 53.9793 32.7059 53.4991 38.1113C53.0085 43.655 54.0187 47.4969 55.2717 47.6078L58.7195 47.9135L60.3642 29.3828L56.9148 29.0772C56.8947 29.0756 56.877 29.0756 56.8585 29.0756ZM59.0195 48.2722L55.2427 47.936C53.6037 47.7904 52.6933 43.4611 53.1694 38.0823C53.6439 32.7502 55.3103 28.6067 56.9437 28.7474L60.7213 29.0836L59.0195 48.2722Z" fill="#28518A"/>
<path d="M53.8853 35.9406C53.9103 35.7082 53.9561 35.4621 53.9939 35.1991C54.0293 34.9361 54.088 34.661 54.1419 34.3763C54.1886 34.09 54.2658 33.7989 54.3317 33.5005C54.4049 33.2061 54.4837 32.9046 54.5706 32.6078C54.6623 32.3102 54.7531 32.0126 54.8625 31.7271C54.959 31.4368 55.0861 31.1601 55.1955 30.8915C55.3233 30.6269 55.4375 30.3688 55.5783 30.1363C55.7038 29.8975 55.8533 29.6876 55.982 29.4897C56.1316 29.3055 56.2579 29.1254 56.4034 28.9911C56.434 28.9557 56.4686 28.9283 56.5008 28.8962L56.9343 28.934C56.8418 29.0023 56.7308 29.082 56.6166 29.2042C56.4782 29.3224 56.3536 29.4865 56.2056 29.657C56.0753 29.8428 55.9265 30.0366 55.797 30.265C55.6563 30.4838 55.5341 30.7347 55.4006 30.9872C55.2823 31.2478 55.1512 31.5132 55.0435 31.7963C54.9277 32.0754 54.8287 32.3657 54.7282 32.6568C54.6341 32.9488 54.5432 33.2423 54.4604 33.5351C54.3872 33.827 54.3003 34.1141 54.244 34.398C54.1797 34.6787 54.1146 34.9522 54.0695 35.2111C54.0221 35.4725 53.9682 35.7178 53.9368 35.947C53.862 36.403 53.8105 36.7867 53.784 37.0545C53.7502 37.3223 53.7285 37.4775 53.7285 37.4775C53.7285 37.4775 53.7446 37.3223 53.7679 37.0545C53.788 36.7834 53.8266 36.399 53.8853 35.9406Z" fill="#ECF1F9"/>
<path d="M54.8358 36.0243C54.8591 35.7942 54.9033 35.5457 54.9419 35.2827C54.9789 35.0198 55.0376 34.7455 55.0891 34.4584C55.1398 34.1745 55.2162 33.8825 55.2813 33.585C55.3537 33.2874 55.4317 32.9898 55.5186 32.6907C55.6111 32.3947 55.7012 32.0971 55.8113 31.8108C55.9087 31.5213 56.0333 31.2446 56.1459 30.976C56.2714 30.7122 56.3896 30.4516 56.5247 30.2208C56.6518 29.9828 56.8006 29.7736 56.9309 29.5742C57.0812 29.3892 57.2091 29.2115 57.3507 29.0756C57.3828 29.0386 57.4182 29.012 57.4528 28.9799L57.8823 29.0169C57.7922 29.0868 57.6804 29.1656 57.5638 29.2879C57.4271 29.4053 57.3024 29.5734 57.1544 29.7415C57.0241 29.9265 56.8746 30.1227 56.7451 30.3495C56.6035 30.5682 56.4845 30.8184 56.3486 31.0709C56.2312 31.3323 56.1017 31.5985 55.9955 31.8816C55.8749 32.159 55.7784 32.451 55.6778 32.7413C55.5805 33.0325 55.4929 33.3276 55.4084 33.6179C55.3352 33.9123 55.25 34.1986 55.1921 34.4809C55.1301 34.764 55.0626 35.0358 55.0183 35.2964C54.9717 35.5578 54.917 35.8023 54.8857 36.0323C54.8109 36.4883 54.7594 36.8695 54.7312 37.1381C54.6975 37.4092 54.679 37.5604 54.679 37.5604C54.679 37.5604 54.6918 37.4068 54.7143 37.1381C54.7345 36.8687 54.7755 36.4843 54.8358 36.0243Z" fill="#ECF1F9"/>
<path d="M55.8919 35.3672C55.9289 35.1026 55.9868 34.8307 56.0399 34.5436C56.0881 34.2573 56.1637 33.9662 56.2297 33.6694C56.3021 33.3726 56.3841 33.0735 56.4685 32.7751C56.5634 32.4783 56.6511 32.1799 56.7589 31.8952C56.8586 31.6049 56.9825 31.3307 57.0942 31.0596C57.2221 30.795 57.3371 30.5361 57.4771 30.306C57.6009 30.0664 57.7497 29.8565 57.88 29.6586C58.0296 29.4728 58.155 29.2951 58.3014 29.1592C58.332 29.1222 58.3666 29.0948 58.4003 29.0635L58.8314 29.1013C58.7389 29.1712 58.6303 29.2501 58.5145 29.3723C58.3762 29.4897 58.2507 29.657 58.1052 29.8275C57.9741 30.0117 57.8253 30.2047 57.695 30.4331C57.5519 30.6535 57.4328 30.9028 57.2993 31.1545C57.1795 31.4167 57.0508 31.6829 56.9438 31.9644C56.8248 32.2435 56.7291 32.5346 56.6262 32.8241C56.5305 33.1161 56.4404 33.4112 56.36 33.7032C56.2844 33.9951 56.2007 34.283 56.1412 34.5653C56.0777 34.8484 56.0133 35.1195 55.9675 35.38C55.92 35.6414 55.8686 35.8867 55.8364 36.1167C55.7624 36.5727 55.7085 36.954 55.6788 37.2226C55.6482 37.4912 55.6289 37.644 55.6289 37.644C55.6289 37.644 55.6426 37.4912 55.6667 37.2218C55.6868 36.9523 55.7254 36.5679 55.7849 36.1079C55.8091 35.8771 55.8533 35.631 55.8919 35.3672Z" fill="#ECF1F9"/>
<path d="M56.8418 35.4516C56.8772 35.1886 56.9343 34.9135 56.9882 34.628C57.0397 34.3425 57.1137 34.0514 57.1772 33.7538C57.252 33.4571 57.3308 33.1571 57.4185 32.8587C57.5134 32.5635 57.6003 32.2668 57.7072 31.9805C57.8086 31.6893 57.9308 31.4135 58.0434 31.1432C58.1697 30.8811 58.2863 30.6213 58.427 30.3897C58.5501 30.1508 58.7021 29.9409 58.8308 29.7422C58.982 29.5581 59.1074 29.3787 59.2514 29.2444C59.2827 29.209 59.3165 29.1793 59.3487 29.1471L59.7822 29.1849C59.6897 29.2541 59.5795 29.3345 59.4613 29.4567C59.3254 29.5742 59.2007 29.7398 59.0511 29.9095C58.9241 30.0969 58.772 30.2915 58.6442 30.5175C58.5018 30.7363 58.382 30.9872 58.2477 31.2397C58.1294 31.5011 57.9992 31.7665 57.8938 32.0496C57.774 32.3287 57.6775 32.6182 57.5737 32.9086C57.4796 33.2005 57.392 33.4957 57.3075 33.786C57.2327 34.0803 57.1483 34.3659 57.0896 34.6498C57.0284 34.932 56.9617 35.2031 56.9182 35.4645C56.8692 35.725 56.8161 35.9703 56.7847 36.1987C56.7116 36.6563 56.6577 37.0392 56.6287 37.307C56.5957 37.5764 56.5789 37.73 56.5789 37.73C56.5789 37.73 56.5909 37.5764 56.6167 37.3062C56.6335 37.036 56.677 36.6515 56.7317 36.1923C56.7582 35.9607 56.804 35.7154 56.8418 35.4516Z" fill="#ECF1F9"/>
<path d="M56.8585 29.0756C55.6223 29.0756 53.9793 32.7059 53.4991 38.1113C53.0085 43.655 54.0187 47.4969 55.2717 47.6078L58.7195 47.9135L60.3642 29.3828L56.9148 29.0772C56.8947 29.0756 56.877 29.0756 56.8585 29.0756ZM59.0195 48.2722L55.2427 47.936C53.6037 47.7904 52.6933 43.4611 53.1694 38.0823C53.6439 32.7502 55.3103 28.6067 56.9437 28.7474L60.7213 29.0836L59.0195 48.2722Z" fill="#28518A"/>
<path d="M56.9457 38.4169C56.4865 43.6252 57.3454 47.9577 58.8703 48.0928C60.3943 48.2271 62.0028 44.115 62.4653 38.9067C62.9261 33.6992 62.0647 29.3675 60.5423 29.2316C59.0183 29.0989 57.4073 33.2102 56.9457 38.4169Z" fill="#ECF1F9"/>
<path d="M60.4697 29.3941C59.2352 29.3941 57.5897 33.026 57.1104 38.433C56.8884 40.9366 56.9656 43.3132 57.3251 45.1243C57.6653 46.847 58.2371 47.8684 58.8853 47.9271C58.9038 47.9296 58.9231 47.9295 58.9424 47.9295C60.1778 47.9295 61.82 44.2976 62.3018 38.8922C62.7908 33.351 61.779 29.5083 60.5268 29.3981C60.5083 29.3957 60.489 29.3941 60.4697 29.3941ZM58.9424 48.2609C58.9135 48.2609 58.8853 48.2577 58.854 48.2561C58.0377 48.1853 57.3798 47.0955 57.0018 45.1887C56.6335 43.3469 56.5562 40.9366 56.7822 38.4016C57.2471 33.166 58.866 29.0651 60.4697 29.0651C60.4987 29.0651 60.5268 29.0667 60.5558 29.0675C62.1964 29.2139 63.1068 33.5424 62.6299 38.9212C62.1651 44.1584 60.5437 48.2609 58.9424 48.2609Z" fill="#28518A"/>
<path d="M56.9457 38.4169C56.4865 43.6252 57.3454 47.9577 58.8703 48.0928C60.3943 48.2271 62.0028 44.115 62.4653 38.9067C62.9261 33.6992 62.0647 29.3675 60.5423 29.2316C59.0183 29.0989 57.4073 33.2102 56.9457 38.4169Z" fill="#ECF1F9"/>
<path d="M60.4697 29.3941C59.2352 29.3941 57.5897 33.026 57.1104 38.433C56.8884 40.9366 56.9656 43.3132 57.3251 45.1243C57.6653 46.847 58.2371 47.8684 58.8853 47.9271C58.9038 47.9296 58.9231 47.9295 58.9424 47.9295C60.1778 47.9295 61.82 44.2976 62.3018 38.8922C62.7908 33.351 61.779 29.5083 60.5268 29.3981C60.5083 29.3957 60.489 29.3941 60.4697 29.3941ZM58.9424 48.2609C58.9135 48.2609 58.8853 48.2577 58.854 48.2561C58.0377 48.1853 57.3798 47.0955 57.0018 45.1887C56.6335 43.3469 56.5562 40.9366 56.7822 38.4016C57.2471 33.166 58.866 29.0651 60.4697 29.0651C60.4987 29.0651 60.5268 29.0667 60.5558 29.0675C62.1964 29.2139 63.1068 33.5424 62.6299 38.9212C62.1651 44.1584 60.5437 48.2609 58.9424 48.2609Z" fill="#28518A"/>
<path d="M60.1511 33.3495C59.5922 33.3495 58.8371 35.5136 58.5813 38.7357C58.4628 40.2309 58.4789 41.645 58.628 42.7209C58.7898 43.8901 59.0678 44.3285 59.2747 44.3489L59.2919 44.3495C59.823 44.3495 60.5921 42.1366 60.8451 38.9608C61.1037 35.7189 60.6867 33.4014 60.1511 33.3495ZM59.2919 44.6043C59.278 44.6043 59.2669 44.6037 59.253 44.6018C58.7548 44.5524 58.5151 43.5729 58.4011 42.7611C58.2509 41.6641 58.2315 40.2272 58.3521 38.7141C58.5718 35.9904 59.2686 33.0935 60.135 33.0935C60.1472 33.0935 60.1595 33.0947 60.1717 33.096C61.0548 33.1832 61.2967 36.1938 61.0726 38.9831C60.8546 41.7074 60.1572 44.6043 59.2919 44.6043Z" fill="#28518A"/>
<path d="M58.3488 38.7304C58.112 41.7103 58.4519 44.1775 59.1062 44.2433C59.7601 44.3079 60.481 41.9457 60.7162 38.9663C60.9525 35.9882 60.6137 33.5198 59.9588 33.4546C59.3055 33.3888 58.5835 35.751 58.3488 38.7304Z" fill="#28518A"/>
<path d="M57.3427 39.5396C57.3427 39.5396 57.304 40.0921 57.3354 40.9261C57.3628 41.7593 57.4255 42.8708 57.5888 43.9662C57.6652 44.5155 57.7617 45.0624 57.8984 45.561C58.0319 46.0588 58.196 46.5165 58.4179 46.8534C58.5233 47.0231 58.6463 47.1615 58.7718 47.2507C58.8965 47.3513 59.0324 47.3794 59.1466 47.3939C59.26 47.3923 59.3549 47.3891 59.4152 47.3674C59.4787 47.3545 59.5133 47.3456 59.5133 47.3456C59.5133 47.3456 59.4828 47.3641 59.4265 47.3939C59.3686 47.4293 59.2745 47.4631 59.1474 47.484C59.0219 47.484 58.8474 47.4767 58.6938 47.3714C58.5346 47.2789 58.3946 47.1269 58.2796 46.9435C58.044 46.5784 57.8807 46.1079 57.748 45.6004C57.6153 45.0913 57.5212 44.5404 57.4496 43.9855C57.3121 42.878 57.2646 41.7626 57.2767 40.9277C57.2815 40.0905 57.3427 39.5396 57.3427 39.5396Z" fill="#28518A"/>
<path d="M11.8706 27.3382C11.8706 27.3382 11.9556 27.1074 12.1063 26.7058C12.1802 26.5028 12.2824 26.2631 12.4139 25.9912C12.5414 25.7148 12.676 25.4009 12.8641 25.0762C13.0442 24.7489 13.2365 24.392 13.4682 24.0271C13.6887 23.6559 13.9396 23.274 14.2148 22.8885C14.4769 22.4959 14.7885 22.1095 15.091 21.7106C15.4148 21.3269 15.7254 20.9235 16.0734 20.5487C16.4134 20.1642 16.7705 19.793 17.1277 19.4325C17.4808 19.0694 17.8582 18.734 18.2163 18.4058C18.9478 17.7591 19.6813 17.2037 20.3299 16.752C20.6526 16.5257 20.9703 16.3406 21.2445 16.1698C21.5308 16.0141 21.7807 15.8791 21.9861 15.7691C22.4161 15.5777 22.662 15.4677 22.662 15.4677C22.662 15.4677 22.4303 15.5982 22.0276 15.829C21.8374 15.9533 21.6037 16.1063 21.3356 16.2807C21.0816 16.4685 20.7872 16.6742 20.4796 16.9112C20.1761 17.1536 19.8402 17.4094 19.5114 17.7028C19.1704 17.9881 18.8375 18.3083 18.4824 18.632C18.1334 18.9603 17.7792 19.3082 17.4322 19.666C17.0822 20.0255 16.7331 20.394 16.3992 20.775C16.0522 21.1444 15.7406 21.5406 15.4148 21.9172C15.1163 22.3107 14.7915 22.6801 14.5214 23.062C14.2432 23.4395 13.967 23.8044 13.7332 24.1603C13.4813 24.5092 13.2709 24.8535 13.0736 25.171C12.8702 25.4867 12.7073 25.7828 12.5546 26.0449C12.3998 26.3015 12.2753 26.535 12.1832 26.7309C11.9829 27.1181 11.8706 27.3382 11.8706 27.3382Z" fill="#28518A"/>
<path d="M9.7124 28.4173C9.7124 28.4173 9.79717 28.1293 9.9483 27.6265C9.98609 27.5004 10.03 27.3607 10.077 27.2107C10.1342 27.0599 10.1954 26.8996 10.2628 26.7258C10.3997 26.3832 10.5324 25.9861 10.7448 25.5745C10.943 25.1621 11.1472 24.7071 11.4137 24.2477C11.5414 24.0151 11.6731 23.7765 11.8089 23.5302C11.9591 23.2942 12.1122 23.0513 12.2705 22.8033C12.5728 22.3057 12.9517 21.8217 13.304 21.3146C13.497 21.0692 13.69 20.8204 13.8861 20.5724C14.078 20.3219 14.2792 20.0773 14.4927 19.837C14.7061 19.5984 14.9205 19.3615 15.133 19.1221C15.3597 18.8928 15.5833 18.6636 15.8059 18.4369C16.0245 18.2051 16.2614 17.9921 16.4912 17.7774C16.725 17.5669 16.9425 17.3479 17.1815 17.1502C17.6492 16.7488 18.1087 16.3696 18.5816 16.0381C19.0309 15.6904 19.5017 15.4024 19.9214 15.1255C20.3503 14.8587 20.7659 14.6397 21.1325 14.4429C21.5155 14.269 21.8402 14.1071 22.12 13.9912C22.6919 13.7876 23.0218 13.6691 23.0218 13.6691C23.0218 13.6691 22.7072 13.8089 22.1578 14.0526C21.8933 14.1838 21.5798 14.3594 21.2183 14.5528C20.8711 14.7676 20.48 15.007 20.0664 15.2814C19.663 15.5711 19.2147 15.8694 18.7858 16.2273C18.3395 16.5682 17.9065 16.9635 17.446 17.3598C17.2142 17.5566 17.0018 17.7757 16.774 17.9861C16.5504 18.1983 16.3206 18.4148 16.1082 18.6448C15.8917 18.8707 15.6732 19.099 15.4546 19.33C15.2484 19.566 15.04 19.8055 14.8327 20.0424C14.6162 20.2776 14.4181 20.5179 14.222 20.7624C14.0249 21.0062 13.8289 21.2482 13.6359 21.4893C13.2785 21.9861 12.8955 22.4616 12.5871 22.9508C12.4268 23.1928 12.2675 23.4297 12.1122 23.6615C11.9682 23.8984 11.8273 24.131 11.6895 24.3568C11.4015 24.8042 11.1789 25.2456 10.9624 25.6512C10.7367 26.0526 10.5743 26.4335 10.4099 26.7667C10.3313 26.9354 10.2567 27.0914 10.1883 27.2371C10.1301 27.3854 10.0739 27.5217 10.0259 27.6436C9.82371 28.1353 9.7124 28.4173 9.7124 28.4173Z" fill="#28518A"/>
<path d="M47.9599 66.1835C47.9599 66.1835 47.6752 66.2358 47.1758 66.3291C46.6731 66.416 45.967 66.5543 45.1089 66.6942C44.677 66.7674 44.2153 66.8446 43.7239 66.9259C43.2358 67.0208 42.709 67.0561 42.1669 67.114C41.0844 67.2226 39.9295 67.3384 38.7738 67.4534C37.6157 67.4993 36.4552 67.5451 35.3686 67.587C34.8274 67.6046 34.3014 67.636 33.8028 67.6207C33.3041 67.6127 32.8328 67.6046 32.401 67.5966C31.53 67.5853 30.8053 67.5548 30.2986 67.5427C29.7904 67.525 29.5024 67.513 29.5024 67.513C29.5024 67.513 29.7912 67.5001 30.2986 67.4792C30.8061 67.4655 31.5299 67.4293 32.3985 67.414C32.8288 67.4028 33.3009 67.3907 33.7971 67.3794C34.2933 67.3754 34.8185 67.3199 35.3598 67.299C36.4423 67.2451 37.5964 67.184 38.7513 67.1237C39.9014 67.0232 41.0538 66.925 42.1331 66.8318C42.672 66.773 43.198 66.7642 43.6886 66.6894C44.184 66.6259 44.6488 66.5656 45.0807 66.5117C45.9429 66.3999 46.6627 66.3283 47.1653 66.2656C47.6696 66.2125 47.9599 66.1835 47.9599 66.1835Z" fill="#28518A"/>
<path d="M48.0851 65.8168C48.0851 65.8168 47.7932 65.8635 47.2769 65.9431C46.7613 66.0187 46.0246 66.1361 45.1392 66.2527C44.6952 66.313 44.2151 66.379 43.706 66.4466C43.2025 66.5246 42.6613 66.5672 42.1039 66.6122C40.986 66.7015 39.7957 66.7996 38.6055 66.8945C38.0087 66.9291 37.4111 66.9331 36.8232 66.9564C36.2386 66.9725 35.6579 66.9878 35.0989 67.0055C34.54 67.0208 34.0003 67.0393 33.4856 67.032C32.9733 67.0232 32.4908 67.0152 32.0428 67.0055C31.1461 66.991 30.4021 66.9597 29.8794 66.9484C29.359 66.9259 29.0623 66.9146 29.0623 66.9146C29.0623 66.9146 29.359 66.9034 29.8794 66.8841C30.4029 66.8696 31.1461 66.8358 32.0396 66.8213C32.4859 66.8109 32.9709 66.8012 33.4832 66.7916C33.9939 66.7787 34.5344 66.7353 35.0933 66.72C35.6507 66.6943 36.2241 66.6717 36.812 66.6476C37.3959 66.6203 37.9902 66.6042 38.5861 66.5648C39.7732 66.4835 40.9611 66.4039 42.075 66.3283C42.6307 66.2841 43.1704 66.268 43.6811 66.2077C44.1893 66.1594 44.6711 66.1136 45.1175 66.0686C46.0053 65.9809 46.7509 65.927 47.2704 65.8796C47.7916 65.841 48.0851 65.8168 48.0851 65.8168Z" fill="#28518A"/>
<path d="M48.0922 65.5812C48.0922 65.5812 47.793 65.615 47.2606 65.6745C46.7314 65.7267 45.9754 65.8144 45.065 65.8948C44.6122 65.9375 44.12 65.9825 43.5989 66.0316C43.0801 66.0838 42.526 66.1168 41.959 66.1506C40.8178 66.2157 39.6002 66.2857 38.3849 66.3605C37.1673 66.3886 35.9513 66.4176 34.8093 66.4466C34.2374 66.4594 33.6849 66.4747 33.1638 66.4634C32.6394 66.457 32.1448 66.4506 31.688 66.4466C30.776 66.4385 30.0127 66.4095 29.4827 66.3999C28.9495 66.3822 28.6455 66.3726 28.6455 66.3726C28.6455 66.3726 28.9495 66.3605 29.4827 66.3348C30.0127 66.3203 30.7744 66.2801 31.6872 66.26C32.1416 66.2495 32.6362 66.2358 33.1565 66.223C33.6809 66.2125 34.231 66.1723 34.802 66.1594C35.9416 66.1184 37.1569 66.0734 38.3705 66.0291C39.5849 65.9736 40.8001 65.9165 41.9397 65.8635C42.5075 65.8313 43.0592 65.8257 43.5804 65.7911C44.1031 65.7629 44.5962 65.7372 45.053 65.7099C45.9642 65.6608 46.7242 65.6375 47.2566 65.6101C47.789 65.5916 48.0922 65.5812 48.0922 65.5812Z" fill="#28518A"/>
<path d="M29.6992 0.624451H34.6882L36.0488 19.1496C36.0488 19.1496 33.7403 19.8691 32.1937 19.8691C30.6471 19.8691 28.3386 19.1496 28.3386 19.1496L29.6992 0.624451Z" fill="#ECF1F9"/>
<path fill-rule="evenodd" clip-rule="evenodd" d="M30.5753 0H31.8343L32.0142 17.6259C32.0142 17.6259 32.0142 17.6259 32.194 17.8058C32.3739 17.6259 32.3739 17.6259 32.3739 17.6259L32.5538 0H33.8127C33.8101 0.129808 35.0934 0.325801 35.2516 0.359712C35.2516 0.359712 36.1057 15.9076 36.1057 17.3257C36.1057 18.7438 38.1293 19.6043 38.1293 19.6043C38.1293 19.6043 35.2516 20.8633 32.194 20.8633C29.1365 20.8633 26.2588 19.6043 26.2588 19.6043C26.2588 19.6043 28.2821 18.7438 28.2821 17.3257C28.2821 15.9076 29.1365 0.359712 29.1365 0.359712C29.2948 0.32577 30.578 0.130018 30.5753 0ZM29.7924 4.67061C29.7068 9.4038 29.5861 16.2408 29.5861 17.1466C29.5861 18.5497 28.7168 19.0175 28.7168 19.0175C28.7168 19.0175 30.8251 19.5093 32.1936 19.5093C33.562 19.5093 35.671 19.0175 35.671 19.0175C35.671 19.0175 34.8018 18.5497 34.8018 17.1466C34.8018 16.24 34.6808 9.39172 34.5952 4.65807C34.5004 9.37704 34.3671 16.1776 34.3671 17.1011C34.3671 18.5341 34.688 18.6101 34.688 18.6101C34.688 18.6101 33.334 18.9698 32.1936 18.9698C31.0532 18.9698 29.6991 18.6101 29.6991 18.6101C29.6991 18.6101 30.0207 18.5341 30.0207 17.1011C30.0207 16.1784 29.8874 9.38907 29.7924 4.67061Z" fill="#28518A"/>
<circle cx="33.9928" cy="41.1871" r="8.45324" fill="#ECF1F9"/>
<path d="M22.7648 41.7266C20.3476 33.9426 27.8691 27.9465 34.5325 30.4213C27.0715 30.2161 22.9243 33.6206 22.7648 41.7266Z" fill="#ECF1F9"/>
</svg>
