<svg width="1920" height="40" viewBox="0 0 1920 40" fill="none" xmlns="http://www.w3.org/2000/svg">
<path d="M0 0H1920V20.8696C1920 20.8696 1833.2 33.1017 1740 33.0724C1645.63 33.0427 1576.69 15.9238 1482.5 11.7354C1388.34 7.54798 1285.85 31.0007 1191.5 30.8696C1096 30.7368 1053.89 24.5002 958.5 27.8261C864.727 31.0956 848.385 40 754.5 40C660.615 40 572.373 31.0659 478.5 30C384.994 28.9382 360.518 30.9435 267 30.8696C172.315 30.7948 0 13.913 0 13.913V0Z" fill="#4D82CB" fill-opacity="0.75"/>
<path d="M0 0H1920V31.9214C1920 31.9214 1796.67 16.1536 1703.47 16.1361C1609.1 16.1185 1536.82 34.4141 1442.64 31.9214C1348.47 29.4294 1330.35 16.2142 1236.01 16.1361C1140.51 16.0571 1066.89 25.7988 971.5 27.7781C877.727 29.7239 876.386 12.2775 782.501 12.2775C688.616 12.2775 572.068 40.6239 478.195 39.9895C384.689 39.3576 244.329 14.0754 150.811 14.0314C56.1267 13.9869 0 33.6605 0 33.6605V0Z" fill="white" fill-opacity="0.5"/>
<path d="M0 0H1920V19.3065C1920 19.3065 1789.2 6.22743 1696 6.21085C1601.63 6.19407 1534.19 21.6752 1440 19.3065C1345.84 16.9385 1295.85 3.89527 1201.5 3.82109C1106 3.74599 1066.89 24.5153 971.5 26.3961C877.727 28.2451 813.885 13.6755 720 13.6755C626.115 13.6755 563.373 32.5887 469.5 31.9859C375.994 31.3854 335.018 10.7006 241.5 10.6588C146.815 10.6165 0 19.3065 0 19.3065V0Z" fill="url(#paint0_linear)"/>
<defs>
<linearGradient id="paint0_linear" x1="960" y1="0" x2="960" y2="32" gradientUnits="userSpaceOnUse">
<stop stop-color="#224577"/>
<stop offset="0.223958" stop-color="#224577"/>
<stop offset="1" stop-color="#28518A" stop-opacity="0.75"/>
</linearGradient>
</defs>
</svg>
