<svg width="145" height="68" viewBox="0 0 145 68" fill="none" xmlns="http://www.w3.org/2000/svg">
<path d="M12.942 0.399999L7.578 10.372C7.062 11.332 6.438 12.058 5.706 12.55C4.986 13.042 4.2 13.288 3.348 13.288C2.688 13.288 2.004 13.144 1.296 12.856L1.998 10.642C2.502 10.798 2.922 10.876 3.258 10.876C3.618 10.876 3.942 10.792 4.23 10.624C4.518 10.444 4.782 10.168 5.022 9.796L5.13 9.652L0.162 0.399999H3.276L6.624 7.168L10.08 0.399999H12.942ZM26.2014 0.399999V13H25.2834V1.228H16.7514V13H15.8334V0.399999H26.2014ZM35.7976 0.399999C37.3816 0.399999 38.6236 0.777999 39.5236 1.534C40.4236 2.278 40.8736 3.316 40.8736 4.648C40.8736 5.968 40.4236 7.006 39.5236 7.762C38.6236 8.506 37.3816 8.878 35.7976 8.878H32.1976V13H31.2796V0.399999H35.7976ZM35.7976 8.05C37.1416 8.05 38.1676 7.756 38.8756 7.168C39.5836 6.58 39.9376 5.74 39.9376 4.648C39.9376 3.556 39.5836 2.716 38.8756 2.128C38.1676 1.528 37.1416 1.228 35.7976 1.228H32.1976V8.05H35.7976ZM51.694 9.454H44.386L42.784 13H41.794L47.59 0.399999H48.508L54.304 13H53.314L51.694 9.454ZM51.352 8.68L48.04 1.408L44.746 8.68H51.352ZM64.5532 6.52C65.4892 6.676 66.1912 7.018 66.6592 7.546C67.1392 8.074 67.3792 8.776 67.3792 9.652C67.3792 10.732 67.0012 11.56 66.2452 12.136C65.4892 12.712 64.3672 13 62.8792 13H57.4612V0.399999H62.5372C63.8572 0.399999 64.8832 0.675999 65.6152 1.228C66.3592 1.78 66.7312 2.572 66.7312 3.604C66.7312 4.336 66.5392 4.948 66.1552 5.44C65.7712 5.932 65.2372 6.292 64.5532 6.52ZM58.3792 6.232H62.5192C63.5752 6.232 64.3852 6.016 64.9492 5.584C65.5132 5.152 65.7952 4.528 65.7952 3.712C65.7952 2.884 65.5132 2.254 64.9492 1.822C64.3852 1.39 63.5752 1.174 62.5192 1.174H58.3792V6.232ZM62.8972 12.226C65.2732 12.226 66.4612 11.35 66.4612 9.598C66.4612 8.698 66.1612 8.038 65.5612 7.618C64.9612 7.198 64.0732 6.988 62.8972 6.988H58.3792V12.226H62.8972ZM81.0232 0.399999V13H80.1052V1.228H73.5892L73.4272 5.854C73.3552 7.582 73.2052 8.974 72.9772 10.03C72.7612 11.074 72.4372 11.848 72.0052 12.352C71.5732 12.856 71.0032 13.108 70.2952 13.108C69.9712 13.108 69.6712 13.072 69.3952 13L69.5032 12.154C69.7072 12.202 69.9052 12.226 70.0972 12.226C70.6492 12.226 71.0932 12.016 71.4292 11.596C71.7772 11.164 72.0412 10.486 72.2212 9.562C72.4012 8.638 72.5212 7.408 72.5812 5.872L72.7612 0.399999H81.0232ZM94.7977 12.172V13H86.1037V0.399999H94.5277V1.228H87.0217V6.196H93.7357V7.006H87.0217V12.172H94.7977ZM108.663 0.399999V13H107.745V7.006H99.3215V13H98.4035V0.399999H99.3215V6.196H107.745V0.399999H108.663ZM113.744 0.399999H114.662V11.452L123.248 0.399999H124.058V13H123.14V1.966L114.554 13H113.744V0.399999ZM137.832 12.172V13H129.138V0.399999H137.562V1.228H130.056V6.196H136.77V7.006H130.056V12.172H137.832ZM13.05 18.4V31H10.152V20.776H4.464V31H1.566V18.4H13.05ZM22.8154 31.09C21.5794 31.09 20.4634 30.814 19.4674 30.262C18.4714 29.698 17.6854 28.93 17.1094 27.958C16.5454 26.986 16.2634 25.9 16.2634 24.7C16.2634 23.5 16.5454 22.414 17.1094 21.442C17.6854 20.47 18.4714 19.708 19.4674 19.156C20.4634 18.592 21.5794 18.31 22.8154 18.31C24.0514 18.31 25.1674 18.586 26.1634 19.138C27.1594 19.69 27.9394 20.452 28.5034 21.424C29.0794 22.396 29.3674 23.488 29.3674 24.7C29.3674 25.912 29.0794 27.004 28.5034 27.976C27.9394 28.948 27.1594 29.71 26.1634 30.262C25.1674 30.814 24.0514 31.09 22.8154 31.09ZM22.8154 30.244C23.8714 30.244 24.8254 30.004 25.6774 29.524C26.5294 29.044 27.2014 28.384 27.6934 27.544C28.1854 26.692 28.4314 25.744 28.4314 24.7C28.4314 23.656 28.1854 22.714 27.6934 21.874C27.2014 21.022 26.5294 20.356 25.6774 19.876C24.8254 19.396 23.8714 19.156 22.8154 19.156C21.7594 19.156 20.7994 19.396 19.9354 19.876C19.0834 20.356 18.4114 21.022 17.9194 21.874C17.4274 22.714 17.1814 23.656 17.1814 24.7C17.1814 25.744 17.4274 26.692 17.9194 27.544C18.4114 28.384 19.0834 29.044 19.9354 29.524C20.7994 30.004 21.7594 30.244 22.8154 30.244ZM44.1636 30.172V33.88H43.2816V31H31.7616L31.7436 33.88H30.8616L30.8796 30.172H31.5636C32.3916 30.1 32.9676 29.404 33.2916 28.084C33.6276 26.764 33.8316 24.916 33.9036 22.54L34.0296 18.4H42.2196V30.172H44.1636ZM34.7496 22.612C34.6776 24.652 34.5156 26.32 34.2636 27.616C34.0236 28.912 33.6096 29.764 33.0216 30.172H41.3016V19.228H34.8576L34.7496 22.612ZM54.732 24.52C55.668 24.676 56.37 25.018 56.838 25.546C57.318 26.074 57.558 26.776 57.558 27.652C57.558 28.732 57.18 29.56 56.424 30.136C55.668 30.712 54.546 31 53.058 31H47.64V18.4H52.716C54.036 18.4 55.062 18.676 55.794 19.228C56.538 19.78 56.91 20.572 56.91 21.604C56.91 22.336 56.718 22.948 56.334 23.44C55.95 23.932 55.416 24.292 54.732 24.52ZM48.558 24.232H52.698C53.754 24.232 54.564 24.016 55.128 23.584C55.692 23.152 55.974 22.528 55.974 21.712C55.974 20.884 55.692 20.254 55.128 19.822C54.564 19.39 53.754 19.174 52.698 19.174H48.558V24.232ZM53.076 30.226C55.452 30.226 56.64 29.35 56.64 27.598C56.64 26.698 56.34 26.038 55.74 25.618C55.14 25.198 54.252 24.988 53.076 24.988H48.558V30.226H53.076ZM67.08 31.09C65.844 31.09 64.728 30.814 63.732 30.262C62.736 29.698 61.95 28.93 61.374 27.958C60.81 26.986 60.528 25.9 60.528 24.7C60.528 23.5 60.81 22.414 61.374 21.442C61.95 20.47 62.736 19.708 63.732 19.156C64.728 18.592 65.844 18.31 67.08 18.31C68.316 18.31 69.432 18.586 70.428 19.138C71.424 19.69 72.204 20.452 72.768 21.424C73.344 22.396 73.632 23.488 73.632 24.7C73.632 25.912 73.344 27.004 72.768 27.976C72.204 28.948 71.424 29.71 70.428 30.262C69.432 30.814 68.316 31.09 67.08 31.09ZM67.08 30.244C68.136 30.244 69.09 30.004 69.942 29.524C70.794 29.044 71.466 28.384 71.958 27.544C72.45 26.692 72.696 25.744 72.696 24.7C72.696 23.656 72.45 22.714 71.958 21.874C71.466 21.022 70.794 20.356 69.942 19.876C69.09 19.396 68.136 19.156 67.08 19.156C66.024 19.156 65.064 19.396 64.2 19.876C63.348 20.356 62.676 21.022 62.184 21.874C61.692 22.714 61.446 23.656 61.446 24.7C61.446 25.744 61.692 26.692 62.184 27.544C62.676 28.384 63.348 29.044 64.2 29.524C65.064 30.004 66.024 30.244 67.08 30.244ZM88.4281 30.172V33.88H87.5461V31H76.0261L76.0081 33.88H75.1261L75.1441 30.172H75.8281C76.6561 30.1 77.2321 29.404 77.5561 28.084C77.8921 26.764 78.0961 24.916 78.1681 22.54L78.2941 18.4H86.4841V30.172H88.4281ZM79.0141 22.612C78.9421 24.652 78.7801 26.32 78.5281 27.616C78.2881 28.912 77.8741 29.764 77.2861 30.172H85.5661V19.228H79.1221L79.0141 22.612ZM102.164 18.4V31H101.246V25.006H92.8225V31H91.9045V18.4H92.8225V24.196H101.246V18.4H102.164ZM112.645 31.09C111.409 31.09 110.293 30.814 109.297 30.262C108.301 29.698 107.515 28.93 106.939 27.958C106.375 26.986 106.093 25.9 106.093 24.7C106.093 23.5 106.375 22.414 106.939 21.442C107.515 20.47 108.301 19.708 109.297 19.156C110.293 18.592 111.409 18.31 112.645 18.31C113.881 18.31 114.997 18.586 115.993 19.138C116.989 19.69 117.769 20.452 118.333 21.424C118.909 22.396 119.197 23.488 119.197 24.7C119.197 25.912 118.909 27.004 118.333 27.976C117.769 28.948 116.989 29.71 115.993 30.262C114.997 30.814 113.881 31.09 112.645 31.09ZM112.645 30.244C113.701 30.244 114.655 30.004 115.507 29.524C116.359 29.044 117.031 28.384 117.523 27.544C118.015 26.692 118.261 25.744 118.261 24.7C118.261 23.656 118.015 22.714 117.523 21.874C117.031 21.022 116.359 20.356 115.507 19.876C114.655 19.396 113.701 19.156 112.645 19.156C111.589 19.156 110.629 19.396 109.765 19.876C108.913 20.356 108.241 21.022 107.749 21.874C107.257 22.714 107.011 23.656 107.011 24.7C107.011 25.744 107.257 26.692 107.749 27.544C108.241 28.384 108.913 29.044 109.765 29.524C110.629 30.004 111.589 30.244 112.645 30.244ZM122.137 25.762H126.763V26.572H122.137V25.762ZM11.196 38.776H7.164V49H4.284V38.776H0.27V36.4H11.196V38.776ZM22.9629 48.172V49H14.2689V36.4H22.6929V37.228H15.1869V42.196H21.9009V43.006H15.1869V48.172H22.9629ZM26.0325 36.4L29.8305 41.71L33.6465 36.4H34.7445L30.4065 42.466L35.0865 49H33.9885L29.8305 43.24L25.7085 49H24.6285L29.2725 42.484L24.9525 36.4H26.0325ZM48.1968 36.4V49H47.2788V43.006H38.8548V49H37.9368V36.4H38.8548V42.196H47.2788V36.4H48.1968ZM53.2776 36.4H54.1956V47.452L62.7816 36.4H63.5916V49H62.6736V37.966L54.0876 49H53.2776V36.4ZM76.8516 36.4V49H75.9336V43.6C74.4816 44.236 73.0836 44.554 71.7396 44.554C70.3116 44.554 69.1956 44.212 68.3916 43.528C67.5996 42.832 67.2036 41.86 67.2036 40.612V36.4H68.1216V40.522C68.1216 41.53 68.4456 42.316 69.0936 42.88C69.7416 43.444 70.6476 43.726 71.8116 43.726C73.0956 43.726 74.4696 43.402 75.9336 42.754V36.4H76.8516ZM90.6141 48.172V49H81.9201V36.4H90.3441V37.228H82.8381V42.196H89.5521V43.006H82.8381V48.172H90.6141ZM99.5496 49.09C98.3136 49.09 97.1976 48.814 96.2016 48.262C95.2176 47.71 94.4376 46.948 93.8616 45.976C93.2976 45.004 93.0156 43.912 93.0156 42.7C93.0156 41.488 93.2976 40.396 93.8616 39.424C94.4376 38.452 95.2176 37.69 96.2016 37.138C97.1976 36.586 98.3136 36.31 99.5496 36.31C100.462 36.31 101.302 36.46 102.07 36.76C102.838 37.048 103.492 37.48 104.032 38.056L103.456 38.65C102.448 37.654 101.158 37.156 99.5856 37.156C98.5296 37.156 97.5696 37.396 96.7056 37.876C95.8416 38.356 95.1636 39.022 94.6716 39.874C94.1796 40.714 93.9336 41.656 93.9336 42.7C93.9336 43.744 94.1796 44.692 94.6716 45.544C95.1636 46.384 95.8416 47.044 96.7056 47.524C97.5696 48.004 98.5296 48.244 99.5856 48.244C101.146 48.244 102.436 47.74 103.456 46.732L104.032 47.326C103.492 47.902 102.832 48.34 102.052 48.64C101.284 48.94 100.45 49.09 99.5496 49.09ZM111.481 43.024H108.457V49H107.539V36.4H108.457V42.196H111.499L116.017 36.4H117.043L112.219 42.538L117.367 49H116.287L111.481 43.024ZM120.155 36.4H121.073V47.452L129.659 36.4H130.469V49H129.551V37.966L120.965 49H120.155V36.4ZM135.171 36.4L138.969 41.71L142.785 36.4H143.883L139.545 42.466L144.225 49H143.127L138.969 43.24L134.847 49H133.767L138.411 42.484L134.091 36.4H135.171ZM7.02 54.4C8.136 54.4 9.102 54.586 9.918 54.958C10.746 55.33 11.382 55.858 11.826 56.542C12.27 57.226 12.492 58.036 12.492 58.972C12.492 59.896 12.27 60.706 11.826 61.402C11.382 62.086 10.746 62.614 9.918 62.986C9.102 63.346 8.136 63.526 7.02 63.526H4.482V67H1.566V54.4H7.02ZM6.858 61.15C7.734 61.15 8.4 60.964 8.856 60.592C9.312 60.208 9.54 59.668 9.54 58.972C9.54 58.264 9.312 57.724 8.856 57.352C8.4 56.968 7.734 56.776 6.858 56.776H4.482V61.15H6.858ZM23.8074 63.454H16.4994L14.8974 67H13.9074L19.7034 54.4H20.6214L26.4174 67H25.4274L23.8074 63.454ZM23.4654 62.68L20.1534 55.408L16.8594 62.68H23.4654ZM29.5746 54.4H38.5566V55.21H30.4926V59.746H34.7586C36.2346 59.746 37.3566 60.046 38.1246 60.646C38.8926 61.246 39.2766 62.128 39.2766 63.292C39.2766 64.492 38.8686 65.41 38.0526 66.046C37.2366 66.682 36.0546 67 34.5066 67H29.5746V54.4ZM34.5246 66.226C35.7846 66.226 36.7386 65.986 37.3866 65.506C38.0346 65.014 38.3586 64.288 38.3586 63.328C38.3586 61.444 37.0806 60.502 34.5246 60.502H30.4926V66.226H34.5246ZM48.5224 67.09C47.2864 67.09 46.1704 66.814 45.1744 66.262C44.1784 65.698 43.3924 64.93 42.8164 63.958C42.2524 62.986 41.9704 61.9 41.9704 60.7C41.9704 59.5 42.2524 58.414 42.8164 57.442C43.3924 56.47 44.1784 55.708 45.1744 55.156C46.1704 54.592 47.2864 54.31 48.5224 54.31C49.7584 54.31 50.8744 54.586 51.8704 55.138C52.8664 55.69 53.6464 56.452 54.2104 57.424C54.7864 58.396 55.0744 59.488 55.0744 60.7C55.0744 61.912 54.7864 63.004 54.2104 63.976C53.6464 64.948 52.8664 65.71 51.8704 66.262C50.8744 66.814 49.7584 67.09 48.5224 67.09ZM48.5224 66.244C49.5784 66.244 50.5324 66.004 51.3844 65.524C52.2364 65.044 52.9084 64.384 53.4004 63.544C53.8924 62.692 54.1384 61.744 54.1384 60.7C54.1384 59.656 53.8924 58.714 53.4004 57.874C52.9084 57.022 52.2364 56.356 51.3844 55.876C50.5324 55.396 49.5784 55.156 48.5224 55.156C47.4664 55.156 46.5064 55.396 45.6424 55.876C44.7904 56.356 44.1184 57.022 43.6264 57.874C43.1344 58.714 42.8884 59.656 42.8884 60.7C42.8884 61.744 43.1344 62.692 43.6264 63.544C44.1184 64.384 44.7904 65.044 45.6424 65.524C46.5064 66.004 47.4664 66.244 48.5224 66.244ZM66.7343 55.228H62.1983V67H61.2803V55.228H56.7443V54.4H66.7343V55.228Z" fill="#ECF1F9"/>
</svg>
