<svg width="167" height="48" viewBox="0 0 167 48" fill="none" xmlns="http://www.w3.org/2000/svg">
<path fill-rule="evenodd" clip-rule="evenodd" d="M23.3045 15.8873C23.5588 16.0561 23.8411 16.2435 24.0319 16.334C24.373 16.4957 24.7691 16.6473 25.2203 16.7887C25.6715 16.9302 26.1698 17.0619 26.7153 17.1839C27.2759 17.2903 27.8822 17.3572 28.5342 17.3848C28.6915 16.0391 29.2154 13.7387 29.2154 13.7387C29.2154 13.7387 30.2506 6.55593 32.5778 2.70722C32.6611 2.5696 32.7411 2.43434 32.8191 2.30261C33.1565 1.73262 33.4549 1.22858 33.7993 0.885686C34.2384 0.447916 34.6718 0.218571 35.0992 0.197652C35.5901 0.173633 35.947 0.334575 36.17 0.680475C36.393 1.02638 36.5187 1.49597 36.5474 2.08926C36.5639 2.43283 36.5344 2.78454 36.4999 3.19647C36.4912 3.30025 36.4822 3.40786 36.4735 3.52012C36.1861 7.23551 34.9545 10.765 33.731 14.2717C33.3926 15.2414 33.0548 16.2094 32.7378 17.1791L32.9305 17.1534C34.4023 16.9573 35.4295 16.8204 36.8967 16.1743C38.4205 15.5033 40.4399 13.7945 40.4399 13.7945L41.0018 15.7712C39.7257 16.2945 38.3999 16.7756 37.0245 17.2146C35.6483 17.6388 34.0995 17.9376 32.378 18.111C32.0287 19.0945 31.6614 20.0342 31.2761 20.9303C30.9059 21.8107 30.562 22.5783 30.2445 23.2331C30.3003 24.0629 30.3915 24.9654 30.5178 25.9404C30.6593 26.8999 30.8771 27.7961 31.1712 28.6292C31.4811 29.4614 31.8871 30.1478 32.3893 30.6881C32.9073 31.2277 33.5621 31.4782 34.3537 31.4394C35.0187 31.4069 35.6158 31.1175 36.1449 30.5713C36.6733 30.0102 37.1478 29.3179 37.5683 28.4945C38.004 27.6555 38.3965 26.7443 38.7458 25.7608C39.0386 24.9366 39.3164 24.1496 39.5794 23.3999C39.7804 22.6389 40.0028 21.9518 40.2466 21.3387C40.6297 20.3982 41.0794 19.5213 41.5957 18.7081L42.4873 18.9321C42.4722 18.9477 42.4232 19.0839 42.3403 19.3407C42.2733 19.5967 42.179 19.9433 42.0572 20.3804C41.9513 20.8167 41.8327 21.3206 41.7016 21.8919C41.5863 22.4625 41.4727 23.0702 41.361 23.715C41.2643 24.3441 41.1843 24.9873 41.1207 25.6446C41.073 26.3011 41.0638 26.9334 41.0932 27.5415C41.1604 28.9357 41.4749 30.028 42.0367 30.8182C42.6136 31.5928 43.3296 31.9591 44.1846 31.9173C45.1345 31.8708 46.0282 31.3142 46.8655 30.2473C47.7021 29.1657 48.4794 27.6781 49.1975 25.7846C49.2985 24.9173 49.4499 24.1071 49.6516 23.3539C49.8692 22.5999 50.0828 21.9278 50.2924 21.3377C50.5178 20.7469 50.7242 20.2536 50.9114 19.8579C51.0986 19.4622 51.2365 19.1953 51.3251 19.0571L52.1649 19.1944C51.9652 20.3192 51.7918 21.3313 51.6447 22.2305C51.5128 23.1141 51.4085 23.9146 51.332 24.632C51.2555 25.3494 51.1992 25.9914 51.163 26.5581C51.142 27.1092 51.1422 27.6073 51.1636 28.0522C51.2065 28.9422 51.3913 29.6468 51.7178 30.166C52.0444 30.6852 52.5243 30.9294 53.1577 30.8984C53.5852 30.8775 53.9897 30.709 54.3712 30.393C54.7527 30.077 55.1408 29.5674 55.5353 28.8642C55.9299 28.161 56.3386 27.2564 56.7614 26.1504C57.1842 25.0444 57.6582 23.6831 58.1833 22.0666L58.2341 22.0762C58.5289 21.349 58.9001 20.6726 59.3476 20.0472C60.0021 19.138 60.7993 18.3928 61.7394 17.8116C62.6946 17.2147 63.7817 16.8865 65.0009 16.8268C65.6975 16.7928 66.2955 16.8527 66.7949 17.0067C67.3094 17.145 67.7293 17.2954 68.0546 17.4579C68.0717 15.5095 68.1708 13.7801 68.3519 12.2696C68.5323 10.7443 68.7619 9.41735 69.0408 8.28866C69.3348 7.14437 69.6614 6.18432 70.0208 5.40851C70.3794 4.61786 70.7535 3.98257 71.143 3.50262C71.5318 3.00785 71.9115 2.65476 72.2822 2.44334C72.668 2.21632 73.0271 2.09468 73.3596 2.07841C74.0721 2.04354 74.624 2.29901 75.0154 2.84481C75.4225 3.38984 75.6525 4.21115 75.7055 5.30873C75.7334 5.88719 75.6979 6.63228 75.599 7.54402C75.5152 8.44015 75.3656 9.451 75.1501 10.5766C74.9496 11.6866 74.6898 12.8812 74.3706 14.1606C74.0673 15.4391 73.7009 16.7282 73.2716 18.0278C72.8581 19.3266 72.3964 20.6129 71.8865 21.8867C71.3766 23.1605 70.8156 24.3624 70.2035 25.4926C70.3076 26.3349 70.4355 27.0125 70.5872 27.5255C70.7547 28.0376 70.9485 28.437 71.1687 28.7236C71.3881 28.9953 71.6349 29.1765 71.909 29.2671C72.1832 29.3578 72.4865 29.395 72.819 29.3787C73.2782 29.3563 73.7147 29.1937 74.1286 28.8909C74.5418 28.5734 74.9547 28.0848 75.3672 27.4254C75.7798 26.7659 76.1993 25.9202 76.6256 24.8884C77.0513 23.8417 77.5061 22.5781 77.9902 21.0974L78.9272 21.2745C78.5231 22.4391 78.1176 23.574 77.7106 24.6792C77.3029 25.7696 76.8503 26.7507 76.3528 27.6224C75.8703 28.4786 75.3246 29.1743 74.7156 29.7096C74.1066 30.2449 73.3984 30.5323 72.5909 30.5718C71.5934 30.6206 70.8044 30.3842 70.2238 29.8625C69.6424 29.326 69.1936 28.5749 68.8772 27.6091C68.0197 28.9148 67.0788 29.9718 66.0545 30.7802C65.0452 31.5729 63.9627 31.9976 62.8069 32.0541C62.1578 32.0859 61.527 32.0053 60.9147 31.8122C60.3016 31.6044 59.754 31.2743 59.272 30.8222C58.7892 30.3552 58.3875 29.7579 58.0667 29.0302C57.7861 28.3821 57.6086 27.6156 57.5343 26.7308C57.2951 27.3621 57.0365 27.9715 56.7585 28.559C56.4575 29.2279 56.1054 29.8249 55.7022 30.3501C55.3149 30.8746 54.8829 31.2971 54.4064 31.6178C53.9299 31.9385 53.3908 32.1135 52.7892 32.1429C52.2192 32.1708 51.7154 32.0914 51.278 31.9047C50.8405 31.718 50.4627 31.454 50.1447 31.1127C49.8426 30.7707 49.6005 30.3588 49.4186 29.8771C49.2518 29.3798 49.1544 28.8419 49.1266 28.2634C48.6758 29.1181 48.234 29.831 47.8014 30.4023C47.3687 30.9735 46.9306 31.4335 46.4872 31.7823C46.0596 32.1303 45.6194 32.3823 45.1667 32.5383C44.714 32.6942 44.2422 32.7842 43.7514 32.8082C43.3556 32.8276 42.9015 32.7903 42.3891 32.6965C41.8768 32.6026 41.3821 32.3815 40.905 32.0332C40.4431 31.6692 40.0367 31.139 39.6857 30.4426C39.3505 29.7454 39.154 28.796 39.0961 27.5946L39.0932 27.5311C38.8607 28.0708 38.6086 28.6024 38.3367 29.1259C37.9875 29.7823 37.5958 30.3813 37.1617 30.9229C36.7268 31.4497 36.2398 31.8824 35.7007 32.2209C35.1609 32.5447 34.5664 32.7225 33.9172 32.7542C33.2206 32.7883 32.5563 32.6722 31.9246 32.4057C31.3086 32.1385 30.7528 31.6379 30.2572 30.904C29.7767 30.1544 29.3704 29.1336 29.0383 27.8415C28.7213 26.5338 28.5139 24.864 28.4159 22.832C28.3373 21.2004 28.359 19.6755 28.481 18.2571C27.1115 18.1606 25.9594 17.9642 25.0246 17.668C24.0733 17.3578 23.3365 17.0519 22.8141 16.7504C22.8141 16.7504 22.5702 15.4575 22.8141 15.5794C22.9215 15.633 23.1044 15.7544 23.3045 15.8873ZM35.2986 1.36984C35.1561 1.37681 34.9488 1.52076 34.6767 1.80169C34.4711 2.01391 34.2742 2.37133 34.0565 2.76649C33.986 2.89442 33.9133 3.0263 33.8375 3.1585C31.6863 6.90808 30.6695 13.7791 30.6695 13.7791C30.6695 13.7791 30.2589 15.9623 30.1534 17.3948L31.7684 17.3157C33.2865 12.7136 34.6633 8.08534 35.5107 3.29963C35.5107 3.29963 35.5865 2.40389 35.5715 2.09241C35.5479 1.60295 35.4569 1.36209 35.2986 1.36984ZM30.1586 21.4533C30.4028 20.921 30.6311 20.3894 30.8435 19.8587C31.0553 19.3131 31.2588 18.7605 31.454 18.2009L30.1003 18.2671C30.0915 18.7433 30.092 19.2487 30.1019 19.7835C30.1111 20.3034 30.1293 20.8451 30.1565 21.4088L30.1586 21.4533ZM63.577 30.7453C64.4637 30.7019 65.3328 30.2952 66.1844 29.525C67.0511 28.7392 67.8672 27.7255 68.6325 26.4838C68.5039 25.7913 68.4048 25.0528 68.3353 24.2682C68.2657 23.4837 68.2095 22.6464 68.1666 21.7565L68.0861 20.0879C68.059 19.5243 68.0487 18.9821 68.0553 18.4614C67.9733 18.406 67.8506 18.3302 67.6873 18.2341C67.5398 18.1373 67.3448 18.0428 67.1023 17.9506C66.8756 17.8576 66.6105 17.7888 66.3068 17.7442C66.0182 17.684 65.6918 17.6628 65.3277 17.6806C64.7894 17.7069 64.1866 17.8777 63.5194 18.1928C62.8521 18.5079 62.2252 18.9995 61.6384 19.6675C61.0668 20.3199 60.5995 21.1604 60.2365 22.1892C59.8734 23.2179 59.727 24.4591 59.797 25.9126C59.8306 26.6097 59.9413 27.2585 60.1289 27.8588C60.3324 28.4584 60.5956 28.9808 60.9186 29.4259C61.2567 29.8553 61.646 30.1931 62.0863 30.4391C62.5418 30.6696 63.0387 30.7717 63.577 30.7453ZM74.7792 5.35406C74.7685 5.13158 74.7405 4.8802 74.6953 4.59994C74.6658 4.3189 74.6058 4.06166 74.5152 3.82822C74.4239 3.57995 74.2952 3.37811 74.129 3.2227C73.9779 3.05169 73.7678 2.97277 73.4986 2.98594C72.8495 3.0177 72.2721 3.55144 71.7666 4.58715C71.2769 5.62208 70.8771 7.03916 70.567 8.8384C70.2563 10.6228 70.0477 12.7144 69.9412 15.1132C69.8346 17.5121 69.8479 20.0909 69.9809 22.8497L70.0291 23.8508C70.5196 22.8307 70.983 21.7451 71.4195 20.5938C71.8559 19.4425 72.2525 18.2858 72.6091 17.1236C72.9815 15.9606 73.3068 14.8073 73.5849 13.6638C73.8631 12.5203 74.0966 11.4384 74.2854 10.4182C74.4736 9.38315 74.6103 8.4324 74.6954 7.56594C74.7806 6.69947 74.8086 5.96218 74.7792 5.35406Z" fill="#264673"/>
<path d="M4.32473 12.4591C4.36477 13.2897 4.58296 14.0298 4.9793 14.6794C5.37492 15.3142 5.8947 15.8909 6.53864 16.4095C7.18186 16.9132 7.92621 17.3748 8.77169 17.7944C9.63229 18.1983 10.54 18.5924 11.4949 18.9768C12.4491 19.3464 13.427 19.7149 14.4286 20.0821C15.4454 20.4338 16.432 20.8167 17.3883 21.2307C18.3439 21.63 19.2462 22.0765 20.0952 22.5701C20.9594 23.0482 21.716 23.5984 22.3649 24.2208C23.0131 24.8284 23.5386 25.5237 23.9414 26.3069C24.3435 27.0751 24.5684 27.9562 24.6164 28.9499C24.7036 30.7595 24.4152 32.3495 23.7513 33.72C23.0866 35.0757 22.1655 36.2135 20.9878 37.1335C19.8109 38.0682 18.4249 38.7828 16.83 39.2771C15.2358 39.7863 13.5599 40.0838 11.8025 40.1698C10.2509 40.2458 8.77704 40.1246 7.38099 39.8064C5.98565 39.503 4.74905 39.0357 3.67119 38.4046C2.59404 37.7883 1.72384 37.0206 1.06059 36.1015C0.413893 35.1966 0.0637273 34.1879 0.0100955 33.0754C-0.0371005 32.0965 0.081183 31.2582 0.364946 30.5604C0.663827 29.847 0.992536 29.2585 1.35107 28.795C1.72544 28.3306 2.08178 27.9861 2.42009 27.7614C2.7584 27.5367 2.95095 27.4158 2.99774 27.3986L3.57063 28.4187C3.53968 28.4351 3.39392 28.5389 3.13334 28.7301C2.87205 28.9064 2.59166 29.1803 2.29216 29.5517C2.0085 29.9224 1.74567 30.3962 1.50369 30.973C1.27682 31.5342 1.1827 32.2152 1.22131 33.0162C1.25992 33.8171 1.45294 34.5287 1.80034 35.151C2.16287 35.7577 2.62473 36.2852 3.18593 36.7335C3.76296 37.181 4.40803 37.5583 5.12112 37.8653C5.85004 38.1716 6.5995 38.41 7.36949 38.5804C8.1402 38.7657 8.90768 38.8843 9.67195 38.9361C10.4369 39.0027 11.144 39.0201 11.7931 38.9884C13.4714 38.9062 14.9817 38.6316 16.3241 38.1645C17.6671 37.7123 18.7968 37.1143 19.7131 36.3707C20.6461 35.6412 21.3519 34.8112 21.8308 33.8809C22.309 32.9357 22.5226 31.9366 22.4719 30.8835C22.4147 29.697 22.0962 28.6867 21.5164 27.8528C20.9366 27.0189 20.1876 26.2973 19.2695 25.688C18.3507 25.064 17.3088 24.5203 16.1438 24.0569C14.9939 23.578 13.8131 23.1154 12.6013 22.6692C11.4054 22.2223 10.2242 21.7523 9.05777 21.2593C7.90646 20.7507 6.86997 20.1547 5.94829 19.4713C5.02661 18.7879 4.27373 17.9847 3.68964 17.0618C3.10484 16.1241 2.78062 14.9952 2.71698 13.6751C2.64619 12.2067 2.84271 10.8516 3.30656 9.6098C3.78624 8.36722 4.46414 7.28591 5.34025 6.36587C6.23149 5.43023 7.29106 4.69448 8.51897 4.15865C9.74617 3.60797 11.0881 3.297 12.5447 3.22572C14.0172 3.15367 15.3154 3.25367 16.4394 3.52575C17.5628 3.78299 18.5104 4.18263 19.2825 4.72467C20.0696 5.25111 20.6646 5.90589 21.0674 6.689C21.486 7.47135 21.7185 8.34457 21.765 9.30866C21.8029 10.0948 21.7372 10.8711 21.5678 11.6376C21.4136 12.3885 21.232 13.0664 21.0231 13.6713C20.8142 14.2762 20.6158 14.7691 20.4278 15.15C20.2399 15.5309 20.1391 15.7439 20.1254 15.7892L19.0299 15.2853C19.0291 15.2705 19.1076 15.0882 19.2654 14.7386C19.4389 14.3881 19.6233 13.9331 19.8185 13.3734C20.0137 12.8138 20.1819 12.1886 20.3232 11.4978C20.4796 10.7914 20.5406 10.0822 20.5063 9.37025C20.4677 8.56931 20.2743 7.85029 19.9262 7.21316C19.5932 6.56044 19.0989 6.01967 18.4434 5.59086C17.788 5.16205 16.9712 4.84521 15.9933 4.64032C15.0153 4.43544 13.8693 4.36515 12.5551 4.42945C11.336 4.48911 10.2132 4.73733 9.18687 5.1741C8.15978 5.59604 7.27478 6.16713 6.53186 6.88738C5.80477 7.60685 5.2421 8.44465 4.84383 9.40077C4.44484 10.3421 4.27181 11.3615 4.32473 12.4591Z" fill="#264673"/>
<path fill-rule="evenodd" clip-rule="evenodd" d="M79.669 29.1585C80.3704 29.8824 81.2199 30.22 82.2173 30.1712C82.8981 30.1379 83.5088 29.9667 84.0494 29.6578C84.6051 29.3333 85.1014 28.9299 85.5384 28.4476C85.9418 27.9879 86.3022 27.4795 86.6195 26.9224C86.6721 27.064 86.7288 27.2014 86.7894 27.3347C87.1951 28.1772 87.6968 28.8737 88.2947 29.4243C88.9077 29.9592 89.5772 30.3502 90.3033 30.5971C91.0445 30.8284 91.7713 30.9267 92.4837 30.8918C93.3387 30.85 94.1002 30.6789 94.7681 30.3786C95.4512 30.0627 96.0425 29.6547 96.5421 29.1545C97.0417 28.6543 97.4582 28.0764 97.7916 27.4208C98.125 26.7652 98.3851 26.0685 98.5717 25.3309C99.1539 25.2281 99.7092 25.0597 100.238 24.8257C100.781 24.5761 101.288 24.239 101.76 23.8146C102.247 23.3893 102.69 22.8696 103.089 22.2554C103.504 21.6404 103.857 20.902 104.149 20.0403C104.505 18.8633 104.876 17.9977 105.262 17.4436C105.648 16.8895 106.038 16.6027 106.434 16.5834C106.688 16.571 106.896 16.6202 107.06 16.7311C107.239 16.8264 107.383 17.0053 107.491 17.2676C107.599 17.5299 107.679 17.8828 107.732 18.3262C107.785 18.7548 107.827 19.2954 107.858 19.948C107.907 20.9714 107.895 22.0276 107.82 23.1166C107.746 24.2055 107.651 25.2062 107.537 26.1188C107.413 27.1804 107.265 28.2283 107.093 29.2626L108.701 29.5407C108.828 28.8655 108.971 28.0556 109.132 27.1111C109.293 26.1666 109.483 25.1835 109.704 24.1617C109.924 23.1252 110.168 22.1022 110.437 21.093C110.705 20.0689 111.002 19.1549 111.328 18.351C111.654 17.5322 112.01 16.868 112.398 16.3584C112.802 15.848 113.234 15.5816 113.693 15.5591C114.184 15.5351 114.566 15.7171 114.838 16.1052C115.111 16.4933 115.262 16.9988 115.292 17.6218C115.314 18.0815 115.302 18.6471 115.255 19.3184C115.224 19.989 115.17 20.6904 115.095 21.4226C115.035 22.154 114.959 22.8862 114.867 23.6192C114.775 24.3373 114.687 24.9883 114.604 25.5722C114.536 26.1405 114.472 26.6119 114.411 26.9866L114.318 27.5264L116.017 27.7109C116.08 27.0536 116.18 26.3277 116.316 25.533C116.452 24.7236 116.611 23.9129 116.794 23.1011C116.977 22.2745 117.192 21.476 117.441 20.7056C117.688 19.9204 117.964 19.223 118.268 18.6135C118.572 18.0039 118.897 17.5122 119.244 17.1384C119.591 16.7646 119.963 16.5681 120.359 16.5487C120.675 16.5332 120.932 16.5875 121.128 16.7117C121.34 16.8203 121.506 16.9831 121.628 17.2002C121.765 17.4017 121.863 17.6347 121.924 17.8994C121.984 18.164 122.02 18.4298 122.033 18.6968C122.056 19.1715 122.042 19.6999 121.991 20.2823C121.939 20.8498 121.872 21.4403 121.791 22.0538C121.724 22.6518 121.666 23.2567 121.616 23.8687C121.566 24.4659 121.553 25.0315 121.579 25.5654C121.638 26.7816 121.925 27.6373 122.441 28.1324C122.957 28.6275 123.682 28.8522 124.616 28.8065C125.423 28.767 126.144 28.4195 126.779 27.764C127.414 27.0937 127.992 26.2625 128.516 25.2705C128.93 24.5089 129.313 23.6963 129.666 22.8326C129.734 23.6544 129.901 24.3732 130.169 24.989C130.488 25.687 130.889 26.262 131.371 26.7142C131.852 27.1515 132.391 27.4671 132.988 27.6609C133.6 27.854 134.231 27.9346 134.88 27.9028C136.099 27.8432 137.097 27.4747 137.874 26.7974C138.65 26.1053 139.266 25.2351 139.724 24.1869C139.897 25.1596 140.249 25.8709 140.779 26.3207C141.051 26.5452 141.349 26.7071 141.67 26.8064C139.91 27.7501 136.975 29.2743 134.738 30.1874C129.868 32.175 126.159 32.9028 121.821 33.7538C120.908 33.933 119.968 34.1175 118.982 34.3205C118.667 34.2387 118.354 34.1647 118.042 34.0909C117.72 34.0146 117.398 33.9386 117.078 33.8547C112.296 32.6042 107.848 31.4409 104.182 31.0535C100.038 30.6157 96.5727 31.1336 94.8556 34.0156C94.0893 35.3016 94.5384 36.5672 95.8825 37.1628C97.0746 37.6909 98.9867 37.8838 101.282 37.8631C107.138 37.8102 112.957 36.9508 118.688 35.7812C127.661 38.1047 135.914 40.1743 146.882 38.6818C154.35 37.6656 159.613 35.4149 165.36 32.9567C165.721 32.8026 166.083 32.6476 166.448 32.4921C166.453 32.49 166.458 32.4878 166.463 32.4856L167 32.2567C166.643 31.406 166.173 30.6036 165.705 29.8055C165.552 29.5453 165.4 29.2855 165.252 29.0247C164.5 29.5004 163.741 29.9645 162.974 30.4143L162.882 30.4678C157.91 33.381 153.553 35.933 146.918 37.3067C137.614 39.2329 129.571 37.2233 121.547 35.2181C121.283 35.152 121.018 35.086 120.754 35.0201C121.571 34.8362 122.359 34.6652 123.131 34.4976C126.799 33.7021 130.102 32.9855 134.336 31.3457C137.659 30.0591 139.763 29.1641 142.604 27.4785C143.645 27.3457 146.207 26.7859 148.184 26.1914C149.209 25.9236 150.284 25.6042 151.319 25.2367C152.839 24.6969 154.31 24.0408 155.412 23.2699C156.486 22.519 157.368 21.5458 157.368 20.3387C157.368 19.8856 157.23 19.4226 156.807 19.1489C156.426 18.9026 155.961 18.9128 155.559 18.9866C154.741 19.1368 153.642 19.6584 152.409 20.3446C151.028 21.1125 149.354 22.1616 147.548 23.293C146.401 24.0121 144.201 25.3602 143.455 25.8168C142.683 25.9029 142.01 25.7722 141.654 25.2297C141.396 24.7964 141.238 24.0013 141.182 22.8444C141.165 22.4735 141.17 22.0942 141.199 21.7062C141.227 21.3034 141.264 20.9151 141.309 20.5412C141.371 20.1665 141.433 19.8215 141.498 19.5061C141.562 19.1908 141.629 18.9347 141.699 18.7381L140.228 18.364C140.007 19.0438 139.849 19.7131 139.754 20.372C139.674 21.0152 139.645 21.5741 139.668 22.0487C139.476 22.6677 139.243 23.2738 138.97 23.8669C138.697 24.4453 138.38 24.9588 138.021 25.4075C137.662 25.8563 137.259 26.2254 136.813 26.5148C136.381 26.7887 135.92 26.9376 135.43 26.9616C134.448 27.0096 133.645 26.6475 133.02 25.8752C132.412 25.1022 132.071 23.9518 131.997 22.4241C131.923 20.8816 132.072 19.5436 132.446 18.4103C132.836 17.2762 133.322 16.3306 133.904 15.5736C134.503 14.8159 135.134 14.2497 135.798 13.8753C136.463 13.5008 137.048 13.3012 137.555 13.2764C138.22 13.2439 138.775 13.41 139.222 13.7747C139.667 14.1246 139.907 14.6555 139.941 15.3674C139.971 15.9904 139.854 16.5239 139.59 16.968C139.326 17.4121 139.026 17.7835 138.691 18.0824C138.372 18.3656 138.056 18.5743 137.745 18.7085C137.45 18.8419 137.279 18.9097 137.232 18.912L137.558 19.7658C137.792 19.6652 138.101 19.5013 138.487 19.2743C138.889 19.0465 139.271 18.7528 139.635 18.393C140.014 18.0325 140.326 17.5935 140.571 17.0761C140.832 16.5578 140.946 15.9576 140.913 15.2753C140.885 14.6968 140.759 14.2198 140.534 13.8442C140.326 13.4679 140.05 13.1766 139.707 12.9704C139.378 12.7486 139.006 12.5958 138.589 12.5122C138.173 12.4285 137.743 12.3975 137.299 12.4192C136.793 12.444 136.244 12.5749 135.652 12.812C135.06 13.0491 134.473 13.3752 133.89 13.7903C133.307 14.2053 132.744 14.7086 132.201 15.3002C131.674 15.8909 131.214 16.5601 130.822 17.3078C130.489 17.9276 130.216 18.5977 130.002 19.318C129.655 20.1946 129.311 21.0489 128.971 21.8808C128.531 22.9579 128.093 23.916 127.658 24.755C127.222 25.594 126.787 26.2769 126.352 26.8037C125.917 27.3156 125.477 27.5824 125.034 27.6041C124.448 27.6328 124.035 27.4523 123.794 27.0627C123.553 26.6731 123.411 26.0407 123.369 25.1656C123.364 25.0618 123.371 24.8756 123.39 24.6071C123.408 24.3237 123.432 24.0029 123.462 23.6446C123.492 23.2715 123.52 22.8761 123.548 22.4585C123.575 22.0408 123.603 21.6306 123.631 21.2278C123.66 20.825 123.682 20.4597 123.698 20.1318C123.713 19.7892 123.715 19.514 123.705 19.3063C123.671 18.5944 123.547 18.0057 123.335 17.5404C123.121 17.0602 122.857 16.6792 122.541 16.3973C122.242 16.1146 121.9 15.9232 121.514 15.8231C121.128 15.7082 120.744 15.6601 120.364 15.6787C119.589 15.7167 118.888 15.9962 118.262 16.5175C117.653 17.0379 117.153 17.7017 116.763 18.5087C116.71 17.7234 116.583 17.0754 116.384 16.5648C116.185 16.0542 115.943 15.6571 115.66 15.3737C115.392 15.0746 115.088 14.8739 114.75 14.7715C114.428 14.6683 114.108 14.6245 113.792 14.64C112.937 14.6818 112.162 15.0839 111.469 15.8464C110.776 16.6088 110.114 17.8603 109.484 19.6008C109.447 18.8296 109.344 18.1804 109.176 17.6534C109.023 17.1257 108.821 16.7045 108.567 16.3898C108.313 16.0603 108.025 15.8291 107.701 15.6963C107.393 15.5627 107.065 15.5044 106.716 15.5214C105.925 15.5602 105.253 15.9424 104.701 16.6682C104.148 17.3792 103.651 18.4441 103.212 19.8632C103.001 20.4236 102.765 20.9555 102.503 21.4589C102.241 21.9475 101.929 22.3939 101.568 22.7981C101.222 23.1867 100.81 23.5265 100.332 23.8175C99.8696 24.1078 99.3323 24.3199 98.7198 24.4539C98.8236 23.9731 98.8875 23.4868 98.9114 22.995C98.9345 22.4884 98.934 21.9829 98.9097 21.4786C98.8446 20.1289 98.6485 19.0235 98.3213 18.1623C98.0092 17.2856 97.619 16.5985 97.1507 16.101C96.6823 15.6036 96.1661 15.2646 95.6019 15.0841C95.037 14.8887 94.4696 14.805 93.8996 14.8329C93.203 14.867 92.6078 15.0299 92.114 15.3217C91.6202 15.6134 91.2253 15.9821 90.9294 16.4278C90.6328 16.8586 90.4182 17.3448 90.2856 17.8865C90.1688 18.4274 90.123 18.9575 90.148 19.4766C90.1931 20.411 90.4087 21.2628 90.7949 22.0318C91.1804 22.7861 91.6876 23.4303 92.3164 23.9645C92.9604 24.483 93.7015 24.8779 94.5398 25.1491C95.394 25.4195 96.3119 25.5307 97.2935 25.4827L97.4835 25.4734C97.0801 26.6528 96.4815 27.5666 95.6875 28.2151C94.9093 28.8627 94.0769 29.2082 93.1903 29.2516C92.5886 29.281 91.9661 29.2074 91.3228 29.0308C90.6788 28.8393 90.0916 28.5112 89.5614 28.0465C89.0304 27.567 88.579 26.9275 88.2072 26.128C88.0011 25.6646 87.8449 25.134 87.7387 24.5362C87.9435 24.0328 88.1235 23.5451 88.2787 23.0728C88.4876 22.4679 88.6684 21.9387 88.8211 21.4852L87.8842 21.3081C87.8084 21.5586 87.7154 21.8456 87.6052 22.1691C87.6307 21.8768 87.6742 21.5836 87.7358 21.2895C87.8641 20.6588 88.0496 20.0625 88.2923 19.5005C88.5343 18.9237 88.8105 18.3973 89.1208 17.9212C89.4311 17.4451 89.7609 17.0425 90.11 16.7132L89.7269 16.1744C89.1777 16.6324 88.672 17.1701 88.2097 17.7874C87.7468 18.3899 87.3497 19.0412 87.0185 19.7413C86.7023 20.4257 86.4596 21.1513 86.2902 21.9178C86.1367 22.6835 86.0789 23.4594 86.1168 24.2455C86.1374 24.6733 86.1791 25.0793 86.2419 25.4636C86.1676 25.6104 86.0906 25.7574 86.0109 25.9045C85.72 26.454 85.3953 26.9605 85.0367 27.424C84.6933 27.872 84.3222 28.2395 83.9234 28.5266C83.5247 28.8138 83.0957 28.9686 82.6365 28.991C82.3516 29.005 82.0803 28.9736 81.8226 28.8971C81.5808 28.8197 81.3592 28.667 81.1578 28.439C80.9715 28.1953 80.8125 27.8612 80.681 27.4365C80.5487 26.9969 80.4658 26.4286 80.4321 25.7315C80.3921 24.9009 80.4298 24.0367 80.5452 23.1391C80.6599 22.2265 80.8005 21.3574 80.967 20.5315C81.1486 19.6901 81.3263 18.9306 81.4999 18.2531C81.6894 17.5748 81.8223 17.0405 81.8987 16.6502L81.0093 16.4707C80.0278 18.4961 79.3532 20.3057 78.9857 21.8996C78.6333 23.4779 78.4814 24.7714 78.53 25.78C78.6037 27.3077 78.9833 28.4339 79.669 29.1585ZM147.683 24.1705C147.156 24.5103 146.666 24.8468 146.213 25.1575C145.76 25.4686 145.344 25.754 144.966 25.9911C146.795 25.5738 148.367 25.0447 150.45 24.1769C151.902 23.5719 154.083 22.4347 154.083 22.4347C154.083 22.4347 155.286 21.7536 155.006 21.2315C154.779 20.8102 154.117 20.8914 153.824 20.934C152.752 21.0902 151.25 22.0108 150.075 22.7309C149.711 22.954 149.379 23.1579 149.1 23.3138C148.611 23.5872 148.148 23.8712 147.71 24.1531C147.703 24.1574 147.694 24.1632 147.683 24.1705ZM93.894 15.7029C93.4665 15.7238 93.0749 15.8322 92.7194 16.028C92.3631 16.2089 92.0575 16.4543 91.8026 16.7641C91.5478 17.074 91.3512 17.4404 91.2129 17.8634C91.0746 18.2865 91.0176 18.7502 91.0419 19.2545C91.0841 20.1296 91.2803 20.9079 91.6306 21.5895C91.9809 22.2712 92.437 22.8435 92.9989 23.3066C93.5766 23.769 94.2361 24.1158 94.9773 24.3472C95.7177 24.5637 96.5075 24.6514 97.3467 24.6103L97.7979 24.5883C97.9024 24.1223 97.9662 23.636 97.9894 23.1293C98.0126 22.6227 98.0099 22.0728 97.9813 21.4795C97.8946 20.3389 97.7222 19.3959 97.464 18.6503C97.221 17.8891 96.9222 17.2867 96.5675 16.8432C96.2129 16.3997 95.8013 16.0927 95.3329 15.9224C94.8802 15.7512 94.4006 15.6781 93.894 15.7029ZM103.754 33.2788C107.029 33.4413 112.2 34.2189 116.62 35.2129C112.058 36.0471 106.253 36.7205 101.596 36.6278C99.4568 36.5852 97.9276 36.3213 97.104 35.8745C96.1248 35.3433 96.5402 34.2446 97.3755 33.8615C97.7336 33.6972 98.2211 33.5569 98.8395 33.451C100.075 33.2393 101.748 33.1792 103.754 33.2788Z" fill="#264673"/>
<path d="M84.1864 14.3311C84.6003 14.0284 84.7948 13.6175 84.7698 13.0983C84.7216 12.0992 83.5539 11.3747 82.3686 11.1009C81.4624 10.8915 80.0064 11.3983 80.0064 11.3983C80.0064 11.3983 82.0733 11.3983 82.6638 11.6958C83.2544 11.9933 83.7965 12.3069 83.8449 12.8857L83.848 12.9223C83.8806 13.3072 83.9077 13.6274 83.5497 13.873C82.8469 14.3553 82.037 13.7252 81.4828 13.1832C81.1752 12.8824 81.1129 12.5617 81.066 12.3202C81.016 12.0629 80.9835 11.8955 80.6907 11.9376C80.1633 12.0135 80.1079 12.6872 80.1322 13.1915C80.1436 13.4288 80.2101 13.656 80.3317 13.873C80.4684 14.0745 80.6436 14.2518 80.8572 14.4048C81.0861 14.5423 81.3455 14.656 81.6355 14.7459C81.9406 14.8201 82.2594 14.8491 82.5919 14.8329C83.241 14.8011 83.7725 14.6338 84.1864 14.3311Z" fill="#264673"/>
<path fill-rule="evenodd" clip-rule="evenodd" d="M33.1999 40.3057H36.2589C37.0148 40.3057 37.6762 40.4445 38.2431 40.7222C38.8179 40.9998 39.2589 41.3965 39.5659 41.9121C39.8809 42.4198 40.0384 43.0187 40.0384 43.7089C40.0384 44.399 39.8809 45.0019 39.5659 45.5175C39.2589 46.0252 38.8179 46.4179 38.2431 46.6955C37.6762 46.9732 37.0148 47.112 36.2589 47.112H33.1999V40.3057ZM36.2117 45.8983C36.9361 45.8983 37.503 45.7079 37.9124 45.3271C38.3297 44.9384 38.5384 44.399 38.5384 43.7089C38.5384 43.0187 38.3297 42.4833 37.9124 42.1025C37.503 41.7217 36.9361 41.5313 36.2117 41.5313H34.688V45.8983H36.2117Z" fill="#264673"/>
<path d="M49.7358 45.9102V47.112H44.4917V40.3057H49.6058V41.5194H45.9799V43.0782H49.2043V44.2443H45.9799V45.9102H49.7358Z" fill="#264673"/>
<path d="M57.6176 47.112H56.1412L53.1649 40.3057H54.7593L56.9089 45.3509L59.0821 40.3057H60.5821L57.6176 47.112Z" fill="#264673"/>
<path d="M64.6177 47.1953C64.3421 47.1953 64.1137 47.1081 63.9326 46.9335C63.7594 46.7511 63.6728 46.529 63.6728 46.2672C63.6728 46.0054 63.7594 45.7873 63.9326 45.6127C64.1137 45.4382 64.3421 45.3509 64.6177 45.3509C64.8854 45.3509 65.1098 45.4422 65.2909 45.6246C65.472 45.7991 65.5625 46.0133 65.5625 46.2672C65.5625 46.529 65.472 46.7511 65.2909 46.9335C65.1098 47.1081 64.8854 47.1953 64.6177 47.1953Z" fill="#264673"/>
<path fill-rule="evenodd" clip-rule="evenodd" d="M74.4679 43.6613C74.9482 43.7565 75.3104 43.9469 75.5545 44.2324C75.8065 44.5101 75.9325 44.879 75.9325 45.3391C75.9325 45.9102 75.716 46.3505 75.2829 46.6599C74.8577 46.9613 74.2317 47.112 73.405 47.112H70.3696V40.4128H73.216C73.9561 40.4128 74.5309 40.5635 74.9404 40.865C75.3577 41.1585 75.5663 41.5789 75.5663 42.1263C75.5663 42.5071 75.4679 42.8283 75.2711 43.0901C75.0821 43.3519 74.8144 43.5423 74.4679 43.6613ZM70.9601 40.9007V43.4828H73.1924C73.7593 43.4828 74.1963 43.3717 74.5034 43.1496C74.8183 42.9275 74.9758 42.6062 74.9758 42.1858C74.9758 41.7654 74.8183 41.448 74.5034 41.2339C74.1963 41.0117 73.7593 40.9007 73.1924 40.9007H70.9601ZM73.405 46.6242C74.6884 46.6242 75.3301 46.1799 75.3301 45.2915C75.3301 44.8314 75.1687 44.4942 74.8459 44.28C74.523 44.0658 74.0427 43.9588 73.405 43.9588H70.9601V46.6242H73.405Z" fill="#264673"/>
<path d="M83.4656 47.1715C82.6073 47.1715 81.9341 46.9256 81.4459 46.4338C80.9656 45.934 80.7255 45.2161 80.7255 44.28V40.4128H81.316V44.2562C81.316 45.0416 81.5011 45.6365 81.8711 46.0411C82.2412 46.4377 82.7727 46.6361 83.4656 46.6361C84.1585 46.6361 84.6861 46.4377 85.0483 46.0411C85.4183 45.6445 85.6034 45.0495 85.6034 44.2562V40.4128H86.1939V44.28C86.1939 45.2161 85.9538 45.934 85.4735 46.4338C84.9931 46.9256 84.3239 47.1715 83.4656 47.1715Z" fill="#264673"/>
<path fill-rule="evenodd" clip-rule="evenodd" d="M96.3608 47.112L94.7781 44.9107C94.5891 44.9345 94.3923 44.9464 94.1876 44.9464H92.3097V47.112H91.7191V40.4128H94.1876C95.038 40.4128 95.7033 40.6151 96.1836 41.0197C96.6718 41.4163 96.9159 41.9716 96.9159 42.6856C96.9159 43.2091 96.7781 43.6533 96.5025 44.0182C96.2348 44.3752 95.849 44.633 95.345 44.7917L97.0222 47.112H96.3608ZM94.164 44.4466C94.8647 44.4466 95.3962 44.2959 95.7584 43.9944C96.1285 43.6851 96.3135 43.2488 96.3135 42.6856C96.3135 42.1223 96.1285 41.69 95.7584 41.3885C95.3962 41.0871 94.8647 40.9364 94.164 40.9364H92.3097V44.4466H94.164Z" fill="#264673"/>
<path d="M106.685 46.6004V47.112H101.984V40.4128H106.543V40.9364H102.575V43.459H106.118V43.9706H102.575V46.6004H106.685Z" fill="#264673"/>
<path fill-rule="evenodd" clip-rule="evenodd" d="M115.643 45.2558H111.781L110.931 47.112H110.329L113.411 40.4128H114.002L117.096 47.112H116.482L115.643 45.2558ZM115.407 44.756L113.706 41.0197L112.006 44.756H115.407Z" fill="#264673"/>
<path d="M123.927 47.1715C123.069 47.1715 122.396 46.9256 121.907 46.4338C121.427 45.934 121.187 45.2161 121.187 44.28V40.4128H121.778V44.2562C121.778 45.0416 121.963 45.6365 122.333 46.0411C122.703 46.4377 123.234 46.6361 123.927 46.6361C124.62 46.6361 125.148 46.4377 125.51 46.0411C125.88 45.6445 126.065 45.0495 126.065 44.2562V40.4128H126.655V44.28C126.655 45.2161 126.415 45.934 125.935 46.4338C125.455 46.9256 124.785 47.1715 123.927 47.1715Z" fill="#264673"/>
</svg>
